<svg width="675" height="675" viewBox="0 0 675 675" fill="none" xmlns="http://www.w3.org/2000/svg">
<g filter="url(#filter0_i_111_112)">
<path d="M209.649 434.938C209.401 435.512 209.154 436.08 208.91 436.641C207.176 440.632 205.544 444.323 204.017 447.716C203.444 449.023 202.879 450.289 202.321 451.516C201.799 452.664 201.283 453.778 200.773 454.857C200.034 456.422 199.308 457.914 198.595 459.332C196.776 462.953 195.043 466.096 193.397 468.761L193.369 468.806C192.849 469.647 192.337 470.441 191.833 471.187C191.403 471.825 190.98 472.427 190.562 472.995C190.367 473.26 190.172 473.519 189.977 473.771C188.424 475.782 186.882 477.374 185.35 478.546C183.212 480.182 181.095 481 179 481C179.23 480.461 179.571 479.681 180.022 478.657C180.951 476.55 182.349 473.414 184.215 469.25C184.317 469.022 184.421 468.791 184.526 468.556C184.971 467.564 185.442 466.515 185.937 465.411C186.727 463.682 187.566 461.842 188.454 459.892C189.102 458.467 189.777 456.983 190.478 455.441C191.926 452.253 193.486 448.814 195.157 445.123C195.968 443.332 196.805 441.482 197.669 439.573C198.631 437.446 199.626 435.245 200.653 432.97C200.797 432.655 200.942 432.338 201.087 432.02C201.2 431.774 201.312 431.528 201.425 431.28C204.924 423.621 208.644 415.406 212.586 406.637C213.596 404.391 214.62 402.108 215.658 399.789L215.667 399.769C215.818 399.433 215.969 399.096 216.12 398.758C217.794 395.018 219.506 391.185 221.255 387.258C221.917 385.787 222.581 384.309 223.249 382.824C229.41 369.124 235.834 354.808 242.521 339.876L243.993 336.588L245.448 333.339L245.641 332.908C246.061 331.925 246.482 330.661 246.902 329.116C247.048 328.677 247.176 328.242 247.284 327.812C247.59 326.593 247.743 325.413 247.743 324.271C247.743 322.727 247.252 321.463 246.271 320.48C246.153 320.322 246.014 320.175 245.854 320.039C245.569 319.797 245.218 319.59 244.8 319.418C243.787 319.002 242.386 318.794 240.595 318.794C238.751 318.794 237.002 318.994 235.35 319.394C234.537 319.591 233.748 319.836 232.982 320.13L232.887 320.167C230.318 321.167 228.012 322.715 225.971 324.81C225.955 324.826 225.939 324.842 225.924 324.858C225.909 324.873 225.894 324.888 225.88 324.903C224.837 325.987 223.863 327.145 222.959 328.378C222.928 328.42 222.898 328.462 222.867 328.504C222.681 328.76 222.498 329.02 222.317 329.282C220.237 332.312 218.552 335.768 217.261 339.649C215.766 344.488 214.884 349.28 214.616 354.025C214.592 354.444 214.573 354.863 214.559 355.281C214.549 355.567 214.542 355.853 214.537 356.138C214.531 356.47 214.528 356.802 214.528 357.134V360.715L214.948 363.664C214.904 363.664 214.86 363.664 214.816 363.663C212.508 363.637 210.573 362.916 209.011 361.501C208.812 361.321 208.618 361.129 208.431 360.926C208.401 360.887 208.371 360.848 208.341 360.81C208.329 360.794 208.317 360.778 208.305 360.763C208.293 360.747 208.281 360.731 208.268 360.715C207.439 359.626 206.714 358.433 206.095 357.134C205.899 356.725 205.715 356.306 205.54 355.876C205.291 355.263 205.064 354.629 204.857 353.974C204.679 353.259 204.523 352.562 204.39 351.884C204.001 349.897 203.806 348.065 203.806 346.39C203.806 342.943 204.504 339.612 205.9 336.397C206.381 335.291 206.944 334.198 207.59 333.119C209.727 329.55 212.367 326.284 215.509 323.32C216.063 322.797 216.633 322.284 217.218 321.78C217.221 321.777 217.224 321.775 217.227 321.773C217.238 321.763 217.249 321.753 217.261 321.743C218.23 320.94 219.219 320.18 220.228 319.464L220.232 319.461C223.453 317.176 226.877 315.339 230.505 313.949C230.789 313.835 231.073 313.724 231.357 313.617C234.494 312.429 237.574 311.645 240.595 311.266C242.01 311.089 243.411 311 244.8 311C246.233 311 247.593 311.128 248.879 311.385C248.917 311.392 248.955 311.4 248.993 311.408C249.04 311.417 249.086 311.427 249.132 311.437C251.888 312.027 254.298 313.216 256.362 315.002C259.586 317.53 261.968 322.165 263.51 328.906C265.192 335.647 266.032 345.407 266.032 358.187C266.032 366.894 265.682 376.163 264.981 385.994C264.548 393.591 264.073 401.104 263.556 408.534C263.511 409.182 263.465 409.83 263.42 410.478L263.412 410.585C263.306 412.082 263.199 413.575 263.089 415.064C262.621 421.443 262.247 427.446 261.966 433.073C261.848 435.447 261.747 437.754 261.662 439.994C261.646 440.394 261.632 440.791 261.618 441.186C261.713 440.822 261.81 440.457 261.908 440.091C263.986 432.377 266.794 424.212 270.333 415.596C270.577 415 270.826 414.401 271.078 413.801L271.079 413.798L271.102 413.745C271.539 412.738 271.98 411.731 272.425 410.726C276.08 402.461 279.99 394.247 284.157 386.084L284.179 386.04C284.366 385.674 284.554 385.307 284.742 384.941C289.286 376.214 293.772 368.001 298.202 360.299L298.223 360.263C298.705 359.425 299.187 358.592 299.668 357.766C302.514 352.877 305.195 348.367 307.71 344.235C308.219 343.398 308.722 342.577 309.218 341.771C309.796 340.832 310.364 339.915 310.923 339.018C311.584 337.959 312.232 336.928 312.868 335.928L312.912 335.857C316.836 329.678 319.709 325.184 321.531 322.375C321.579 322.308 321.626 322.24 321.673 322.173C321.736 322.084 321.799 321.995 321.861 321.907C323.679 319.336 325.249 317.388 326.57 316.063C326.572 316.06 326.574 316.058 326.577 316.056C327.419 315.128 328.412 314.479 329.557 314.108C330.319 313.862 331.147 313.739 332.043 313.739C333.983 313.739 336.199 314.22 338.688 315.182L338.77 315.213C337.789 317.741 336.387 321.533 334.565 326.589C334.332 327.269 334.098 327.971 333.863 328.694C332.964 331.456 332.045 334.532 331.107 337.921C330.516 340.058 329.917 342.319 329.31 344.705C328.716 346.972 328.123 349.323 327.529 351.757C325.88 358.521 324.231 365.931 322.582 373.986C322.546 374.163 322.509 374.339 322.473 374.515C320.272 385.159 318.206 396.007 316.276 407.059C314.454 418.294 312.982 428.898 311.861 438.869C310.839 447.831 310.283 455.51 310.192 461.905C310.184 462.524 310.179 463.131 310.179 463.726C310.179 466.395 310.284 468.54 310.493 470.161C310.526 470.417 310.562 470.659 310.6 470.888C310.657 471.232 310.717 471.566 310.78 471.892C311.026 473.165 311.316 474.306 311.651 475.312C312.211 476.717 312.772 478.613 313.333 481C309.235 481 305.967 480.429 303.527 479.286C303.13 479.1 302.754 478.899 302.401 478.683C299.878 477.138 298.197 474.61 297.356 471.099C296.747 468.659 296.359 465.594 296.191 461.904C296.126 460.496 296.094 458.997 296.094 457.406C296.094 456.205 296.105 454.998 296.127 453.784C296.361 440.695 297.859 426.889 300.62 412.365C301.165 409.501 301.758 406.609 302.401 403.689C303.446 399.06 304.524 394.391 305.634 389.681C306.985 383.951 308.383 378.161 309.83 372.311C310.229 370.693 310.633 369.071 311.04 367.444L311.052 367.398C312.67 360.937 314.346 354.404 316.079 347.797C316.423 346.489 316.769 345.177 317.117 343.862C313.468 348.528 309.649 354.325 305.661 361.255C305.207 362.043 304.751 362.846 304.293 363.664C303.32 365.425 302.344 367.22 301.365 369.051C298.118 375.12 294.833 381.575 291.509 388.416L291.49 388.454C291.343 388.757 291.196 389.06 291.049 389.364C286.714 398.472 282.519 407.65 278.463 416.898L278.436 416.96L278.424 416.988C275.708 423.305 273.194 429.319 270.882 435.031C270.001 437.206 269.15 439.337 268.327 441.425C268.192 441.768 268.058 442.109 267.924 442.45L267.787 442.801C266.877 445.127 266.028 447.334 265.242 449.424C263.422 454.261 261.934 458.467 260.777 462.041C259.936 462.322 259.375 462.532 259.095 462.673C258.815 462.813 258.324 462.884 257.623 462.884C253.839 462.884 251.317 460.637 250.055 456.143C248.934 451.648 248.374 445.329 248.374 437.183C248.374 431.425 248.514 424.614 248.794 416.75C249.215 408.745 249.635 400.529 250.055 392.103C250.476 383.677 250.826 375.601 251.107 367.877C251.29 364.455 251.433 361.246 251.536 358.25C251.67 354.359 251.737 350.828 251.737 347.654C251.737 345.308 251.688 343.305 251.591 341.644C251.571 341.317 251.55 341.003 251.527 340.703C251.527 338.877 251.457 337.262 251.317 335.857C250.617 337.487 249.925 339.102 249.239 340.703L249.162 340.884C248.182 343.171 247.217 345.428 246.267 347.654C245.018 350.581 243.794 353.455 242.595 356.277C237.34 368.648 232.565 380.017 228.273 390.383L228.262 390.41C226.473 394.73 224.768 398.875 223.147 402.846C222.49 404.444 221.842 406.015 221.202 407.561C220.045 410.359 218.917 413.073 217.819 415.701C214.886 422.72 212.162 429.132 209.649 434.938Z" fill="#FFC34E"/>
<path d="M237.389 329.314C232.645 339.913 228.03 350.209 223.546 360.201L223.528 360.077V357.134C223.528 352.368 224.275 347.466 225.831 342.399C227.426 337.64 229.649 333.966 232.365 331.144C233.913 329.539 235.657 328.509 237.837 328.058C237.66 328.618 237.508 329.029 237.389 329.314Z" fill="#FFC34E"/>
<path d="M285.892 447.875C283.501 446.494 282.681 443.436 284.062 441.045L288.38 433.566C289.014 427.515 289.881 421.347 290.979 415.064L283.55 427.932C280.995 434.009 278.648 439.769 276.508 445.213C277.006 448.743 279.065 452.016 282.392 453.937L287.096 456.653C287.105 454.017 287.165 451.357 287.273 448.672L285.892 447.875Z" fill="#FFC34E"/>
<path d="M284.062 441.045C282.681 443.436 283.501 446.494 285.892 447.875L287.273 448.672C287.474 443.721 287.844 438.685 288.38 433.566L284.062 441.045Z" fill="#FFC34E"/>
<path d="M331.4 375.791L331.395 375.814C329.176 386.515 327.095 397.428 325.151 408.554C323.354 419.643 321.906 430.082 320.805 439.874L320.803 439.888C319.704 449.521 319.179 457.443 319.179 463.726C319.179 465.102 319.21 466.23 319.26 467.139L329.016 472.772C330.224 470.053 331.874 466.364 333.958 461.724L333.981 461.673C337.758 453.403 342.657 442.602 348.681 429.265L348.699 429.227C353.425 418.893 358.567 407.521 364.124 395.108L337.497 348.989C335.476 356.882 333.442 365.812 331.4 375.791Z" fill="#FFC34E"/>
<path d="M319.478 469.412C319.682 470.64 319.91 471.581 320.129 472.28C320.621 473.554 321.068 474.977 321.481 476.505L326.385 479.336C326.505 478.699 326.695 478.07 326.955 477.461C327.349 476.54 328.038 474.974 329.016 472.772L319.26 467.139C319.315 468.162 319.394 468.906 319.478 469.412Z" fill="#FFC34E"/>
<path d="M367.65 387.216L341.395 341.741L337.728 348.093C337.651 348.39 337.574 348.689 337.497 348.989L364.124 395.108C365.281 392.523 366.457 389.892 367.65 387.216Z" fill="#FFC34E"/>
<path d="M379.892 285.062C377.501 283.681 374.443 284.501 373.062 286.892L341.395 341.741L367.65 387.216C368.184 386.019 368.722 384.812 369.264 383.596L369.278 383.565C370.983 379.774 372.71 375.934 374.457 372.046C373.424 372.45 372.313 372.664 371.179 372.664C366.206 372.664 361.562 370.845 358.042 367.023C357.881 366.848 357.726 366.666 357.579 366.479C355.295 363.566 353.631 360.256 352.504 356.679C352.449 356.505 352.4 356.33 352.355 356.153C351.525 352.824 351.037 349.547 351.037 346.39C351.037 340.029 352.792 334.019 356.099 328.496C359.145 323.409 363.009 318.883 367.627 314.916C367.666 314.882 367.706 314.849 367.746 314.816C372.521 310.856 377.762 307.757 383.451 305.57C389.249 303.253 395.128 302 401.03 302C407.439 302 413.414 303.882 418.322 308.06C423.824 312.471 426.796 319.435 428.494 326.813C430.429 334.621 431.263 345.224 431.263 358.187C431.263 367.024 430.912 376.385 430.215 386.266C431.12 384.451 432.037 382.638 432.967 380.828L432.99 380.784C438.093 370.983 443.136 361.8 448.12 353.238C452.843 345.125 457.138 338.005 461.002 331.891L379.892 285.062Z" fill="#FFC34E"/>
<path d="M383.392 279C377.653 275.686 370.314 277.653 367 283.392L347.59 317.012C347.489 317.501 347.347 317.988 347.16 318.469C346.224 320.88 344.861 324.566 343.057 329.57C342.091 332.4 341.085 335.67 340.04 339.393L341.395 341.741L373.062 286.892C374.443 284.501 377.501 283.681 379.892 285.062L461.002 331.891C461.184 331.602 461.365 331.316 461.545 331.033C462.707 329.202 463.779 327.517 464.76 325.978L383.392 279Z" fill="#FFC34E"/>
<path d="M338.032 346.924L338.016 346.984C337.92 347.351 337.824 347.721 337.728 348.093L341.395 341.741L340.04 339.393C339.385 341.725 338.716 344.235 338.032 346.924Z" fill="#FFC34E"/>
<path d="M124.357 419.652C114.463 425.855 145.237 437.841 145.446 437.91C145.501 437.93 145.753 438.01 146.148 438.135C148.586 438.91 156.45 441.406 156.57 441.906C156.703 442.488 152.718 443.47 148.384 444.539C145.112 445.345 141.641 446.2 139.593 446.97C127.409 451.525 140.295 455.886 150.991 459.506C157.257 461.627 162.772 463.494 162.052 464.996C161.694 465.746 160.34 466.792 158.808 467.975C153.52 472.06 146.118 477.778 170.331 478.583C170.436 478.203 170.568 477.828 170.725 477.461C171.605 475.403 173.957 470.119 177.727 461.724L177.751 461.673C178.221 460.642 178.71 459.571 179.215 458.462C171.589 452.549 165.361 444.53 173.803 440.001C165.164 427.852 159.822 405.157 172.061 407.271C169.065 395.796 165.814 371.173 181.073 376.887C176.622 362.41 173.993 344.424 181.989 345.655C182.876 342.944 184.728 340.538 187.392 339L189.603 337.723C174.226 322.899 161.966 310.148 155.525 296.282C140.443 263.828 140.8 231.578 141.017 212.004C141.136 201.315 141.212 194.406 138.71 193.307C129.807 189.408 114.282 223.499 113.639 248.178C119.042 283.462 123.675 309.994 145.701 339.651L146.096 340.023C139.965 325.249 137.549 310.15 140.359 305.202C143.564 299.534 154.829 306.061 169.855 324.575C131.43 284.896 143.695 325.062 148.447 340.621C149.448 343.899 150.115 346.084 149.905 346.202C149.899 346.204 149.747 346.064 149.471 345.808C145.261 341.914 112.204 311.333 127.307 354.099C130.28 362.508 144.702 382.764 144.702 382.764C143.463 383.07 139.057 381 136.5 379.798C135.751 379.446 135.16 379.169 134.855 379.048C114.974 371.057 120.084 386.225 131.673 398.816C141.498 409.489 156.074 417.997 159.147 419.791L159.149 419.792C159.533 420.016 159.737 420.135 159.729 420.14C157.898 421.517 149.001 420.734 140.553 419.992C133.032 419.331 125.867 418.701 124.357 419.652Z" fill="#FFC34E"/>
<path d="M116.832 379.141C120.037 370.337 128.724 372.613 136.132 375.958C125.978 366.237 121.544 361.088 114.935 353.413L114.626 353.054C103.645 340.292 93.2241 322.273 89.2171 289.904C79.919 256.152 72.2054 250.702 69.9412 251.682C65.118 253.775 62.5235 300.449 76.675 341.919C77.2176 342.713 77.7462 343.488 78.262 344.243C92.4187 364.986 96.9443 371.617 117.738 387.805C116.693 384.971 116.322 382.067 116.832 379.141Z" fill="#FFC34E"/>
<path d="M52.9172 311.497C50.107 314.563 51.2451 373.217 93.8165 409.106C92.316 408.479 89.4118 406.834 85.8636 404.824C75.3518 398.869 59.1873 389.713 57.121 394.332C55.0075 399.025 66.4574 414.403 73.123 420.86C83.9226 431.313 96.557 439.072 108.216 443.764C107.32 443.709 106.036 443.563 104.512 443.389C95.1312 442.32 76.6609 440.214 83.7136 451.964C89.7947 462.117 108.675 468.079 125.847 471.547C134.831 468.141 137.548 466.647 139.24 465.716C141.183 464.648 141.777 464.321 148.953 462.696C143.17 460.954 137.108 458.817 134.274 456.54C129.258 452.522 130.28 449.246 133.647 446.668C132.947 446.677 132.271 446.69 131.609 446.702C125.322 446.822 120.25 446.919 107.728 443.346C109.314 443.361 111.102 443.394 113.023 443.43C123.318 443.624 137.451 443.889 144.888 441.697C135.111 438.886 122.894 434.194 119.434 425.924C117.984 422.483 119.054 421.248 119.7 420.503C120.079 420.066 120.312 419.797 119.805 419.35C118.744 418.434 117.325 418.146 115.203 417.716C111.193 416.903 104.674 415.582 93.3287 408.549C110.183 412.91 117.611 413.249 126.348 413.647C131.758 413.894 137.669 414.163 146.63 415.425C120.363 399.433 89.8638 370.851 76.4088 342.589C75.9425 341.812 75.3973 340.893 74.7885 339.868C68.6295 329.492 55.9733 308.17 52.9172 311.497Z" fill="#FFC34E"/>
<path d="M160.89 480.327C150.555 478.724 144.702 474.636 156.872 464.949C156.866 464.949 154.877 465.379 151.9 466.023L151.766 466.052L151.738 466.058L151.669 466.073L151.648 466.078C143.773 467.781 129.422 470.884 126.058 471.589L126.076 471.593C124.671 471.955 123.066 472.304 121.4 472.667C114.834 474.097 107.324 475.733 107.38 479.142C107.471 483.79 124.334 488.992 139.007 490.426C142.351 488.427 144.608 487.015 146.262 485.981L146.265 485.979C148.476 484.597 149.608 483.889 150.816 483.352C152.083 482.789 153.435 482.414 156.205 481.646C157.443 481.302 158.965 480.88 160.89 480.327Z" fill="#FFC34E"/>
<path d="M140.081 490.525C129.792 498.423 123.73 503.951 125.333 507.226C127.397 511.449 154.019 505.8 166.765 500.464C175.325 494.639 179.193 492.885 182.129 491.553C183.626 490.874 184.881 490.305 186.391 489.363C186.418 489.022 186.466 488.671 186.532 488.313C184.241 489.371 181.733 490 179 490C175.976 490 173.154 488.481 171.488 485.957C170.788 484.896 170.332 483.717 170.126 482.501C163.206 483.494 158.797 484.845 151.504 487.078C148.348 488.045 144.653 489.176 139.982 490.516L140.081 490.525Z" fill="#FFC34E"/>
<path d="M148.836 521.094C150.927 523.859 168.067 522.093 186.624 514.869C179.401 523.812 178.03 532.593 179.284 533.522C181.979 535.496 197.493 527.738 211.846 516.054C211.335 517.308 204.948 536.1 209.105 536.588C209.64 536.652 210.602 536.343 211.915 535.631C215.694 533.58 222.377 528.189 230.101 518.747L230.124 518.678C233.454 512.983 234.673 510.374 235.448 508.714C236.798 505.824 236.804 505.81 244.268 497.401C239.344 499.329 236.395 498.004 234.908 490.989C234.896 490.992 234.655 491.28 234.219 491.801L234.218 491.803C231.447 495.113 220.8 507.836 210.569 517.006C217.981 506.138 223.591 500.771 232.556 492.194L232.795 491.965C224.829 495.519 206.295 501.861 212.636 491.988C212.606 491.997 212.059 492.51 211.121 493.391L211.117 493.395C206.969 497.291 195.184 508.36 186.438 514.892C192.592 507.11 202.626 498.004 210.661 491.105C206.614 491.431 203.567 491.637 201.055 491.806L201.053 491.806C197.109 492.073 194.482 492.25 191.361 492.662C185.539 493.424 179.441 495.106 166.687 500.567C164.6 502.623 162.515 504.611 160.543 506.492C153.142 513.551 147.321 519.103 148.836 521.094Z" fill="#FFC34E"/>
<path d="M221.345 481.953C212.705 485.554 196.099 488.062 201.302 476.517C200.619 476.455 199.935 476.376 199.254 476.28C198.771 476.995 198.29 477.678 197.813 478.327C195.552 481.402 192.809 484.411 189.552 486.604L189.548 486.629C189.545 486.65 189.543 486.671 189.54 486.692C189.535 486.739 189.53 486.785 189.527 486.831C189.165 491.387 198.268 490.247 205.691 489.317C211.137 488.635 215.678 488.066 214.912 489.944C211.127 499.203 220.958 495.08 228.511 491.911C232.594 490.199 236.011 488.766 236.255 489.874C239.286 503.598 252.213 493.444 258.651 486.424L248.801 469.364C248.147 468.94 247.514 468.46 246.907 467.919C244.556 465.825 243.035 463.223 242.046 460.585C239.901 459.864 237.515 459.199 234.862 458.608C225.417 456.498 218.555 452.457 214.142 447.116C213.492 448.581 212.859 449.999 212.242 451.37C211.117 453.937 210.007 456.382 208.912 458.699C218.719 466.554 233.134 469.408 246.629 472.079L246.869 472.127C230.654 471.379 217.156 467.825 207.722 461.182C205.501 465.738 203.343 469.753 201.242 473.184C202.039 473.311 202.879 473.439 203.764 473.567C206.229 473.928 205.33 475.53 204.354 477.269C203.069 479.559 201.651 482.087 207.619 482.325C215.919 482.662 219.147 480.562 220.738 479.528C222.219 478.565 222.28 478.525 223.691 482.232C227.037 490.98 248.293 481.609 252.618 478.8C252.635 478.785 252.651 478.769 252.668 478.753L252.699 478.724V478.747C252.673 478.765 252.646 478.782 252.618 478.8C244.158 486.748 223.29 491.956 221.345 481.953Z" fill="#FFC34E"/>
<path d="M169.716 410.965C163.468 415.866 175.359 435.355 178.425 439.258C179.786 440.99 178.404 441.965 176.842 443.067C174.099 445.001 170.804 447.326 180.869 454.831C184.107 447.712 187.968 439.191 192.451 429.265L192.468 429.227C192.687 428.75 192.905 428.271 193.125 427.79C193.587 422.033 195.017 415.68 197.516 408.711C198.238 406.694 198.927 404.788 199.579 402.983L199.581 402.978L199.582 402.976L199.584 402.972L199.584 402.97L199.585 402.968C201.192 398.522 202.58 394.683 203.71 391.264L183 355.392C181.825 353.357 181.314 351.121 181.399 348.934C177.384 352.659 181.083 367.136 183.215 375.481C183.861 378.008 184.363 379.973 184.464 380.906C184.494 381.177 183.535 380.626 182.738 380.168L182.737 380.168L182.736 380.167C182.306 379.92 181.924 379.7 181.77 379.652C167.858 375.029 171.504 394.704 173.78 402.649C176.739 412.964 176.073 412.569 174.179 411.445C172.981 410.734 171.291 409.731 169.716 410.965Z" fill="#FFC34E"/>
<path d="M251.753 494.222C249.453 496.551 246.987 499.049 244.616 501.675C242.018 504.533 239.578 507.601 237.344 510.409C234.963 513.403 232.816 516.103 230.96 517.942L230.955 517.958C229.794 521.971 225.927 535.325 229.752 536.913C234.021 538.691 255.41 512.781 260.093 488.922L258.809 486.698C256.986 488.922 254.487 491.453 251.753 494.222Z" fill="#FFC34E"/>
<path d="M206.295 395.74C205.649 397.394 204.961 399.054 204.262 400.739C202.517 404.95 200.705 409.322 199.32 414.163C201.794 408.693 204.366 402.98 207.036 397.023L206.295 395.74Z" fill="#FFC34E"/>
<path d="M138.339 333.635C131.859 329.082 124.566 326.178 121.988 333.518C118.876 342.369 123.312 355.122 129.444 365.877C105.388 340.414 99.5397 322.662 90.2979 290.195C86.925 255.119 93.6863 215.021 100.877 215.653C104.378 215.956 108.181 229.374 112.623 245.126C112.969 274.984 118.453 310.356 138.339 333.635Z" fill="#FFC34E"/>
<path d="M278.062 506.045C279.443 508.436 282.501 509.256 284.892 507.875L326.663 483.758C326.205 482.333 326.108 480.812 326.385 479.336L321.481 476.505C321.694 477.292 321.898 478.106 322.094 478.943C322.723 481.619 322.094 484.435 320.387 486.589C318.679 488.744 316.081 490 313.333 490C307.825 490 302.256 489.148 297.701 486.358C292.72 483.308 289.885 478.51 288.613 473.237C287.524 468.849 287.094 463.467 287.094 457.406C287.094 457.155 287.095 456.904 287.096 456.653L282.392 453.937C279.065 452.016 277.006 448.743 276.508 445.213L276.303 445.735C273.255 453.511 270.944 459.855 269.34 464.812C268.459 467.532 266.339 469.672 263.628 470.577C263.268 470.697 263.031 470.782 262.892 470.834L262.878 470.839C261.271 471.588 259.666 471.8 258.605 471.86C258.51 471.865 258.419 471.869 258.333 471.873L278.062 506.045Z" fill="#FFC34E"/>
<path d="M195.008 342.686C195.368 339.401 196.206 336.222 197.493 333.168L189.603 337.723L187.392 339C184.728 340.538 182.876 342.944 181.989 345.655C181.643 346.712 181.443 347.817 181.399 348.934C181.314 351.121 181.825 353.357 183 355.392L203.71 391.264L206.295 395.74L207.036 397.023C208.193 394.44 209.369 391.81 210.564 389.135L189.062 351.892C188.617 351.121 188.401 350.281 188.392 349.45C188.39 349.331 188.393 349.211 188.401 349.092C188.499 347.474 189.383 345.934 190.892 345.062L194.864 342.769L195.008 342.686Z" fill="#FFC34E"/>
<path d="M213.033 383.596L213.047 383.565C214.753 379.774 216.479 375.934 218.226 372.046C217.193 372.45 216.083 372.664 214.948 372.664C213.084 372.664 211.266 372.408 209.536 371.887C208.611 371.609 207.711 371.254 206.844 370.823C205.004 369.908 203.307 368.646 201.812 367.023C201.65 366.848 201.496 366.666 201.349 366.479C199.064 363.566 197.401 360.256 196.274 356.679C196.219 356.505 196.169 356.33 196.125 356.153C195.295 352.824 194.806 349.547 194.806 346.39C194.806 345.852 194.819 345.317 194.844 344.784C194.861 344.426 194.883 344.069 194.911 343.713C194.933 343.436 194.958 343.16 194.986 342.885L194.864 342.769L190.892 345.062C189.383 345.934 188.499 347.474 188.401 349.092C188.393 349.211 188.39 349.331 188.392 349.45C188.401 350.281 188.617 351.121 189.062 351.892L210.564 389.135C211.379 387.31 212.202 385.464 213.033 383.596Z" fill="#FFC34E"/>
<path d="M393.619 329.314C388.875 339.913 384.261 350.209 379.776 360.201L379.758 360.077V357.134C379.758 352.368 380.505 347.466 382.061 342.399C383.657 337.64 385.88 333.966 388.595 331.144C390.143 329.539 391.887 328.509 394.067 328.058C393.89 328.618 393.739 329.029 393.619 329.314Z" fill="#FFC34E"/>
<path d="M407.968 347.654C407.968 345.308 407.919 343.304 407.821 341.644C407.802 341.317 407.78 341.003 407.757 340.703C407.757 338.877 407.687 337.262 407.547 335.857C406.848 337.487 406.155 339.102 405.47 340.703L405.392 340.884C404.413 343.171 403.448 345.428 402.498 347.654C401.248 350.581 400.024 353.455 398.826 356.277C393.57 368.648 388.796 380.017 384.503 390.383L384.492 390.41C382.703 394.73 380.999 398.875 379.377 402.846C378.999 403.766 378.624 404.676 378.252 405.578C377.097 408.377 375.971 411.093 374.873 413.727C371.624 421.522 368.626 428.592 365.879 434.938C363.867 439.586 361.99 443.846 360.247 447.716C358.361 452.02 356.554 455.892 354.825 459.332C353.006 462.953 351.273 466.096 349.627 468.761L349.6 468.806C348.996 469.782 348.403 470.694 347.823 471.542C347.475 472.049 347.132 472.534 346.793 472.995C344.647 475.913 342.522 478.033 340.419 479.356C338.675 480.452 336.945 481 335.23 481C335.503 480.363 335.929 479.388 336.51 478.073L336.644 477.771L336.854 477.298C337.809 475.142 339.11 472.228 340.756 468.556C341.202 467.564 341.672 466.515 342.168 465.411C343.535 462.418 345.048 459.094 346.708 455.441C349.643 448.982 353.034 441.492 356.883 432.97L357.372 431.901L357.656 431.28C361.408 423.066 365.414 414.214 369.676 404.724C370.406 403.098 371.144 401.453 371.889 399.789L371.898 399.769C372.332 398.8 372.768 397.824 373.208 396.842C374.608 393.712 376.034 390.517 377.485 387.258C384.25 372.221 391.339 356.427 398.752 339.876L400.224 336.588L401.679 333.339L401.871 332.908C402.292 331.925 402.712 330.661 403.132 329.116C403.279 328.677 403.406 328.242 403.514 327.812C403.82 326.593 403.973 325.413 403.973 324.271C403.973 322.727 403.483 321.463 402.502 320.48C402.384 320.322 402.245 320.175 402.085 320.039C401.799 319.797 401.448 319.59 401.03 319.418C400.018 319.002 398.616 318.794 396.826 318.794C394.073 318.794 391.536 319.24 389.212 320.13L389.117 320.167C386.51 321.182 384.174 322.761 382.11 324.903C381.067 325.987 380.094 327.145 379.189 328.378L379.14 328.446L379.097 328.504C378.911 328.76 378.728 329.02 378.548 329.282C376.468 332.312 374.782 335.768 373.491 339.649C371.996 344.488 371.115 349.28 370.846 354.025C370.823 354.444 370.804 354.863 370.789 355.281C370.786 355.394 370.782 355.507 370.779 355.62C370.777 355.684 370.776 355.749 370.774 355.813L370.77 355.976L370.767 356.138C370.761 356.47 370.758 356.802 370.758 357.134V360.715L371.179 363.664C368.812 363.664 366.833 362.943 365.242 361.501C365.042 361.321 364.849 361.129 364.662 360.926C364.63 360.885 364.598 360.845 364.567 360.804C364.544 360.774 364.521 360.745 364.499 360.715C363.669 359.626 362.945 358.433 362.325 357.134C362.13 356.725 361.945 356.306 361.771 355.876C361.522 355.263 361.294 354.629 361.088 353.974C360.387 351.165 360.037 348.637 360.037 346.39C360.037 341.756 361.298 337.332 363.821 333.119C365.958 329.55 368.597 326.284 371.74 323.32C372.307 322.784 372.891 322.259 373.491 321.743C374.46 320.94 375.449 320.18 376.458 319.464L376.462 319.461C379.683 317.176 383.108 315.339 386.735 313.949C390.167 312.574 393.531 311.679 396.826 311.266C398.24 311.089 399.641 311 401.03 311C402.464 311 403.823 311.128 405.109 311.385C407.97 311.955 410.465 313.161 412.592 315.002C415.816 317.53 418.198 322.165 419.74 328.906C421.422 335.647 422.263 345.407 422.263 358.187C422.263 366.894 421.912 376.163 421.212 385.994C420.778 393.591 420.303 401.104 419.786 408.534C419.741 409.182 419.696 409.83 419.65 410.478L419.642 410.585C419.537 412.082 419.429 413.575 419.32 415.064C418.852 421.443 418.477 427.446 418.197 433.073C418.078 435.447 417.977 437.754 417.892 439.994C417.884 440.211 417.876 440.428 417.868 440.643L417.848 441.186L417.909 440.952L417.977 440.696L418.014 440.558C418.055 440.402 418.097 440.247 418.139 440.091C420.216 432.377 423.024 424.212 426.563 415.596C426.808 415 427.056 414.401 427.308 413.801L427.309 413.798L427.332 413.745C427.769 412.738 428.21 411.731 428.655 410.726C432.31 402.461 436.221 394.247 440.387 386.084L440.409 386.04C440.597 385.674 440.784 385.307 440.973 384.941C445.516 376.214 450.003 368.001 454.432 360.299L454.453 360.263C454.936 359.425 455.417 358.592 455.898 357.766C458.744 352.877 461.425 348.367 463.94 344.235C464.45 343.398 464.952 342.577 465.448 341.771C466.026 340.832 466.594 339.915 467.154 339.018C467.712 338.123 468.262 337.248 468.802 336.394C468.901 336.238 469 336.083 469.098 335.928L469.143 335.857C470.388 333.896 471.528 332.104 472.562 330.482C474.785 326.995 476.518 324.293 477.762 322.375C479.724 319.567 481.406 317.46 482.807 316.056C483.649 315.128 484.642 314.479 485.788 314.108C486.549 313.862 487.377 313.739 488.273 313.739C490.214 313.739 492.43 314.22 494.92 315.182L495 315.213C494.019 317.741 492.617 321.533 490.796 326.589C489.931 329.116 489.048 331.94 488.146 335.062C487.793 336.283 487.437 337.551 487.078 338.863C486.571 340.719 486.058 342.667 485.54 344.705C485.412 345.195 485.283 345.689 485.155 346.188C484.232 349.768 483.31 353.55 482.388 357.535C481.196 362.682 480.004 368.165 478.813 373.986C478.414 375.909 478.02 377.839 477.63 379.776C476.361 386.074 475.14 392.444 473.965 398.884C473.557 401.126 473.153 403.376 472.756 405.635C472.696 405.972 472.637 406.31 472.578 406.647L472.506 407.059C470.684 418.294 469.213 428.898 468.091 438.869C467.251 446.237 466.726 452.738 466.515 458.371C466.471 459.546 466.441 460.683 466.425 461.783C466.415 462.444 466.41 463.092 466.41 463.726C466.41 466.816 466.55 469.203 466.83 470.888C466.86 471.068 466.891 471.245 466.922 471.419C466.951 471.579 466.98 471.736 467.01 471.892C467.256 473.165 467.546 474.306 467.881 475.312C468.442 476.717 469.002 478.613 469.563 481C465.465 481 462.197 480.429 459.757 479.286C459.36 479.1 458.985 478.899 458.631 478.683C456.109 477.138 454.427 474.61 453.586 471.099C453.356 470.175 453.157 469.162 452.989 468.059C452.888 467.388 452.798 466.684 452.719 465.946C452.456 463.473 452.325 460.626 452.325 457.406C452.325 456.307 452.334 455.202 452.352 454.092C452.544 442.408 453.744 430.151 455.952 417.322C456.717 412.88 457.603 408.37 458.609 403.791L458.631 403.689C459.252 400.939 459.885 398.174 460.529 395.395C461.926 389.365 463.378 383.267 464.883 377.101C465.272 375.509 465.664 373.912 466.06 372.311C466.46 370.693 466.863 369.071 467.271 367.444L467.282 367.398C467.718 365.658 468.158 363.913 468.602 362.162C469.534 358.489 470.485 354.792 471.453 351.072C471.737 349.983 472.023 348.891 472.31 347.798C472.653 346.489 472.999 345.177 473.347 343.862C469.698 348.528 465.879 354.325 461.891 361.255C461.817 361.383 461.743 361.513 461.669 361.643C461.549 361.85 461.43 362.059 461.311 362.269C461.165 362.525 461.019 362.783 460.873 363.041L460.835 363.109L460.683 363.379L460.523 363.664C459.551 365.425 458.575 367.22 457.595 369.051C455.744 372.511 453.881 376.096 452.004 379.807C450.59 382.605 449.168 385.475 447.739 388.416L447.721 388.454C447.574 388.757 447.427 389.06 447.279 389.364C442.944 398.472 438.749 407.65 434.693 416.898L434.666 416.96L434.654 416.988C431.939 423.305 429.425 429.319 427.112 435.031C426.231 437.206 425.38 439.337 424.557 441.425C424.422 441.768 424.288 442.109 424.155 442.45L424.017 442.801C423.107 445.127 422.259 447.334 421.472 449.424C419.652 454.261 418.164 458.467 417.007 462.041C416.166 462.322 415.606 462.532 415.325 462.673C415.045 462.813 414.555 462.884 413.854 462.884C410.07 462.884 407.547 460.637 406.286 456.143C405.165 451.648 404.604 445.329 404.604 437.183C404.604 431.425 404.744 424.614 405.024 416.75C405.445 408.745 405.865 400.529 406.286 392.103C406.706 383.677 407.057 375.601 407.337 367.877C407.52 364.455 407.663 361.246 407.766 358.25C407.901 354.359 407.968 350.828 407.968 347.654Z" fill="#FFC34E"/>
<path d="M477.035 439.874L477.033 439.888C476.945 440.661 476.861 441.422 476.78 442.172C477.448 439.597 477.872 436.777 478.018 433.683C478.059 432.824 478.081 431.981 478.086 431.151C477.706 434.114 477.356 437.022 477.035 439.874Z" fill="#FFC34E"/>
<path d="M496.575 439.258C499.641 435.355 511.532 415.866 505.284 410.965C503.709 409.731 502.019 410.734 500.821 411.445C498.927 412.569 498.261 412.964 501.22 402.649C503.496 394.704 507.142 375.029 493.23 379.652C493.076 379.701 492.692 379.921 492.262 380.168C491.465 380.626 490.506 381.177 490.536 380.906C490.637 379.972 491.14 378.005 491.788 375.475C493.905 367.204 497.562 352.915 493.716 349.036C493.544 349.706 493.373 350.383 493.201 351.068C493.088 351.869 492.893 352.667 492.611 353.448C490.958 360.201 489.297 367.647 487.63 375.791L487.625 375.814C485.406 386.515 483.325 397.428 481.381 408.554C480.917 411.417 480.476 414.237 480.059 417.013C483.906 432.22 482.067 444.066 475.826 452.821C475.546 456.889 475.41 460.521 475.41 463.726C475.41 466.648 475.549 468.456 475.708 469.412C475.912 470.64 476.14 471.581 476.359 472.28C476.384 472.345 476.409 472.41 476.434 472.476C476.464 472.555 476.493 472.634 476.523 472.714C490.773 470.128 487.882 467.797 485.081 465.538C483.362 464.152 481.676 462.792 484.01 461.418C505.858 448.499 501.579 445.48 498.158 443.067C496.596 441.965 495.214 440.99 496.575 439.258Z" fill="#FFC34E"/>
<path d="M529.578 437.91C529.787 437.841 560.56 425.855 550.666 419.652C549.156 418.701 541.991 419.331 534.47 419.992C526.022 420.734 517.125 421.517 515.294 420.14C515.286 420.135 515.491 420.016 515.876 419.791C518.949 417.997 533.525 409.489 543.35 398.816C554.939 386.225 560.049 371.057 540.168 379.048C539.863 379.169 539.272 379.446 538.523 379.798C535.966 381 531.56 383.07 530.321 382.764C530.321 382.764 544.743 362.508 547.716 354.099C562.819 311.333 529.762 341.914 525.553 345.808C525.276 346.064 525.124 346.204 525.118 346.202C524.908 346.084 525.576 343.899 526.577 340.621C531.328 325.062 543.593 284.896 505.168 324.575C520.195 306.061 531.459 299.534 534.687 305.202C537.497 310.15 535.082 325.249 528.927 340.023L529.322 339.651C551.321 310.03 555.97 283.528 561.365 248.309C560.772 223.62 545.209 189.401 536.29 193.307C533.788 194.406 533.864 201.315 533.983 212.004C534.2 231.578 534.557 263.828 519.475 296.282C515.714 304.378 509.97 312.094 502.779 320.064C501.893 322.403 500.732 325.563 499.288 329.57C497.81 333.896 496.239 339.253 494.581 345.68C500.617 347.004 498.057 363.456 493.927 376.887C509.209 371.173 505.935 395.796 502.939 407.271C515.178 405.157 509.836 427.852 501.173 440.001C512.345 445.994 497.829 458.097 488.376 463.346C495.622 468.971 487.359 474.142 477.565 475.974C477.832 476.923 478.084 477.917 478.325 478.943C478.953 481.619 478.324 484.435 476.617 486.589C475.438 488.078 473.833 489.137 472.048 489.65C478.791 490.438 485.803 490.84 485.497 486.831C485.31 484.326 482.066 481.081 480.4 479.415L480.399 479.414C479.779 478.794 479.378 478.392 479.435 478.329C479.622 478.109 480.925 478.171 483.619 478.3C486.599 478.442 491.281 478.666 498.038 478.678C530.141 478.733 521.939 472.397 516.215 467.975C514.684 466.792 513.33 465.746 512.972 464.996C512.251 463.494 517.766 461.627 524.033 459.506C534.728 455.886 547.614 451.525 535.43 446.97C533.382 446.2 529.911 445.345 526.639 444.539C522.305 443.47 518.32 442.488 518.453 441.906C518.573 441.406 526.437 438.91 528.876 438.135L528.893 438.13L528.909 438.125L528.927 438.119C529.113 438.06 529.265 438.012 529.376 437.976L529.466 437.947C529.5 437.936 529.526 437.928 529.546 437.921L529.578 437.91Z" fill="#FFC34E"/>
<path d="M581.184 409.106C623.755 373.217 624.893 314.563 622.083 311.497C619.027 308.17 606.37 329.492 600.211 339.868L600.207 339.875C599.648 340.817 599.143 341.668 598.703 342.403C585.294 370.725 554.718 399.398 528.393 415.425C537.354 414.163 543.265 413.894 548.675 413.647C557.412 413.249 564.84 412.91 581.694 408.549C570.349 415.582 563.83 416.903 559.82 417.716C557.698 418.146 556.279 418.434 555.218 419.35C554.701 419.798 554.935 420.067 555.316 420.507C555.963 421.252 557.036 422.489 555.59 425.924C552.129 434.194 539.913 438.886 530.135 441.697C537.572 443.889 551.706 443.624 562 443.43C563.922 443.394 565.709 443.361 567.295 443.346C554.773 446.919 549.701 446.822 543.415 446.702C543.08 446.696 542.741 446.689 542.398 446.684C542.062 446.678 541.722 446.672 541.376 446.668C544.743 449.246 545.765 452.522 540.749 456.54C537.915 458.817 531.854 460.954 526.071 462.696C533.254 464.323 533.848 464.648 535.802 465.72C537.5 466.65 540.223 468.143 549.184 471.541C566.348 468.072 585.209 462.111 591.286 451.964C598.339 440.214 579.869 442.32 570.488 443.389C568.964 443.563 567.68 443.709 566.784 443.764C578.443 439.072 591.077 431.313 601.877 420.86C608.543 414.403 619.992 399.025 617.879 394.332C615.795 389.713 599.64 398.869 589.134 404.823L589.132 404.825L589.126 404.828C585.583 406.836 582.683 408.479 581.184 409.106Z" fill="#FFC34E"/>
<path d="M518.174 464.949C530.344 474.636 524.491 478.724 514.156 480.327C516.078 480.879 517.598 481.301 518.835 481.644L518.841 481.646C521.611 482.414 522.963 482.789 524.231 483.352C525.439 483.889 526.57 484.597 528.78 485.978L528.782 485.979L528.784 485.981L528.788 485.983C530.44 487.017 532.695 488.426 536.033 490.422C550.696 488.983 567.53 483.786 567.62 479.142C567.676 475.733 560.166 474.097 553.6 472.667C551.934 472.304 550.329 471.955 548.924 471.593L548.966 471.584C545.555 470.869 531.209 467.767 523.36 466.069L523.345 466.066L523.297 466.056L523.281 466.052L523.229 466.041L523.164 466.027L522.878 465.965L522.804 465.949L520.228 465.392L519.245 465.18C518.562 465.032 518.177 464.949 518.174 464.949Z" fill="#FFC34E"/>
<path d="M549.667 507.226C551.27 503.951 545.208 498.423 534.919 490.525L535.054 490.513C530.387 489.175 526.696 488.044 523.543 487.078C511.178 483.291 507.105 482.044 485.032 480.768C486.96 483.44 488.446 486.692 488.655 489.363C490.166 490.305 491.42 490.874 492.917 491.553C495.862 492.889 499.744 494.649 508.355 500.514C521.148 505.836 547.609 511.436 549.667 507.226Z" fill="#FFC34E"/>
<path d="M422.255 478.724L422.301 478.747C426.18 481.319 445.348 489.881 450.485 483.66C447.588 480.793 445.787 477.147 444.844 473.239C444.61 472.297 444.407 471.309 444.231 470.277C439.249 471.251 433.87 471.863 428.154 472.127L428.395 472.079C433.559 471.057 438.86 470.008 443.984 468.662C443.535 465.391 443.337 461.74 443.325 457.795C442.298 458.091 441.235 458.363 440.138 458.608C436.403 459.44 433.198 460.418 430.45 461.494L416.179 486.212C422.547 493.236 435.706 503.737 438.768 489.874C439.012 488.766 442.43 490.199 446.512 491.911C454.066 495.08 463.896 499.203 460.112 489.944C459.932 489.503 460.044 489.197 460.392 488.995C458.105 488.426 455.921 487.577 453.931 486.358C453.261 485.947 452.629 485.505 452.035 485.034C446.583 490.621 429.606 485.712 422.255 478.724Z" fill="#FFC34E"/>
<path d="M445.248 536.913C449.073 535.325 445.206 521.97 444.045 517.958L444.03 517.909C442.182 516.072 440.046 513.386 437.679 510.409C435.445 507.601 433.005 504.533 430.407 501.675C428.037 499.049 425.57 496.551 423.27 494.222L423.268 494.22C420.442 491.357 417.867 488.749 416.029 486.47L414.834 488.542C419.362 512.504 440.956 538.7 445.248 536.913Z" fill="#FFC34E"/>
<path d="M526.163 521.094C524.073 523.859 506.933 522.093 488.376 514.869C495.599 523.812 496.97 532.593 495.716 533.522C493.021 535.496 477.507 527.738 463.154 516.054C463.665 517.308 470.052 536.1 465.895 536.588C463.818 536.836 455.273 531.448 444.84 518.675C444.868 518.7 444.895 518.724 444.922 518.748V518.678C441.592 512.983 440.374 510.374 439.598 508.714C438.249 505.824 438.243 505.81 430.778 497.401C435.702 499.329 438.652 498.004 440.138 490.989C440.151 490.992 440.39 491.278 440.823 491.796L440.827 491.801L440.828 491.802L440.83 491.805C443.29 494.744 451.94 505.079 461 513.775C462.157 514.885 463.32 515.968 464.478 517.006C457.065 506.138 451.455 500.771 442.491 492.194L442.252 491.965C450.218 495.519 468.751 501.861 462.411 491.988C462.441 491.997 462.982 492.505 463.911 493.379C468.039 497.261 479.832 508.351 488.609 514.892C482.454 507.11 472.421 498.004 464.385 491.105C468.428 491.43 471.472 491.636 473.982 491.806L473.99 491.806L473.994 491.806C477.937 492.073 480.564 492.25 483.685 492.662C489.495 493.423 495.557 495.099 508.277 500.532C510.37 502.594 512.46 504.588 514.438 506.475L514.444 506.48L514.452 506.488L514.457 506.492C521.858 513.551 527.679 519.103 526.163 521.094Z" fill="#FFC34E"/>
<path d="M538.891 375.958C546.3 372.613 554.986 370.337 558.191 379.141C558.702 382.067 558.33 384.971 557.285 387.805C578.079 371.617 582.604 364.986 596.761 344.243L596.871 344.082C597.337 343.399 597.814 342.701 598.302 341.987C612.479 300.5 609.885 253.776 605.059 251.682C602.798 250.703 595.104 256.136 585.825 289.752C581.832 322.217 571.396 340.271 560.397 353.054L560.088 353.413C553.479 361.087 549.045 366.236 538.891 375.958Z" fill="#FFC34E"/>
<path d="M536.684 333.635C543.164 329.082 550.457 326.178 553.035 333.518C556.147 342.369 551.711 355.122 545.58 365.877C569.605 340.446 575.469 322.707 584.69 290.318C585.275 284.285 585.559 278.101 585.592 272C585.751 242.603 580.085 215.129 574.123 215.653C570.628 215.955 566.833 229.326 562.402 245.04C562.242 259.232 560.922 274.674 557.447 289.474C553.607 305.83 547.134 321.402 536.684 333.635Z" fill="#FFC34E"/>
<path d="M301.645 286.892C300.265 284.501 297.207 283.681 294.815 285.062L258.941 305.774C260.032 306.442 261.085 307.203 262.092 308.06C267.593 312.471 270.566 319.436 272.264 326.814C274.198 334.622 275.032 345.225 275.032 358.187C275.032 367.024 274.681 376.385 273.985 386.266C274.89 384.451 275.807 382.638 276.737 380.828L276.76 380.784C281.863 370.983 286.906 361.8 291.89 353.238C296.836 344.742 301.312 337.336 305.315 331.033C309.241 324.851 312.134 320.325 313.981 317.478C314.037 317.391 314.094 317.306 314.153 317.221C315.1 315.866 316.037 314.589 316.959 313.417L301.645 286.892Z" fill="#FFC34E"/>
<path d="M307.708 283.392C304.394 277.653 297.055 275.686 291.315 279L250.542 302.54C253.516 303.122 256.34 304.184 258.941 305.774L294.815 285.062C297.207 283.681 300.265 284.501 301.645 286.892L316.959 313.417C318.016 312.074 319.054 310.867 320.07 309.836C320.669 309.193 321.304 308.613 321.97 308.095L307.708 283.392Z" fill="#FFC34E"/>
<path d="M272 509.545C275.314 515.284 282.653 517.251 288.392 513.937L331.364 489.127C329.904 488.433 328.636 487.348 327.719 485.957C327.263 485.267 326.911 484.527 326.663 483.758L284.892 507.875C282.501 509.256 279.443 508.436 278.062 506.045L258.333 471.873C258.04 471.884 257.801 471.884 257.634 471.884H257.623C254.553 471.884 251.498 471.11 248.801 469.364L258.651 486.424L258.809 486.698L260.093 488.922L272 509.545Z" fill="#FFC34E"/>
<path d="M223.47 425.489L240.675 455.289C239.843 450.703 239.448 445.236 239.383 439.051L226.871 417.379C225.706 420.174 224.572 422.877 223.47 425.489Z" fill="#FFC34E"/>
<path d="M239.374 437.183C239.374 431.288 239.517 424.365 239.8 416.429C239.802 416.379 239.804 416.328 239.807 416.278C240.227 408.281 240.647 400.073 241.067 391.654C241.23 388.371 241.384 385.142 241.526 381.967C237.878 390.684 234.529 398.777 231.479 406.248L231.47 406.27C229.886 410.121 228.353 413.824 226.871 417.379L239.383 439.051C239.377 438.436 239.374 437.813 239.374 437.183Z" fill="#FFC34E"/>
<path d="M388.815 447.875C391.207 446.494 392.026 443.436 390.645 441.045L380.529 423.523C375.988 434.318 371.969 443.604 368.472 451.371C366.687 455.443 364.941 459.208 363.231 462.646L388.815 447.875Z" fill="#FFC34E"/>
<path d="M390.645 441.045C392.026 443.436 391.207 446.494 388.815 447.875L363.231 462.646C360.965 467.203 358.763 471.185 356.623 474.544L392.315 453.937C393.918 453.012 395.226 451.773 396.207 450.343C395.789 446.411 395.604 442.001 395.604 437.183C395.604 436.676 395.605 436.161 395.607 435.639L383.924 415.403C382.762 418.198 381.63 420.905 380.529 423.523L390.645 441.045Z" fill="#FFC34E"/>
<path d="M389.815 507.875C392.207 509.256 395.265 508.436 396.645 506.045L416.497 471.661C415.302 471.884 414.32 471.884 413.865 471.884H413.854C410.039 471.884 406.248 470.69 403.138 467.919C400.189 465.293 398.545 461.869 397.621 458.575C397.61 458.538 397.6 458.501 397.591 458.465C397.578 458.417 397.565 458.369 397.553 458.321C396.962 455.949 396.52 453.28 396.207 450.343C395.226 451.773 393.918 453.012 392.315 453.937L356.623 474.544C355.753 475.909 354.893 477.171 354.043 478.327C352.524 480.393 350.787 482.429 348.823 484.208L389.815 507.875Z" fill="#FFC34E"/>
<path d="M414.01 479.305V479.328C414.126 477.365 414.64 474.602 416.523 471.656L416.497 471.661L396.645 506.045C395.265 508.436 392.207 509.256 389.815 507.875L348.823 484.208C346.874 485.974 344.701 487.486 342.294 488.522L386.315 513.937C392.055 517.251 399.394 515.284 402.708 509.545L414.834 488.542C414.24 485.402 413.94 482.3 414.01 479.305Z" fill="#FFC34E"/>
<path d="M414.01 479.328V479.305C413.94 482.3 414.24 485.402 414.834 488.542L416.029 486.47C415.275 485.534 414.644 484.654 414.173 483.835C414.718 484.54 415.397 485.35 416.179 486.212L430.45 461.494C428.807 462.137 427.327 462.815 425.995 463.517C425.848 463.959 425.706 464.391 425.57 464.812C424.69 467.532 422.57 469.672 419.859 470.577L419.764 470.609L419.696 470.632C419.636 470.652 419.579 470.672 419.527 470.69C419.346 470.752 419.213 470.8 419.122 470.834L419.109 470.839C418.215 471.255 417.322 471.506 416.523 471.656C414.64 474.602 414.126 477.365 414.01 479.328Z" fill="#FFC34E"/>
<path d="M434.894 439.796C434.081 441.816 433.294 443.796 432.534 445.735C429.745 452.849 427.573 458.766 425.995 463.517C427.327 462.815 428.807 462.137 430.45 461.494L444.216 437.649C444.73 431.823 445.464 425.886 446.416 419.839L434.894 439.796Z" fill="#FFC34E"/>
<path d="M448.534 407.989C446.634 412.159 444.764 416.344 442.922 420.543C440.007 427.324 437.332 433.741 434.894 439.796L446.416 419.839C447.031 415.935 447.737 411.985 448.534 407.989Z" fill="#FFC34E"/>
<path d="M396.03 416.429C396.032 416.379 396.034 416.328 396.037 416.278C396.457 408.281 396.877 400.073 397.297 391.654C397.461 388.371 397.614 385.142 397.756 381.967C394.108 390.684 390.76 398.777 387.71 406.248L387.701 406.27C386.408 409.413 385.149 412.457 383.924 415.403L395.607 435.639C395.63 430.089 395.772 423.682 396.03 416.429Z" fill="#FFC34E"/>
<path d="M271.448 178.13C273.172 176.224 279.754 168.441 279.519 166.435C279.285 164.429 226.232 137.598 225.023 139.057C223.815 140.517 269.724 180.035 271.448 178.13Z" fill="#FFC34E"/>
<path fill-rule="evenodd" clip-rule="evenodd" d="M359.205 278.892L347.367 299.397C346.709 299.04 346.021 298.721 345.305 298.442C341.436 296.934 336.914 295.739 332.042 295.739C329.905 295.739 327.764 295.989 325.673 296.51L315.502 278.892C312.938 274.452 308.997 271.302 304.53 269.67C309.069 264.869 314.483 259.674 320.69 253.717L320.701 253.706C321.631 252.814 322.58 251.904 323.545 250.975C334.641 238.631 333.641 230.336 328.225 214.851C326.004 230.281 319.164 235.67 294.218 237.896C282.7 240.556 277.682 251.287 277.37 253.778C277.058 256.27 269.57 258.761 269.57 258.761C269.57 258.761 261.146 260.63 257.714 258.761C254.282 256.892 246.17 250.975 247.106 248.173C248.042 245.37 247.106 235.716 247.106 232.602C247.106 229.487 252.722 228.865 253.97 227.307C255.218 225.75 268.634 207.688 269.57 203.639C270.506 199.591 268.01 195.543 269.57 191.805C271.13 188.068 285.482 170.94 285.482 166.269C285.482 161.598 284.234 147.895 284.234 146.649C297.196 148.498 302.763 152.056 311.377 160.352C398.424 161.909 417.768 217.342 429 280.56C430.193 286.842 431.193 292.177 432.024 296.685L387.892 271.206C386.947 270.66 385.977 270.196 384.99 269.812C382.14 268.702 379.15 268.256 376.221 268.422C369.39 268.81 362.882 272.524 359.205 278.892ZM284.234 201.148C281.774 193.641 285.053 189.99 300.77 184.643C298.428 195.371 294.905 199.095 284.234 201.148Z" fill="#FFC34E"/>
<path d="M332.043 304.739C335.46 304.739 338.842 305.582 342.038 306.827C342.322 306.938 342.597 307.062 342.863 307.197L347.367 299.397C346.709 299.04 346.021 298.721 345.305 298.442C341.436 296.934 336.914 295.739 332.042 295.739C329.905 295.739 327.764 295.989 325.673 296.51L330.464 304.807C330.986 304.761 331.512 304.739 332.043 304.739Z" fill="#FFC34E"/>
</g>
<defs>
<filter id="filter0_i_111_112" x="52" y="139" width="574" height="400" filterUnits="userSpaceOnUse" color-interpolation-filters="sRGB">
<feFlood flood-opacity="0" result="BackgroundImageFix"/>
<feBlend mode="normal" in="SourceGraphic" in2="BackgroundImageFix" result="shape"/>
<feColorMatrix in="SourceAlpha" type="matrix" values="0 0 0 0 0 0 0 0 0 0 0 0 0 0 0 0 0 0 127 0" result="hardAlpha"/>
<feOffset dx="3" dy="2"/>
<feGaussianBlur stdDeviation="5.7"/>
<feComposite in2="hardAlpha" operator="arithmetic" k2="-1" k3="1"/>
<feColorMatrix type="matrix" values="0 0 0 0 0.591667 0 0 0 0 0.420518 0 0 0 0 0.0867778 0 0 0 1 0"/>
<feBlend mode="normal" in2="shape" result="effect1_innerShadow_111_112"/>
</filter>
</defs>
</svg>
