<svg width="241" height="199" viewBox="0 0 241 199" fill="none" xmlns="http://www.w3.org/2000/svg">
<path d="M160.488 104.968C160.488 106.227 160.229 107.745 159.651 109.546C159.044 111.366 158.334 113.259 157.52 115.227L157.509 115.255L157.498 115.283C156.727 117.317 156.024 119.284 155.391 121.184C154.721 123.192 154.352 125.076 154.352 126.808C154.352 128.217 154.663 129.546 155.352 130.728L155.403 130.815L155.463 130.896C156.392 132.175 157.797 132.887 159.35 133.232L160.741 133.541L161.487 132.328C162.641 130.454 163.851 128.209 165.118 125.603L165.123 125.594L165.127 125.584C166.419 122.858 167.495 120.025 168.355 117.088C169.3 114.031 169.792 111.131 169.792 108.4C169.792 105.052 168.89 102.12 166.956 99.7593C164.801 97.0545 161.203 96 156.872 96C152.094 96 147.7 96.957 143.726 98.905C139.905 100.743 136.582 103.178 133.773 106.208L133.764 106.218L133.755 106.228C131.059 109.215 128.959 112.412 127.478 115.819C126.003 119.211 125.232 122.534 125.232 125.768C125.232 129.226 126.083 132.306 127.872 134.909C129.534 137.327 131.637 139.461 134.159 141.315L134.186 141.335L134.213 141.353C136.69 143.052 139.305 144.678 142.057 146.23C144.707 147.725 147.18 149.284 149.479 150.906L149.49 150.914L149.501 150.921C151.756 152.468 153.555 154.213 154.929 156.149C156.183 157.917 156.848 160.065 156.848 162.688C156.848 165.597 156.012 167.932 154.411 169.818L154.407 169.822C152.778 171.753 150.649 173.229 147.959 174.23L147.94 174.237L147.921 174.244C145.167 175.333 142.365 175.872 139.504 175.872C136.145 175.872 133.541 175.225 131.574 174.068L131.555 174.057L131.536 174.046C129.496 172.906 128.018 171.415 127.034 169.571C126.075 167.646 125.592 165.569 125.592 163.312C125.592 161.159 126.021 158.984 126.905 156.775C127.779 154.589 129.063 152.578 130.776 150.739L133.907 147.376H129.312C127.141 147.376 124.912 147.859 122.641 148.767C120.173 149.754 118.113 151.432 116.46 153.715L116.447 153.734L116.434 153.753C114.731 156.221 114 159.484 114 163.312C114 167.801 115.089 171.703 117.397 174.886L117.406 174.899L117.416 174.912C119.721 177.986 122.723 180.252 126.375 181.701C129.951 183.189 133.744 183.928 137.736 183.928C141.131 183.928 144.517 183.411 147.886 182.385C151.271 181.355 154.375 179.843 157.189 177.845C160.114 175.818 162.464 173.322 164.211 170.36L164.216 170.35L164.222 170.341C166.012 167.227 166.88 163.686 166.88 159.776C166.88 155.964 166.059 152.603 164.303 149.796C162.714 147.081 160.637 144.745 158.087 142.795C155.65 140.932 153.039 139.251 150.256 137.75C147.652 136.242 145.188 134.77 142.861 133.334C140.661 131.908 138.892 130.384 137.522 128.772C136.378 127.287 135.784 125.52 135.784 123.376C135.784 121.571 136.25 119.454 137.283 116.997C138.371 114.569 139.883 112.249 141.836 110.035L141.845 110.024L141.854 110.014C143.78 107.767 146.019 105.945 148.58 104.536C151.049 103.178 153.732 102.496 156.664 102.496C158.772 102.496 159.587 102.919 159.826 103.158L159.857 103.189L159.889 103.218C160.215 103.518 160.488 104.004 160.488 104.968Z" fill="#fff"/>
<path d="M110.129 128.25C108.909 132.653 107.28 137.171 105.236 141.804C103.192 146.37 100.875 150.764 98.2868 154.987L98.2806 154.997L98.2746 155.007C95.7502 159.237 93.132 163.043 90.4223 166.431L90.4192 166.435C87.7857 169.743 85.2678 172.281 82.8731 174.093L82.8596 174.103L82.8462 174.114C80.415 176.019 78.5993 176.704 77.32 176.704C76.9344 176.704 76.7559 176.64 76.7009 176.614L76.698 176.612C76.5321 176.19 76.408 175.559 76.408 174.648C76.408 172.526 76.8167 169.832 77.6931 166.529C78.5819 163.179 79.6782 159.512 80.9838 155.525C82.3778 151.482 83.7361 147.267 85.0588 142.881C86.393 138.458 87.5171 134.032 88.4307 129.604L88.432 129.598C89.3567 125.046 89.824 120.683 89.824 116.512C89.824 110.675 88.7123 105.788 86.2931 102.031C83.8157 97.9993 79.952 96 75.032 96C72.1672 96 69.4419 96.622 66.8795 97.8644C64.3745 99.0789 62.1379 100.711 60.1754 102.749L60.1743 102.75C58.302 104.697 56.7917 106.845 55.6557 109.193L55.6442 109.217L55.6333 109.241C54.5572 111.623 54 114.052 54 116.512C54 118.916 54.6717 121.102 56.0465 122.992L56.0596 123.01L56.0731 123.028C57.7156 125.184 60.3656 126 63.384 126H66.2394L65.2636 123.317C65.0258 122.663 64.8118 121.937 64.6242 121.138C64.5082 120.295 64.448 119.378 64.448 118.384C64.448 116.792 64.6065 115.046 64.9332 113.141C65.3171 111.297 65.8877 109.556 66.6427 107.915C67.4398 106.328 68.386 105.111 69.4563 104.21L69.4633 104.204C70.4631 103.354 71.659 102.912 73.16 102.912C74.7677 102.912 75.447 103.411 75.813 104.021L75.8437 104.072L75.8774 104.121C76.5103 105.046 76.9673 106.427 77.0919 108.421L77.0938 108.452L77.0967 108.483C77.2981 110.631 77.4 112.96 77.4 115.472C77.4 119.487 76.965 123.689 76.0868 128.08L76.0839 128.094L76.0812 128.109C75.2621 132.546 74.2038 136.985 72.9056 141.427C71.5931 145.847 70.2812 150.094 68.9698 154.166C67.6457 158.208 66.5274 161.877 65.6164 165.171L65.6111 165.19L65.6062 165.209C64.7565 168.537 64.296 171.356 64.296 173.608C64.296 176.165 64.8741 178.451 66.3563 180.131L66.3776 180.155L66.3996 180.179C67.7132 181.574 69.2458 182.576 70.995 183.107C72.5404 183.62 73.9743 183.928 75.24 183.928C78.6414 183.928 82.1272 182.521 85.652 180.024C89.144 177.551 92.6248 174.275 96.1006 170.232C99.568 166.198 102.883 161.682 106.049 156.687C109.214 151.693 112.029 146.556 114.492 141.278L114.497 141.269C116.958 135.924 118.901 130.771 120.32 125.81C121.812 120.832 122.584 116.304 122.584 112.248C122.584 108.137 121.877 104.705 120.111 102.322C118.576 100.249 116.635 98.704 114.24 98.704C112.78 98.704 111.379 99.3147 110.091 100.2L110.066 100.217L110.041 100.235C108.699 101.22 107.527 102.686 106.48 104.48L105.176 106.716L107.669 107.414C108.877 107.752 109.87 108.489 110.672 109.772L110.682 109.788L110.693 109.805C111.409 110.903 111.928 112.951 111.928 116.304C111.928 119.902 111.339 123.88 110.129 128.25Z" fill="#fff"/>
<path fill-rule="evenodd" clip-rule="evenodd" d="M63.1621 75.5C74.4946 68.2052 82 55.4791 82 41C82 18.3563 63.6437 0 41 0C18.3563 0 0 18.3563 0 41C0 55.4791 7.50539 68.2052 18.8379 75.5C7.50539 82.7948 0 95.5209 0 110V193C0 196.314 2.68629 199 6 199H76C79.3137 199 82 196.314 82 193V188.717C79.8418 189.483 77.5825 189.928 75.24 189.928C73.0989 189.928 71.0036 189.427 69.1731 188.824C66.3411 187.948 63.9574 186.338 62.0307 184.291L61.9423 184.197L61.8573 184.101C59.0467 180.915 58.296 176.969 58.296 173.608C58.296 170.633 58.89 167.26 59.7926 163.725L59.8123 163.648L59.8335 163.571C60.7736 160.173 61.919 156.417 63.2632 152.313C64.5568 148.295 65.8525 144.102 67.1501 139.731C67.9041 137.15 68.5727 134.573 69.1564 132H63.384C59.4366 132 54.5481 130.927 51.3005 126.664L51.2466 126.594L51.1942 126.521C49.0226 123.536 48 120.094 48 116.512C48 113.121 48.773 109.854 50.165 106.771L50.2086 106.675L50.2547 106.58C51.6786 103.637 53.5602 100.972 55.8493 98.5911L55.8534 98.5869C58.2957 96.0507 61.1062 93.9955 64.2618 92.4655C67.6477 90.8238 71.2688 90 75.032 90C75.6418 90 76.2444 90.0234 76.8388 90.0704C73.5455 84.1608 68.833 79.1504 63.1621 75.5ZM71.4 115.472C71.4 117.457 71.2808 119.511 71.0369 121.636L70.9024 121.266C70.7792 120.927 70.6544 120.525 70.5345 120.05C70.4802 119.569 70.448 119.016 70.448 118.384C70.448 117.211 70.5626 115.843 70.8286 114.263C70.9695 113.603 71.1403 112.967 71.34 112.353C71.3797 113.348 71.4 114.387 71.4 115.472Z" fill="#fff"/>
<path fill-rule="evenodd" clip-rule="evenodd" d="M222.162 75.5C233.495 68.2052 241 55.4791 241 41C241 18.3563 222.644 0 200 0C177.356 0 159 18.3563 159 41C159 55.4791 166.505 68.2052 177.838 75.5C171.908 79.3172 167.026 84.6216 163.719 90.8861C166.658 91.7334 169.462 93.292 171.622 95.9877C174.575 99.608 175.792 103.95 175.792 108.4C175.792 111.833 175.177 115.322 174.101 118.817C173.155 122.037 171.972 125.15 170.55 128.153L170.533 128.189L170.514 128.228C169.187 130.955 167.883 133.384 166.597 135.473L163.903 139.85C166.076 141.848 167.93 144.132 169.438 146.691C171.881 150.635 172.88 155.133 172.88 159.776C172.88 164.599 171.801 169.197 169.423 173.332L169.402 173.369L169.379 173.408C167.177 177.142 164.226 180.263 160.635 182.757C160.098 183.137 159.553 183.502 159 183.852V193C159 196.314 161.686 199 165 199H235C238.314 199 241 196.314 241 193V110C241 95.5209 233.495 82.7948 222.162 75.5Z" fill="#fff"/>
</svg>
