<svg width="313" height="239" viewBox="0 0 313 239" fill="none" xmlns="http://www.w3.org/2000/svg">
<path d="M195.096 94.0688C195.492 91.8637 198.718 90.0902 206.241 92.7253C201.657 97.4043 194.058 99.844 195.096 94.0688Z" fill="#fff"/>
<path fill-rule="evenodd" clip-rule="evenodd" d="M1.99983 78.3924L90.9998 232.545C94.3135 238.284 101.653 240.251 107.392 236.937L156.354 208.669L101.392 176.937C95.6526 173.623 93.6861 166.284 96.9998 160.545L98.857 157.328C95.612 157.772 92.6667 157.653 90.6252 156.52C86.0083 153.963 92.5555 151.103 95.8808 149.65C96.421 149.414 96.8761 149.215 97.1846 149.061C92.4014 149.745 86.7009 149.595 81.0892 148.193C77.6245 147.326 70.8443 144.408 70.6394 142.436C70.4329 140.497 77.5772 140.432 82.2232 140.39C83.7914 140.376 85.075 140.364 85.6951 140.284C64.6025 136.53 52.8807 117.196 53.2219 115.632C53.5943 113.933 61.9251 118.601 65.9793 120.872C66.3799 121.096 66.7389 121.297 67.0442 121.467C76.9828 128.294 92.649 131.94 104.474 132.205C101.251 133.513 99.2336 134.563 97.3876 135.524C94.4061 137.076 91.8713 138.396 85.4251 140.192C90.557 140.349 92.9793 139.532 94.4696 139.03C95.2581 138.764 95.7857 138.586 96.3156 138.687C96.5703 138.738 96.5448 138.873 96.5035 139.092C96.433 139.465 96.3161 140.083 97.4634 140.95C99.9766 142.86 104.343 142.363 107.973 141.539L108.971 139.811L108.705 139.869L108.695 139.872C108.546 139.905 108.45 139.926 108.429 139.93C108.346 139.947 95.7977 141.886 97.8872 137.91C98.2049 137.302 100.709 136.13 103.337 134.9C106.289 133.518 109.398 132.063 109.74 131.251C109.742 131.248 109.65 131.248 109.479 131.247C108.11 131.242 101.62 131.216 96.2894 129.553C90.002 127.591 85.3699 123.519 93.5241 122.349C93.6485 122.331 93.8969 122.31 94.2122 122.283L94.2146 122.282L94.2162 122.282C95.2984 122.19 97.1635 122.03 97.5164 121.689C97.5164 121.689 88.8045 117.718 86.19 115.488C72.8985 104.144 89.8019 107.963 91.9542 108.45L91.9555 108.45C92.0961 108.482 92.1733 108.499 92.1747 108.497C92.2218 108.418 91.5773 107.818 90.6107 106.918C86.0222 102.647 74.1768 91.6227 94.6241 97.4402C86.0485 94.1662 81.0416 94.1625 81.0723 96.6701C81.095 98.8615 84.8181 103.429 89.7135 107.172L89.5104 107.124C76.4529 101.485 69.7815 93.5339 61.1614 82.8133C56.6026 74.462 55.1701 60.1032 58.884 59.6859C59.9283 59.5699 61.239 61.8879 63.2667 65.4739C66.9802 72.0412 73.0985 82.8612 84.3887 90.7717C89.4252 94.3021 96.3373 96.2031 104.803 98.2789L104.769 98.2615L104.845 98.2892C105.736 98.5077 106.645 98.7282 107.57 98.9527L107.576 98.9543L107.582 98.9555C108.988 99.2968 110.433 99.6475 111.916 100.015C120.099 102.618 124.304 104.142 125.222 111.664L156.354 57.7411L126.708 6.39239C123.394 0.652875 116.055 -1.31363 110.315 2.00008L6.39214 62.0001C0.652631 65.3138 -1.31387 72.6529 1.99983 78.3924ZM80.4417 109.653C79.879 106.708 82.8648 106.27 85.8994 106.538C74.7867 102.613 66.1229 91.8785 60.2334 81.9917C55.7107 77.5972 51.8514 73.8573 50.629 74.4317C48.1164 75.6077 53.6235 90.2788 61.5283 101.322C70.8795 110.363 76.2568 115.153 89.178 119.002C85.0597 116.599 81.1187 113.203 80.4417 109.653ZM87.5509 125.856C86.9137 122.303 90.2414 121.387 93.3512 121.073C88.0955 119.79 85.6257 118.929 81.9446 117.645L81.7724 117.585C75.6537 115.448 68.7049 111.451 61.1129 101.433C51.4944 91.9744 47.8762 91.645 47.313 92.4083C46.1145 94.0364 54.2785 110.096 67.003 121.192L67.9801 121.661C76.6978 125.846 79.4845 127.183 89.5277 128.57C88.6322 127.827 87.9471 126.93 87.5509 125.856Z" fill="#fff"/>
<path d="M104.845 98.2892L104.803 98.2789C117.305 104.833 117.504 105.928 119.669 117.844L119.669 117.847L119.67 117.85C119.802 118.577 119.941 119.343 120.091 120.154C120.102 120.213 120.113 120.272 120.124 120.33L120.147 120.453L121.154 118.709C121.015 117.856 120.903 117.018 120.792 116.195C119.871 109.352 119.089 103.538 104.845 98.2892Z" fill="#fff"/>
<path fill-rule="evenodd" clip-rule="evenodd" d="M215.645 229.045C214.265 231.436 211.207 232.256 208.815 230.875L104.892 170.875C102.501 169.494 101.681 166.436 103.062 164.045L104.527 161.507L108.146 155.239L108.307 154.96L112.349 147.959L113.315 146.286L118.11 137.981L120.141 134.463L123.249 129.08L124.128 127.557L126.692 123.116L192.062 9.8924C193.443 7.50093 196.501 6.68156 198.892 8.06227L302.815 68.0623C305.207 69.443 306.026 72.5009 304.645 74.8924L215.645 229.045ZM187.954 110.931C182.815 108.523 178.537 110.904 176.876 111.946C175.215 112.988 172.451 111.519 172.451 111.519C172.451 111.519 168.715 109.73 167.973 108.005C167.923 107.887 167.867 107.759 167.807 107.623C166.995 105.767 165.498 102.344 167.112 100.856C168.358 99.7059 169.725 97.7721 170.738 96.3384C171.134 95.7788 171.476 95.2953 171.735 94.9645C172.323 94.2154 173.469 94.5201 174.466 94.7851C175.037 94.937 175.559 95.0758 175.899 94.9959C176.833 94.7767 187.263 91.9194 188.818 90.6651C189.536 90.0864 189.978 89.2911 190.412 88.5089C190.92 87.5958 191.417 86.7004 192.332 86.188C192.957 85.8381 194.772 85.3158 196.887 84.7073C200.524 83.6611 205.047 82.3601 205.924 81.2427C206.4 80.6357 207.001 79.4942 207.646 78.2681C208.88 75.9239 210.276 73.2702 211.278 73.4501C215.387 78.5662 216.67 80.9872 217.46 86.6792C233.473 99.7176 238.42 108.767 239.424 126.053C240.428 143.34 228.688 164.649 204.774 157.314C180.86 149.978 172.688 135.266 181.266 132.714C189.122 131.333 205.087 119.755 207.64 112.291C202.219 117.471 198.035 117.482 187.954 110.931ZM203.623 79.5383C203.116 80.3667 198.319 81.3606 197.102 81.5705C195.885 81.7804 190.283 53.2228 191.172 53.0287C192.062 52.8346 204.13 78.71 203.623 79.5383Z" fill="#fff"/>
<path fill-rule="evenodd" clip-rule="evenodd" d="M105.744 145.399L107.238 142.812C104.865 144.61 101.403 146.532 98.7181 148.023L98.7136 148.025C98.0695 148.383 97.4703 148.716 96.9416 149.016C101.795 147.792 103.462 146.782 105.529 145.529L105.744 145.399ZM114.179 130.79L113.474 132.011C110.237 129.189 108.262 125.725 111.351 124.583C108.136 121.335 102.293 113.754 108.47 112.716C103.156 107.788 97.7283 100.514 106.213 102.154C99.2621 101.986 105.708 108.566 108.91 111.834C109.614 112.552 110.161 113.11 110.375 113.402C110.437 113.487 110.012 113.488 109.658 113.489C109.467 113.489 109.297 113.49 109.236 113.503C103.718 114.645 108.735 120.501 111.028 122.71C114.007 125.579 113.709 125.575 112.862 125.566C112.326 125.56 111.57 125.552 111.285 126.267C110.74 127.638 112.261 129.329 114.179 130.79ZM195.096 94.0688C195.492 91.8637 198.718 90.0902 206.241 92.7253C201.657 97.4043 194.058 99.844 195.096 94.0688Z" fill="#fff"/>
</svg>
