<svg width="144" height="202" viewBox="0 0 144 202" fill="none" xmlns="http://www.w3.org/2000/svg">
<g clip-path="url(#clip0_91_136)">
<rect width="144" height="202" fill="#3D1B4D"/>
<path fill-rule="evenodd" clip-rule="evenodd" d="M9 12.625L18 0L27 12.625L18 25.25L9 12.625ZM0 25.25L9 12.625L0 0V25.25ZM9 37.875L0 25.25V50.5V75.75V101V126.25V151.5V176.75V202L9 189.375L18 202L27 189.375L36 202L45 189.375L54 202L63 189.375L72 202L81 189.375L90 202L99 189.375L108 202L117 189.375L126 202L135 189.375L144 202V176.75V151.5V126.25V101V75.75V50.5V25.25V0L135 12.625L126 0L117 12.625L108 0L99 12.625L90 0L81 12.625L72 0L63 12.625L54 0L45 12.625L36 0L27 12.625L36 25.25L27 37.875L18 25.25L9 37.875ZM18 50.5L9 37.875L0 50.5L9 63.125L0 75.75L9 88.375L0 101L9 113.625L0 126.25L9 138.875L0 151.5L9 164.125L0 176.75L9 189.375L18 176.75L27 189.375L36 176.75L45 189.375L54 176.75L63 189.375L72 176.75L81 189.375L90 176.75L99 189.375L108 176.75L117 189.375L126 176.75L135 189.375L144 176.75L135 164.125L144 151.5L135 138.875L144 126.25L135 113.625L144 101L135 88.375L144 75.75L135 63.125L144 50.5L135 37.875L144 25.25L135 12.625L126 25.25L117 12.625L108 25.25L99 12.625L90 25.25L81 12.625L72 25.25L63 12.625L54 25.25L45 12.625L36 25.25L45 37.875L36 50.5L27 37.875L18 50.5ZM27 63.125L18 50.5L9 63.125L18 75.75L9 88.375L18 101L9 113.625L18 126.25L9 138.875L18 151.5L9 164.125L18 176.75L27 164.125L36 176.75L45 164.125L54 176.75L63 164.125L72 176.75L81 164.125L90 176.75L99 164.125L108 176.75L117 164.125L126 176.75L135 164.125L126 151.5L135 138.875L126 126.25L135 113.625L126 101L135 88.375L126 75.75L135 63.125L126 50.5L135 37.875L126 25.25L117 37.875L108 25.25L99 37.875L90 25.25L81 37.875L72 25.25L63 37.875L54 25.25L45 37.875L54 50.5L45 63.125L36 50.5L27 63.125ZM36 75.75L27 63.125L18 75.75L27 88.375L18 101L27 113.625L18 126.25L27 138.875L18 151.5L27 164.125L36 151.5L45 164.125L54 151.5L63 164.125L72 151.5L81 164.125L90 151.5L99 164.125L108 151.5L117 164.125L126 151.5L117 138.875L126 126.25L117 113.625L126 101L117 88.375L126 75.75L117 63.125L126 50.5L117 37.875L108 50.5L99 37.875L90 50.5L81 37.875L72 50.5L63 37.875L54 50.5L63 63.125L54 75.75L45 63.125L36 75.75ZM45 88.375L36 75.75L27 88.375L36 101L27 113.625L36 126.25L27 138.875L36 151.5L45 138.875L54 151.5L63 138.875L72 151.5L81 138.875L90 151.5L99 138.875L108 151.5L117 138.875L108 126.25L117 113.625L108 101L117 88.375L108 75.75L117 63.125L108 50.5L99 63.125L90 50.5L81 63.125L72 50.5L63 63.125L72 75.75L63 88.375L54 75.75L45 88.375ZM54 101L45 88.375L36 101L45 113.625L36 126.25L45 138.875L54 126.25L63 138.875L72 126.25L81 138.875L90 126.25L99 138.875L108 126.25L99 113.625L108 101L99 88.375L108 75.75L99 63.125L90 75.75L81 63.125L72 75.75L81 88.375L72 101L63 88.375L54 101ZM63 113.625L72 126.25L81 113.625L90 126.25L99 113.625L90 101L99 88.375L90 75.75L81 88.375L90 101L81 113.625L72 101L63 113.625ZM63 113.625L54 101L45 113.625L54 126.25L63 113.625Z" fill="#652375"/>
<g filter="url(#filter0_d_91_136)">
<path d="M35.4103 111.087C35.4819 110.921 35.6787 110.485 36.0009 109.777C36.323 109.08 36.7406 108.172 37.2536 107.05C37.7785 105.917 38.3631 104.637 39.0074 103.209C39.6636 101.769 40.3555 100.246 41.0833 98.6412C41.1191 98.5585 41.1549 98.4523 41.1907 98.3225C41.2384 98.1809 41.2622 98.0451 41.2622 97.9153C41.2622 97.7855 41.2205 97.6793 41.137 97.5967C41.0654 97.5022 40.9043 97.455 40.6538 97.455C40.1527 97.455 39.7351 97.6262 39.4011 97.9684C39.079 98.2989 38.8344 98.712 38.6674 99.2077C38.5123 99.7034 38.4347 100.193 38.4347 100.677C38.4347 100.795 38.4347 100.895 38.4347 100.978C38.4466 101.061 38.4586 101.143 38.4705 101.226C38.2438 101.226 38.0589 101.149 37.9157 100.996C37.7845 100.83 37.6831 100.636 37.6115 100.412C37.5518 100.175 37.522 99.963 37.522 99.7742C37.522 99.3847 37.6294 99.0129 37.8441 98.6589C38.0589 98.3048 38.3333 97.9861 38.6674 97.7029C39.0133 97.4196 39.3891 97.2013 39.7948 97.0478C40.2124 96.8826 40.618 96.8 41.0117 96.8C41.4054 96.8 41.7335 96.9121 41.996 97.1364C42.2704 97.3488 42.4732 97.7383 42.6044 98.3048C42.7476 98.8713 42.8192 99.6916 42.8192 100.766C42.8192 101.497 42.7894 102.276 42.7297 103.102C42.682 103.929 42.6283 104.743 42.5686 105.546C42.509 106.348 42.4672 107.08 42.4434 107.741C42.6343 107.021 42.9027 106.254 43.2487 105.439C43.6066 104.625 43.9943 103.816 44.4119 103.014C44.8414 102.2 45.2649 101.438 45.6825 100.73C46.1001 100.022 46.4759 99.4083 46.8099 98.889C47.144 98.3697 47.3886 97.992 47.5437 97.756C47.7107 97.5199 47.8539 97.3429 47.9732 97.2249C48.0925 97.0951 48.2476 97.0301 48.4385 97.0301C48.6055 97.0301 48.7964 97.0715 49.0111 97.1541C48.9276 97.3665 48.8083 97.6852 48.6532 98.1101C48.51 98.5231 48.3609 99.0306 48.2058 99.6326C48.0149 100.352 47.824 101.173 47.6332 102.093C47.4423 103.002 47.2633 103.929 47.0963 104.873C46.9412 105.817 46.8159 106.708 46.7205 107.546C46.625 108.372 46.5773 109.069 46.5773 109.635C46.5773 109.895 46.5892 110.095 46.6131 110.237C46.637 110.379 46.6668 110.503 46.7026 110.609C46.7503 110.727 46.798 110.886 46.8457 111.087C46.4401 111.087 46.1299 111.022 45.9152 110.892C45.7004 110.762 45.5572 110.55 45.4857 110.255C45.4141 109.971 45.3783 109.588 45.3783 109.104C45.3783 107.699 45.5572 106.195 45.9152 104.59C46.285 102.973 46.7026 101.297 47.1679 99.5617C46.8219 99.9984 46.458 100.553 46.0762 101.226C45.7064 101.887 45.3306 102.607 44.9488 103.386C44.5789 104.153 44.221 104.926 43.875 105.705C43.541 106.472 43.2427 107.186 42.9802 107.847C42.7178 108.508 42.515 109.057 42.3718 109.493C42.3002 109.517 42.2525 109.535 42.2286 109.547C42.2048 109.558 42.163 109.564 42.1033 109.564C41.7812 109.564 41.5665 109.375 41.4591 108.998C41.3637 108.62 41.3159 108.089 41.3159 107.404C41.3159 106.92 41.3279 106.348 41.3517 105.687C41.3875 105.014 41.4233 104.324 41.4591 103.616C41.4949 102.908 41.5247 102.229 41.5486 101.58C41.5844 100.919 41.6023 100.353 41.6023 99.8804C41.6023 99.6444 41.5963 99.4496 41.5844 99.2962C41.5844 99.1428 41.5784 99.007 41.5665 98.889C40.612 101.084 39.8127 102.961 39.1684 104.519C38.5242 106.065 37.9813 107.322 37.5399 108.29C37.1104 109.257 36.7286 109.965 36.3946 110.414C36.0605 110.862 35.7324 111.087 35.4103 111.087Z" fill="#DBAC50"/>
<path d="M49.5913 114.503C49.2931 114.503 49.0306 114.421 48.8039 114.256C48.5773 114.102 48.4639 113.872 48.4639 113.565C48.4639 113.188 48.5594 112.851 48.7502 112.556C48.9411 112.261 49.1976 111.99 49.5198 111.742C49.8419 111.494 50.2117 111.258 50.6293 111.034C51.0469 110.809 51.4823 110.585 51.9357 110.361C52.1027 109.924 52.2698 109.44 52.4368 108.909C52.6157 108.366 52.7828 107.77 52.9379 107.121C52.5561 107.735 52.1445 108.266 51.7031 108.714C51.2736 109.151 50.8142 109.369 50.3251 109.369C50.0984 109.369 49.8717 109.322 49.645 109.228C49.4303 109.122 49.2513 108.962 49.1082 108.75C48.965 108.537 48.8934 108.266 48.8934 107.935C48.8934 107.605 48.9471 107.221 49.0545 106.785C49.1738 106.348 49.3169 105.923 49.484 105.51C49.651 105.097 49.824 104.755 50.003 104.483C50.1819 104.212 50.337 104.076 50.4682 104.076C50.516 104.076 50.5995 104.094 50.7188 104.129C50.85 104.165 50.9693 104.218 51.0767 104.289C51.196 104.348 51.2557 104.413 51.2557 104.483C51.1483 104.637 51.029 104.855 50.8977 105.138C50.7665 105.422 50.6353 105.74 50.504 106.094C50.3847 106.437 50.2833 106.773 50.1998 107.103C50.1163 107.434 50.0745 107.717 50.0745 107.953C50.0745 108.166 50.1223 108.337 50.2177 108.467C50.3131 108.596 50.4802 108.661 50.7188 108.661C50.9455 108.661 51.196 108.555 51.4704 108.343C51.7567 108.118 52.0371 107.835 52.3115 107.493C52.5978 107.151 52.8603 106.785 53.0989 106.395C53.1347 106.265 53.1645 106.136 53.1884 106.006C53.2242 105.864 53.254 105.723 53.2779 105.581C53.3137 105.416 53.3972 105.227 53.5284 105.014C53.6716 104.79 53.8923 104.678 54.1906 104.678C54.2502 104.678 54.3099 104.684 54.3695 104.696C54.4292 104.696 54.4948 104.708 54.5664 104.731C54.5664 104.92 54.5067 105.274 54.3874 105.793C54.2801 106.301 54.119 106.897 53.9042 107.581C53.7014 108.266 53.4568 108.968 53.1705 109.688C53.7312 109.476 54.2801 109.128 54.8169 108.644C55.3538 108.148 55.7893 107.493 56.1233 106.679L56.356 106.856C56.177 107.422 55.9026 107.918 55.5328 108.343C55.1748 108.756 54.7692 109.116 54.3158 109.423C53.8625 109.718 53.4151 109.965 52.9737 110.166C52.6635 110.921 52.3234 111.63 51.9536 112.291C51.5957 112.951 51.2139 113.483 50.8083 113.884C50.4146 114.297 50.0089 114.503 49.5913 114.503ZM49.5019 113.937C49.6808 113.937 49.9791 113.701 50.3967 113.229C50.8262 112.769 51.2795 111.954 51.7567 110.786C51.2676 111.045 50.8142 111.299 50.3967 111.547C49.9791 111.807 49.645 112.084 49.3945 112.379C49.144 112.674 49.0187 113.016 49.0187 113.406C49.0187 113.5 49.0545 113.612 49.1261 113.742C49.1976 113.872 49.3229 113.937 49.5019 113.937Z" fill="#DBAC50"/>
<path d="M57.2986 110.361C56.7856 110.361 56.3918 110.213 56.1174 109.918C55.843 109.623 55.7058 109.187 55.7058 108.608C55.7058 108.254 55.7536 107.829 55.849 107.334C55.9564 106.838 56.0936 106.313 56.2606 105.758C56.4396 105.191 56.6305 104.643 56.8333 104.112C56.714 104.088 56.6006 104.053 56.4933 104.005C56.3859 103.946 56.2845 103.899 56.189 103.864V103.545C56.2845 103.557 56.3978 103.586 56.5291 103.634C56.6603 103.681 56.8094 103.71 56.9764 103.722C57.3105 102.872 57.6625 102.087 58.0323 101.368C58.4141 100.648 58.778 100.069 59.1239 99.6326C59.4699 99.1959 59.7622 98.9775 60.0008 98.9775C60.0963 98.9775 60.1798 99.0129 60.2514 99.0838C60.3349 99.1428 60.3767 99.2372 60.3767 99.367C60.3767 99.485 60.3289 99.6562 60.2335 99.8804C60.138 100.093 60.0068 100.347 59.8398 100.642C59.6727 100.937 59.4878 101.261 59.285 101.615C59.0822 101.969 58.8674 102.347 58.6408 102.748C58.4141 103.15 58.1993 103.569 57.9965 104.005C58.2948 104.053 58.5811 104.094 58.8555 104.129C59.1418 104.165 59.4341 104.182 59.7324 104.182C60.0545 104.182 60.4005 104.159 60.7704 104.112C61.1402 104.064 61.5637 103.994 62.041 103.899C62.3512 103.061 62.6971 102.229 63.0789 101.403C63.4726 100.577 63.8663 99.8273 64.26 99.1546C64.6657 98.47 65.0475 97.9271 65.4054 97.5258C65.7752 97.1128 66.0914 96.9062 66.3539 96.9062C66.5686 96.9062 66.7177 97.036 66.8012 97.2957C66.8967 97.5435 66.9444 97.7855 66.9444 98.0215C66.9444 98.4346 66.837 98.9244 66.6223 99.4909C66.4195 100.046 66.1391 100.624 65.7812 101.226C65.4233 101.816 65.0057 102.371 64.5285 102.89C64.0632 103.398 63.5681 103.811 63.0431 104.129C62.8522 104.578 62.6792 105.097 62.5241 105.687C62.381 106.277 62.2796 106.861 62.2199 107.44C62.1603 108.006 62.1543 108.478 62.202 108.856C62.4884 108.042 62.8105 107.286 63.1684 106.59C63.5263 105.894 63.926 105.333 64.3674 104.908C64.8208 104.483 65.3099 104.271 65.8349 104.271C66.324 104.271 66.67 104.442 66.8728 104.784C67.0876 105.115 67.195 105.475 67.195 105.864C67.195 106.23 67.1293 106.584 66.9981 106.926C66.8788 107.269 66.7535 107.599 66.6223 107.918C66.4911 108.236 66.4254 108.543 66.4254 108.838C66.4254 109.074 66.4732 109.246 66.5686 109.352C66.676 109.458 66.8072 109.511 66.9623 109.511C67.2367 109.511 67.5409 109.381 67.875 109.122C68.221 108.862 68.561 108.52 68.8951 108.095C69.2291 107.658 69.5155 107.186 69.7541 106.679L69.9867 106.891C69.7362 107.469 69.4319 107.995 69.074 108.467C68.7161 108.927 68.3224 109.293 67.8929 109.564C67.4634 109.836 67.016 109.971 66.5507 109.971C66.1451 109.971 65.8349 109.865 65.6201 109.653C65.4173 109.44 65.3159 109.175 65.3159 108.856C65.3159 108.608 65.3636 108.331 65.4591 108.024C65.5545 107.717 65.644 107.404 65.7275 107.086C65.8229 106.767 65.8707 106.466 65.8707 106.183C65.8707 105.876 65.805 105.658 65.6738 105.528C65.5426 105.398 65.3815 105.333 65.1906 105.333C64.8924 105.333 64.6239 105.451 64.3853 105.687C64.1467 105.923 63.926 106.23 63.7232 106.608C63.5323 106.974 63.3474 107.363 63.1684 107.776C63.0014 108.189 62.8403 108.585 62.6852 108.962C62.5301 109.328 62.375 109.629 62.2199 109.865C62.0648 110.101 61.9038 110.219 61.7367 110.219C61.6055 110.219 61.4862 110.154 61.3788 110.025C61.2714 109.895 61.182 109.712 61.1104 109.476C61.0507 109.24 61.0149 108.968 61.003 108.661C60.9911 108.343 61.009 108.006 61.0567 107.652C60.6033 108.443 60.0426 109.092 59.3745 109.6C58.7183 110.107 58.0263 110.361 57.2986 110.361ZM57.8175 109.706C58.4379 109.706 59.0464 109.434 59.6429 108.891C60.2394 108.349 60.7644 107.611 61.2178 106.679C61.3013 106.289 61.3848 105.917 61.4683 105.563C61.5637 105.209 61.689 104.814 61.8441 104.377C61.4385 104.472 61.0507 104.536 60.6809 104.572C60.323 104.607 59.977 104.625 59.6429 104.625C59.3089 104.625 58.9927 104.607 58.6944 104.572C58.3962 104.525 58.0979 104.477 57.7997 104.43C57.5253 105.056 57.2926 105.699 57.1017 106.36C56.9108 107.021 56.8154 107.664 56.8154 108.29C56.8154 108.797 56.8929 109.163 57.048 109.387C57.2031 109.6 57.4596 109.706 57.8175 109.706ZM63.2758 103.439C63.6933 103.108 64.0811 102.713 64.439 102.253C64.8088 101.781 65.1369 101.303 65.4233 100.819C65.7096 100.323 65.9303 99.8686 66.0854 99.4555C66.2524 99.0306 66.336 98.7061 66.336 98.4818C66.336 98.3874 66.3121 98.3402 66.2644 98.3402C66.1809 98.3402 66.0198 98.47 65.7812 98.7297C65.5426 98.9893 65.2682 99.3493 64.958 99.8096C64.6597 100.27 64.3615 100.813 64.0632 101.438C63.7649 102.052 63.5025 102.719 63.2758 103.439Z" fill="#DBAC50"/>
<path d="M69.1048 111.087C69.1764 110.921 69.3732 110.485 69.6953 109.777C70.0175 109.08 70.435 108.172 70.948 107.05C71.473 105.917 72.0576 104.637 72.7018 103.209C73.358 101.769 74.05 100.246 74.7778 98.6412C74.8135 98.5585 74.8493 98.4523 74.8851 98.3225C74.9328 98.1809 74.9567 98.0451 74.9567 97.9153C74.9567 97.7855 74.9149 97.6793 74.8314 97.5967C74.7599 97.5022 74.5988 97.455 74.3483 97.455C73.8472 97.455 73.4296 97.6262 73.0955 97.9684C72.7734 98.2989 72.5288 98.712 72.3618 99.2077C72.2067 99.7034 72.1292 100.193 72.1292 100.677C72.1292 100.795 72.1292 100.895 72.1292 100.978C72.1411 101.061 72.153 101.143 72.165 101.226C71.9383 101.226 71.7534 101.149 71.6102 100.996C71.479 100.83 71.3775 100.636 71.306 100.412C71.2463 100.175 71.2165 99.963 71.2165 99.7742C71.2165 99.3847 71.3239 99.0129 71.5386 98.6589C71.7534 98.3048 72.0278 97.9861 72.3618 97.7029C72.7078 97.4196 73.0836 97.2013 73.4893 97.0478C73.9068 96.8826 74.3125 96.8 74.7062 96.8C75.0999 96.8 75.428 96.9121 75.6904 97.1364C75.9648 97.3488 76.1677 97.7383 76.2989 98.3048C76.4421 98.8713 76.5136 99.6916 76.5136 100.766C76.5136 101.497 76.4838 102.276 76.4242 103.102C76.3764 103.929 76.3228 104.743 76.2631 105.546C76.2035 106.348 76.1617 107.08 76.1378 107.741C76.3287 107.021 76.5972 106.254 76.9431 105.439C77.3011 104.625 77.6888 103.816 78.1064 103.014C78.5359 102.2 78.9594 101.438 79.377 100.73C79.7945 100.022 80.1704 99.4083 80.5044 98.889C80.8385 98.3697 81.083 97.992 81.2381 97.756C81.4052 97.5199 81.5483 97.3429 81.6676 97.2249C81.7869 97.0951 81.942 97.0301 82.1329 97.0301C82.3 97.0301 82.4908 97.0715 82.7056 97.1541C82.6221 97.3665 82.5028 97.6852 82.3477 98.1101C82.2045 98.5231 82.0554 99.0306 81.9003 99.6326C81.7094 100.352 81.5185 101.173 81.3276 102.093C81.1367 103.002 80.9578 103.929 80.7907 104.873C80.6356 105.817 80.5104 106.708 80.4149 107.546C80.3195 108.372 80.2718 109.069 80.2718 109.635C80.2718 109.895 80.2837 110.095 80.3076 110.237C80.3314 110.379 80.3612 110.503 80.397 110.609C80.4448 110.727 80.4925 110.886 80.5402 111.087C80.1346 111.087 79.8244 111.022 79.6096 110.892C79.3949 110.762 79.2517 110.55 79.1801 110.255C79.1085 109.971 79.0727 109.588 79.0727 109.104C79.0727 107.699 79.2517 106.195 79.6096 104.59C79.9795 102.973 80.397 101.297 80.8623 99.5617C80.5163 99.9984 80.1525 100.553 79.7707 101.226C79.4008 101.887 79.025 102.607 78.6432 103.386C78.2734 104.153 77.9155 104.926 77.5695 105.705C77.2354 106.472 76.9372 107.186 76.6747 107.847C76.4122 108.508 76.2094 109.057 76.0662 109.493C75.9947 109.517 75.9469 109.535 75.9231 109.547C75.8992 109.558 75.8575 109.564 75.7978 109.564C75.4757 109.564 75.2609 109.375 75.1536 108.998C75.0581 108.62 75.0104 108.089 75.0104 107.404C75.0104 106.92 75.0223 106.348 75.0462 105.687C75.082 105.014 75.1178 104.324 75.1536 103.616C75.1894 102.908 75.2192 102.229 75.243 101.58C75.2788 100.919 75.2967 100.353 75.2967 99.8804C75.2967 99.6444 75.2908 99.4496 75.2788 99.2962C75.2788 99.1428 75.2729 99.007 75.2609 98.889C74.3065 101.084 73.5071 102.961 72.8629 104.519C72.2186 106.065 71.6758 107.322 71.2344 108.29C70.8049 109.257 70.4231 109.965 70.089 110.414C69.755 110.862 69.4269 111.087 69.1048 111.087Z" fill="#DBAC50"/>
<path d="M83.4801 110.379C83.1103 110.379 82.8001 110.255 82.5496 110.007C82.2871 109.771 82.1559 109.405 82.1559 108.909C82.1559 108.484 82.2513 108.03 82.4422 107.546C82.6331 107.05 82.8955 106.566 83.2296 106.094C83.5637 105.61 83.9395 105.174 84.357 104.784C84.7865 104.383 85.2339 104.064 85.6992 103.828C86.1765 103.592 86.6477 103.474 87.113 103.474C87.5783 103.474 87.966 103.598 88.2762 103.846C88.5864 104.082 88.7415 104.401 88.7415 104.802C88.7415 105.097 88.658 105.298 88.491 105.404C88.3359 105.51 88.1271 105.563 87.8646 105.563C87.8885 105.469 87.9064 105.368 87.9183 105.262C87.9422 105.144 87.9541 105.038 87.9541 104.944C87.9541 104.672 87.8885 104.442 87.7572 104.253C87.626 104.053 87.3993 103.952 87.0772 103.952C86.7432 103.952 86.4031 104.07 86.0571 104.306C85.7112 104.531 85.3771 104.837 85.055 105.227C84.7329 105.605 84.4465 106.018 84.196 106.466C83.9454 106.915 83.7486 107.357 83.6054 107.794C83.4623 108.231 83.3907 108.62 83.3907 108.962C83.3907 109.423 83.5517 109.653 83.8739 109.653C84.1483 109.653 84.4465 109.529 84.7686 109.281C85.0908 109.021 85.4189 108.697 85.7529 108.307C86.0989 107.906 86.427 107.493 86.7372 107.068C87.0474 106.643 87.3218 106.254 87.5604 105.9C87.6081 105.829 87.6379 105.793 87.6499 105.793C87.7215 105.805 87.8109 105.829 87.9183 105.864C88.0376 105.9 88.139 105.947 88.2225 106.006C88.3061 106.065 88.3478 106.142 88.3478 106.236C88.3478 106.342 88.2941 106.49 88.1867 106.679C88.0794 106.856 87.9601 107.062 87.8288 107.298C87.6976 107.534 87.5783 107.776 87.4709 108.024C87.3635 108.26 87.3099 108.484 87.3099 108.697C87.3099 108.874 87.3576 109.051 87.453 109.228C87.5485 109.393 87.7036 109.476 87.9183 109.476C88.2404 109.476 88.664 109.246 89.1889 108.785C89.7139 108.313 90.2448 107.611 90.7816 106.679L90.9606 106.856C90.7101 107.493 90.3879 108.054 89.9942 108.537C89.6005 109.021 89.177 109.399 88.7236 109.67C88.2822 109.942 87.8467 110.078 87.4172 110.078C86.9758 110.078 86.6477 109.948 86.433 109.688C86.2301 109.428 86.1287 109.145 86.1287 108.838C86.1287 108.768 86.1347 108.691 86.1466 108.608C86.1586 108.514 86.1705 108.419 86.1824 108.325C85.6694 109.01 85.1981 109.523 84.7686 109.865C84.3511 110.207 83.9216 110.379 83.4801 110.379Z" fill="#DBAC50"/>
<path d="M91.9368 110.361C91.4237 110.361 91.03 110.213 90.7556 109.918C90.4812 109.623 90.344 109.187 90.344 108.608C90.344 108.089 90.4395 107.452 90.6304 106.696C90.8332 105.929 91.0837 105.144 91.382 104.342C91.2627 104.318 91.1493 104.3 91.042 104.289C90.9346 104.265 90.8332 104.235 90.7377 104.2V103.881C90.8332 103.893 90.9465 103.905 91.0778 103.917C91.209 103.929 91.3581 103.94 91.5252 103.952C91.7757 103.315 92.0441 102.701 92.3305 102.111C92.6168 101.509 92.8972 100.978 93.1716 100.518C93.4579 100.046 93.7263 99.6739 93.9769 99.4024C94.2394 99.1192 94.4601 98.9775 94.639 98.9775C94.7345 98.9775 94.818 99.0129 94.8896 99.0838C94.9731 99.1428 95.0148 99.2372 95.0148 99.367C95.0148 99.5676 94.8896 99.8981 94.639 100.358C94.3885 100.807 94.0783 101.344 93.7084 101.969C93.3386 102.595 92.9807 103.274 92.6347 104.005C92.7421 104.005 92.8494 104.005 92.9568 104.005C93.0761 104.005 93.1895 104.005 93.2968 104.005C93.6905 104.005 94.1022 103.999 94.5317 103.988C94.9731 103.976 95.4145 103.946 95.8559 103.899V104.218C95.1998 104.289 94.6092 104.342 94.0843 104.377C93.5712 104.413 93.1119 104.43 92.7063 104.43C92.6586 104.43 92.6108 104.43 92.5631 104.43C92.5273 104.43 92.4856 104.43 92.4378 104.43C92.1634 105.056 91.9308 105.699 91.7399 106.36C91.549 107.021 91.4536 107.664 91.4536 108.29C91.4536 108.797 91.5311 109.163 91.6862 109.387C91.8413 109.6 92.0978 109.706 92.4557 109.706C93.0761 109.706 93.6846 109.434 94.2811 108.891C94.8776 108.349 95.4026 107.611 95.8559 106.679L96.0886 106.856C95.8023 107.517 95.4384 108.113 94.9969 108.644C94.5674 109.175 94.0902 109.594 93.5653 109.901C93.0403 110.207 92.4975 110.361 91.9368 110.361Z" fill="#DBAC50"/>
<path d="M97.4336 110.538C96.8609 110.538 96.3837 110.349 96.0019 109.971C95.6201 109.594 95.4292 109.027 95.4292 108.272C95.4292 107.682 95.5426 107.109 95.7693 106.555C96.0079 105.988 96.3181 105.481 96.6998 105.032C97.0816 104.584 97.5052 104.23 97.9704 103.97C98.4357 103.698 98.8951 103.563 99.3484 103.563C99.8376 103.563 100.172 103.704 100.351 103.988C100.53 104.271 100.619 104.566 100.619 104.873C100.619 105.215 100.536 105.516 100.368 105.776C100.213 106.035 99.9986 106.165 99.7242 106.165C99.5214 106.165 99.3484 106.077 99.2053 105.9C99.3842 105.805 99.5393 105.616 99.6705 105.333C99.8018 105.038 99.8674 104.761 99.8674 104.501C99.8674 104.359 99.8376 104.253 99.7779 104.182C99.7302 104.1 99.6288 104.058 99.4737 104.058C99.1516 104.058 98.8175 104.2 98.4715 104.483C98.1375 104.767 97.8213 105.132 97.5231 105.581C97.2367 106.029 96.9981 106.502 96.8072 106.997C96.6283 107.493 96.5388 107.959 96.5388 108.396C96.5388 108.762 96.6283 109.098 96.8072 109.405C96.9862 109.712 97.3322 109.865 97.8452 109.865C98.3224 109.865 98.7996 109.735 99.2768 109.476C99.766 109.216 100.219 108.844 100.637 108.36C101.054 107.876 101.389 107.31 101.639 106.661L101.872 106.838C101.597 107.546 101.222 108.183 100.744 108.75C100.267 109.305 99.7421 109.741 99.1695 110.06C98.5968 110.379 98.0182 110.538 97.4336 110.538Z" fill="#DBAC50"/>
<path d="M102.145 110.219C101.918 110.219 101.739 110.03 101.608 109.653C101.476 109.275 101.411 108.85 101.411 108.378C101.411 107.812 101.506 107.139 101.697 106.36C101.888 105.581 102.139 104.761 102.449 103.899C102.759 103.038 103.105 102.194 103.487 101.368C103.88 100.541 104.28 99.7919 104.686 99.1192C105.091 98.4464 105.473 97.9094 105.831 97.5081C106.189 97.1069 106.499 96.9062 106.762 96.9062C106.976 96.9062 107.126 97.036 107.209 97.2957C107.304 97.5435 107.352 97.7855 107.352 98.0215C107.352 98.352 107.275 98.7533 107.12 99.2254C106.976 99.6975 106.774 100.205 106.511 100.748C106.249 101.279 105.944 101.804 105.598 102.323C105.252 102.843 104.877 103.321 104.471 103.757C104.065 104.182 103.654 104.519 103.236 104.767C103.093 105.109 102.968 105.492 102.86 105.917C102.765 106.342 102.693 106.761 102.646 107.174C102.598 107.576 102.574 107.935 102.574 108.254C102.574 108.384 102.574 108.496 102.574 108.591C102.586 108.685 102.598 108.773 102.61 108.856C102.777 108.372 102.956 107.906 103.147 107.458C103.349 106.997 103.564 106.578 103.791 106.201C104.018 105.811 104.256 105.475 104.507 105.191C104.769 104.896 105.044 104.672 105.33 104.519C105.616 104.353 105.921 104.271 106.243 104.271C106.577 104.271 106.839 104.353 107.03 104.519C107.233 104.672 107.376 104.873 107.46 105.121C107.555 105.357 107.603 105.605 107.603 105.864C107.603 106.23 107.537 106.584 107.406 106.926C107.287 107.269 107.161 107.599 107.03 107.918C106.899 108.236 106.833 108.543 106.833 108.838C106.833 109.074 106.881 109.246 106.976 109.352C107.084 109.458 107.215 109.511 107.37 109.511C107.644 109.511 107.949 109.381 108.283 109.122C108.629 108.862 108.969 108.52 109.303 108.095C109.637 107.658 109.923 107.186 110.162 106.679L110.394 106.891C110.144 107.469 109.84 107.995 109.482 108.467C109.124 108.927 108.73 109.293 108.301 109.564C107.871 109.836 107.424 109.971 106.958 109.971C106.553 109.971 106.243 109.865 106.028 109.653C105.825 109.44 105.724 109.175 105.724 108.856C105.724 108.608 105.771 108.331 105.867 108.024C105.962 107.717 106.052 107.404 106.135 107.086C106.231 106.767 106.278 106.466 106.278 106.183C106.278 105.876 106.213 105.658 106.082 105.528C105.95 105.398 105.789 105.333 105.598 105.333C105.3 105.333 105.032 105.451 104.793 105.687C104.554 105.923 104.334 106.23 104.131 106.608C103.94 106.974 103.755 107.363 103.576 107.776C103.409 108.189 103.248 108.585 103.093 108.962C102.938 109.328 102.783 109.629 102.628 109.865C102.473 110.101 102.312 110.219 102.145 110.219ZM103.469 104.076C103.803 103.816 104.125 103.486 104.435 103.085C104.757 102.683 105.056 102.259 105.33 101.81C105.604 101.35 105.849 100.901 106.064 100.465C106.278 100.028 106.445 99.6326 106.565 99.2785C106.684 98.9244 106.744 98.6589 106.744 98.4818C106.744 98.4228 106.738 98.3874 106.726 98.3756C106.714 98.352 106.696 98.3402 106.672 98.3402C106.589 98.3402 106.416 98.5054 106.153 98.8359C105.903 99.1546 105.61 99.5853 105.276 100.128C104.942 100.671 104.614 101.285 104.292 101.969C103.97 102.654 103.695 103.356 103.469 104.076Z" fill="#DBAC50"/>
<path fill-rule="evenodd" clip-rule="evenodd" d="M103.576 110.97C103.599 110.583 103.802 109.84 105.173 109.361C105.246 109.623 105.38 109.863 105.579 110.072C105.583 110.076 105.587 110.08 105.592 110.084C105.621 110.114 105.651 110.141 105.682 110.168C105.403 110.229 105.122 110.284 104.845 110.338L104.844 110.338L104.823 110.342C105.161 110.327 105.486 110.298 105.795 110.255C106.13 110.489 106.536 110.582 106.958 110.582C107.553 110.582 108.114 110.407 108.633 110.079C109.131 109.764 109.576 109.347 109.971 108.839L109.973 108.836L109.975 108.833C110.365 108.319 110.693 107.752 110.962 107.131C111.065 106.894 111.005 106.618 110.813 106.442L110.58 106.23C110.436 106.098 110.236 106.042 110.042 106.08C109.849 106.117 109.685 106.244 109.602 106.421C109.598 106.43 109.594 106.439 109.59 106.447C109.586 106.455 109.582 106.463 109.579 106.471C109.575 106.478 109.572 106.484 109.569 106.491L109.563 106.503C109.525 105.994 109.398 105.431 109.174 104.812C109.111 104.638 109.051 104.473 108.994 104.317L108.992 104.312C108.049 101.732 107.963 101.497 109.692 98.7895C111.131 97.4242 112.281 96.2685 112.874 95.0071C114.203 92.1769 114.172 89.3644 114.153 87.6573V87.6572C114.142 86.7251 114.135 86.1226 114.356 86.0268C115.142 85.6861 116.514 88.6703 116.566 90.8234C116.584 90.7132 116.601 90.602 116.618 90.4898L116.64 90.3443L116.659 90.2222C116.66 90.3267 116.659 90.4321 116.658 90.5384L116.649 90.5687L116.648 90.5717L116.645 90.5848C116.619 90.6745 116.593 90.7651 116.567 90.8563L116.567 90.8411C116.567 90.8352 116.567 90.8294 116.566 90.8235C116.091 93.8949 115.681 96.2062 113.742 98.7893L113.707 98.8217C114.249 97.5333 114.462 96.2166 114.215 95.7851C113.93 95.2908 112.937 95.86 111.612 97.4746C115 94.0142 113.918 97.517 113.5 98.8739C113.411 99.1598 113.353 99.3504 113.371 99.3606C113.371 99.3606 113.371 99.3604 113.372 99.36C113.372 99.3597 113.373 99.3593 113.374 99.3587C113.377 99.3561 113.382 99.3508 113.391 99.3433L113.407 99.328L113.409 99.3266L113.409 99.3263C113.78 98.9867 116.695 96.3197 115.363 100.049C115.101 100.783 113.83 102.549 113.83 102.549C113.939 102.576 114.327 102.395 114.553 102.291C114.619 102.26 114.671 102.236 114.698 102.225C116.45 101.528 116 102.851 114.978 103.949C114.112 104.88 112.827 105.622 112.556 105.778C112.522 105.798 112.504 105.808 112.505 105.809C112.666 105.929 113.451 105.861 114.196 105.796C114.859 105.738 115.49 105.683 115.623 105.766C116.495 106.307 113.783 107.352 113.764 107.358C113.76 107.36 113.739 107.367 113.706 107.377L113.703 107.378L113.702 107.378C113.487 107.446 112.794 107.663 112.783 107.707C112.772 107.758 113.123 107.843 113.505 107.937L113.505 107.937C113.794 108.007 114.1 108.081 114.28 108.149C115.354 108.546 114.218 108.926 113.275 109.242C112.723 109.427 112.237 109.59 112.3 109.721C112.332 109.786 112.451 109.877 112.586 109.98L112.586 109.98C113.091 110.366 113.814 110.919 110.984 110.914C110.388 110.913 109.975 110.893 109.713 110.881C109.475 110.87 109.36 110.864 109.344 110.883C109.339 110.889 109.374 110.924 109.429 110.978C109.576 111.123 109.862 111.406 109.878 111.625C109.909 112.022 109.106 111.923 108.452 111.842C107.973 111.782 107.573 111.733 107.64 111.896C107.974 112.704 107.107 112.344 106.441 112.068C106.082 111.919 105.78 111.794 105.759 111.89C105.456 113.247 104.031 111.927 103.59 111.363C103.733 111.609 104.041 111.917 104.392 112.269L104.393 112.27L104.393 112.27L104.393 112.27C104.596 112.473 104.813 112.691 105.022 112.919C105.25 113.168 105.465 113.435 105.662 113.68L105.662 113.68L105.662 113.68L105.662 113.68L105.662 113.681L105.663 113.681L105.663 113.681L105.663 113.681L105.663 113.681L105.663 113.682L105.664 113.682C105.872 113.941 106.06 114.175 106.223 114.335L106.224 114.339C106.326 114.689 106.667 115.854 106.33 115.992C105.902 116.169 103.523 113.223 103.576 110.968V110.97ZM106.294 114.402C106.271 114.381 106.247 114.359 106.223 114.335L106.213 114.303C106.229 114.322 106.244 114.341 106.26 114.36C106.271 114.374 106.283 114.388 106.294 114.402ZM111.886 112.82C112.071 112.999 112.255 113.173 112.43 113.338L112.43 113.338L112.431 113.339L112.431 113.339C113.084 113.955 113.597 114.439 113.463 114.613C113.279 114.854 111.768 114.7 110.132 114.07C110.769 114.85 110.89 115.616 110.779 115.697C110.542 115.869 109.174 115.192 107.909 114.173C107.954 114.283 108.517 115.922 108.15 115.964C107.967 115.986 107.214 115.516 106.294 114.402L106.301 114.408V114.402C106.008 113.905 105.9 113.678 105.832 113.533C105.713 113.281 105.712 113.28 105.054 112.547C105.488 112.715 105.748 112.599 105.879 111.987C105.881 111.988 105.902 112.013 105.94 112.058C106.184 112.347 107.123 113.457 108.025 114.256C107.372 113.309 106.877 112.84 106.087 112.092L106.066 112.073C106.768 112.382 108.402 112.936 107.843 112.075C107.846 112.075 107.893 112.12 107.975 112.196C108.339 112.534 109.379 113.502 110.153 114.072C109.61 113.393 108.725 112.599 108.017 111.998C108.373 112.026 108.641 112.044 108.862 112.059L108.862 112.059L108.863 112.059L108.864 112.059L108.864 112.059C109.212 112.082 109.443 112.097 109.718 112.133C110.231 112.2 110.765 112.346 111.886 112.82ZM111.893 112.818L111.911 112.83L111.886 112.82L111.878 112.812L111.893 112.818ZM114.247 111.946L114.235 111.947C115.142 112.636 115.676 113.118 115.535 113.403C115.354 113.771 113.021 113.282 111.893 112.818C111.134 112.307 110.792 112.153 110.532 112.037C110.4 111.977 110.29 111.928 110.157 111.846C110.138 111.613 110.007 111.329 109.837 111.096C111.783 111.207 112.142 111.316 113.232 111.646C113.51 111.731 113.836 111.829 114.247 111.946ZM114.333 111.938C114.353 111.95 114.374 111.962 114.394 111.974L114.438 112C114.389 111.986 114.342 111.973 114.296 111.96C114.279 111.955 114.263 111.95 114.247 111.946C114.276 111.943 114.304 111.941 114.333 111.938ZM115.473 110.295L115.47 110.296C115.594 110.327 115.735 110.358 115.882 110.39C116.461 110.514 117.123 110.657 117.118 110.954C117.11 111.359 115.626 111.812 114.333 111.938C114.039 111.764 113.84 111.641 113.694 111.551L113.694 111.55L113.694 111.55C113.499 111.43 113.399 111.368 113.293 111.321C113.181 111.272 113.062 111.24 112.818 111.173L112.818 111.173L112.818 111.173C112.709 111.143 112.574 111.106 112.405 111.058C113.316 110.918 113.832 110.561 112.759 109.717C112.759 109.717 112.936 109.754 113.201 109.811L113.209 109.813C113.899 109.96 115.172 110.233 115.473 110.295ZM115.493 110.291L115.537 110.308C115.531 110.307 115.509 110.303 115.473 110.295L115.493 110.291ZM119.858 99.0293C119.895 98.9684 119.937 98.8984 119.983 98.8211L119.991 98.8089L119.991 98.8083L119.991 98.8082C120.534 97.9032 121.65 96.0439 121.919 96.334C122.167 96.6015 122.067 101.717 118.314 104.846C118.446 104.792 118.702 104.648 119.014 104.473L119.014 104.473C119.941 103.954 121.365 103.155 121.549 103.558C121.735 103.967 120.725 105.308 120.138 105.872C119.186 106.783 118.072 107.46 117.044 107.869C117.123 107.864 117.236 107.851 117.371 107.836C118.198 107.743 119.826 107.559 119.204 108.584C118.668 109.469 117.006 109.989 115.493 110.291C114.703 109.995 114.463 109.865 114.313 109.784C114.141 109.69 114.088 109.662 113.455 109.52C113.965 109.368 114.499 109.182 114.749 108.983C115.191 108.633 115.101 108.347 114.804 108.122C114.866 108.123 114.926 108.124 114.984 108.125C115.538 108.136 115.985 108.144 117.089 107.833C116.949 107.834 116.792 107.837 116.622 107.84C115.715 107.857 114.469 107.88 113.813 107.689C114.675 107.444 115.752 107.034 116.057 106.313C116.185 106.014 116.09 105.906 116.033 105.841C116 105.802 115.979 105.779 116.025 105.74C116.118 105.66 116.243 105.635 116.43 105.597C116.784 105.526 117.358 105.411 118.359 104.798C116.873 105.178 116.218 105.208 115.448 105.242C114.971 105.264 114.45 105.287 113.66 105.397C115.98 104 118.676 101.499 119.858 99.0293ZM119.823 98.9931C119.845 98.9613 119.867 98.9292 119.889 98.8967L119.943 98.8192L119.976 98.7711C119.939 98.8571 119.899 98.9432 119.858 99.0293C119.811 99.1067 119.773 99.1692 119.745 99.2127C119.771 99.1397 119.797 99.0665 119.823 98.9931ZM118.723 94.4377C119.541 91.506 120.219 91.0323 120.418 91.1176C120.844 91.3003 121.073 95.375 119.823 98.9931L119.784 99.0497L119.687 99.1898C118.439 100.999 118.04 101.577 116.207 102.989C116.299 102.742 116.332 102.488 116.287 102.233C116.004 101.465 115.238 101.664 114.585 101.956C115.48 101.108 115.871 100.659 116.454 99.9895L116.481 99.9582C117.451 98.8434 118.371 97.2689 118.723 94.4377ZM118.623 94.4871C118.637 94.4367 118.652 94.386 118.666 94.3348C118.691 94.2504 118.715 94.1648 118.74 94.0781L118.748 94.0488L118.753 94.0333L118.776 93.9517C118.76 94.1177 118.742 94.2796 118.723 94.4377C118.667 94.6381 118.61 94.85 118.553 95.074C118.58 94.8809 118.603 94.6849 118.623 94.4871ZM118.623 94.4871C118.923 91.4256 118.326 87.9204 117.691 87.9756C117.383 88.0019 117.048 89.1679 116.658 90.5384C116.628 93.1438 116.145 96.2326 114.391 98.2646C114.962 97.8676 115.605 97.6144 115.832 98.2545C116.106 99.0263 115.715 100.139 115.175 101.076C117.293 98.8587 117.81 97.3116 118.623 94.4871ZM109.69 98.7917L109.694 98.7873L109.692 98.7895L109.69 98.7917ZM109.69 98.7917C107.459 101.443 107.973 102.671 108.579 104.117C108.914 104.916 109.276 105.781 109.219 106.99C109.216 107.044 109.213 107.097 109.208 107.15C109.086 107.348 108.954 107.539 108.813 107.723C108.505 108.115 108.203 108.415 107.91 108.635C107.907 108.637 107.904 108.639 107.902 108.642C107.694 108.803 107.546 108.867 107.452 108.89C107.451 108.875 107.45 108.858 107.45 108.838C107.45 108.69 107.474 108.528 107.528 108.352C108.114 107.789 108.332 107.021 108.207 106.169C108.216 106.068 108.22 105.966 108.22 105.864C108.22 105.534 108.16 105.215 108.039 104.91C107.919 104.564 107.712 104.271 107.42 104.046C107.372 104.005 107.321 103.967 107.269 103.933C106.439 102.22 107.097 101.44 108.476 99.942C108.727 99.7021 108.973 99.4698 109.212 99.2437L109.213 99.2427L109.214 99.2425L109.216 99.2406C109.377 99.0882 109.535 98.9387 109.69 98.7917ZM106.864 111.224C106.567 111.991 104.672 111.159 104.307 110.92L104.303 110.918C105.044 111.615 106.895 112.075 107.067 111.199C107.829 111.513 109.293 111.732 108.834 110.725C109.827 110.636 110.855 110.132 110.132 109.577C110.965 109.119 112.245 108.063 111.26 107.541C112.024 106.481 112.495 104.502 111.416 104.686C111.68 103.686 111.969 101.538 110.621 102.037C111.109 100.469 111.348 98.4287 109.854 99.7131C111.215 98.8911 110.692 100.91 110.433 101.914L110.433 101.914L110.433 101.915C110.376 102.135 110.331 102.306 110.322 102.387C110.32 102.411 110.404 102.363 110.475 102.323L110.475 102.323C110.513 102.301 110.546 102.282 110.56 102.278C111.786 101.875 111.465 103.59 111.264 104.283C111.003 105.183 111.062 105.148 111.229 105.05C111.335 104.988 111.484 104.901 111.623 105.009C112.173 105.436 111.125 107.136 110.855 107.476C110.735 107.627 110.857 107.712 110.994 107.808C111.296 108.019 111.673 108.282 109.747 109.409C109.541 109.528 109.69 109.647 109.842 109.768C110.115 109.986 110.399 110.213 108.621 110.468C108.404 110.5 108.483 110.639 108.569 110.791C108.682 110.991 108.807 111.211 108.281 111.232C107.549 111.261 107.265 111.078 107.125 110.988C106.994 110.904 106.989 110.9 106.864 111.224Z" fill="#DBAC50"/>
<path fill-rule="evenodd" clip-rule="evenodd" d="M39.1205 109.163C41.1331 109.607 41.3973 110.525 41.4239 110.97V110.968C41.427 111.099 41.4219 111.232 41.4095 111.366C40.967 111.931 39.5459 113.245 39.2434 111.89C39.2218 111.794 38.9205 111.919 38.5607 112.068C37.8947 112.344 37.0281 112.704 37.3618 111.896C37.4293 111.733 37.029 111.782 36.5489 111.842C35.8959 111.922 35.0954 112.022 35.1237 111.627C35.2108 111.673 35.3089 111.697 35.4103 111.697C35.7426 111.697 36.0361 111.576 36.293 111.39C36.6681 111.562 37.442 111.4 37.9289 111.199C38.1003 112.072 39.94 111.618 40.6858 110.924C40.3046 111.169 38.4307 111.987 38.1357 111.224C38.0113 110.9 38.0059 110.904 37.8754 110.988C37.7352 111.078 37.4505 111.261 36.7189 111.232C36.634 111.228 36.5661 111.22 36.5123 111.207C36.6509 111.077 36.7772 110.929 36.8914 110.776C37.0839 110.518 37.2838 110.192 37.4916 109.805C38.2311 110.119 39.1421 110.295 40.179 110.342L40.1578 110.338C39.2791 110.166 38.3561 109.985 37.5853 109.627C37.723 109.36 37.864 109.068 38.0085 108.75C38.3192 108.928 38.6893 109.068 39.1205 109.163ZM41.4094 111.367L41.4095 111.366L41.4116 111.363L41.4094 111.367ZM38.7765 114.338C38.9401 114.178 39.1294 113.942 39.3394 113.681C39.5363 113.436 39.7514 113.169 39.9804 112.919C40.1894 112.69 40.4068 112.472 40.6096 112.269C40.9594 111.919 41.2657 111.612 41.4094 111.367C41.2076 113.554 39.0732 116.158 38.6701 115.992C38.3329 115.854 38.6737 114.689 38.7761 114.339L38.7765 114.338ZM38.7008 114.408C38.7293 114.374 38.758 114.339 38.7868 114.303L38.7765 114.338C38.7506 114.363 38.7254 114.387 38.7008 114.408ZM33.1105 112.823C34.2348 112.346 34.7724 112.2 35.2857 112.133C35.5608 112.097 35.7924 112.082 36.14 112.059L36.1402 112.059C36.3617 112.044 36.6302 112.026 36.9871 111.998C36.2787 112.599 35.3942 113.393 34.8516 114.072C35.6226 113.502 36.6616 112.537 37.0272 112.197L37.0276 112.197C37.1103 112.12 37.1585 112.075 37.1611 112.075C36.6022 112.936 38.236 112.382 38.9383 112.073L38.9172 112.092C38.1269 112.84 37.6324 113.309 36.9789 114.256C37.8809 113.457 38.8195 112.347 39.0637 112.058L39.0638 112.058C39.1023 112.013 39.1235 111.988 39.1246 111.987C39.2556 112.599 39.5157 112.715 39.9497 112.547C39.2917 113.28 39.2912 113.281 39.1722 113.533C39.1038 113.678 38.9964 113.905 38.7028 114.402L38.7008 114.408C37.7834 115.518 37.0326 115.986 36.8499 115.964C36.4834 115.922 37.0464 114.283 37.0915 114.173C35.8262 115.192 34.4585 115.869 34.221 115.697C34.1104 115.616 34.2312 114.85 34.868 114.07C33.2321 114.7 31.7211 114.854 31.5368 114.613C31.4032 114.439 31.9164 113.955 32.5688 113.339C32.7427 113.175 32.9264 113.002 33.1105 112.823ZM33.1173 112.814L33.1215 112.812L33.1105 112.823L33.0928 112.83L33.1173 112.814ZM30.7562 111.946C31.168 111.829 31.4938 111.731 31.7719 111.646C32.7884 111.338 33.1693 111.223 34.7941 111.119C34.7997 111.226 34.8338 111.331 34.8951 111.423C34.91 111.445 34.9263 111.466 34.9438 111.486C34.8911 111.61 34.8563 111.734 34.8475 111.846C34.7143 111.928 34.6037 111.977 34.4718 112.037C34.2129 112.153 33.8719 112.306 33.1173 112.814C31.9936 113.279 29.6468 113.772 29.4648 113.403C29.3235 113.118 29.8579 112.636 30.7649 111.947L30.7562 111.946ZM30.6702 111.938C30.6856 111.94 30.7009 111.941 30.7162 111.943C30.7296 111.944 30.7429 111.945 30.7562 111.946C30.6948 111.964 30.6316 111.981 30.5663 112L30.6062 111.976C30.628 111.963 30.6494 111.951 30.6702 111.938ZM29.5287 110.296C29.8252 110.234 31.0904 109.963 31.7846 109.815L31.7865 109.815L31.7926 109.813L31.7951 109.813L31.8068 109.81C32.0693 109.754 32.2447 109.717 32.2452 109.717C31.1723 110.561 31.6883 110.918 32.5994 111.058C32.4297 111.106 32.2955 111.143 32.1863 111.173C31.9422 111.24 31.823 111.272 31.7113 111.321C31.6048 111.368 31.505 111.43 31.3101 111.55L31.3098 111.551C31.164 111.641 30.965 111.764 30.6702 111.938C29.3767 111.813 27.8901 111.36 27.8821 110.954C27.8772 110.657 28.5393 110.514 29.1181 110.39C29.2649 110.358 29.4064 110.327 29.5303 110.296L29.5287 110.296ZM29.5101 110.292L29.5287 110.296C29.494 110.303 29.4725 110.307 29.4668 110.308L29.5101 110.292ZM29.5101 110.292C30.3021 109.995 30.5416 109.865 30.6908 109.783C30.8621 109.69 30.9144 109.662 31.547 109.52C31.0372 109.368 30.5028 109.182 30.253 108.983C29.8108 108.633 29.9009 108.347 30.1978 108.122C30.1361 108.123 30.0765 108.124 30.018 108.125C29.4638 108.136 29.0167 108.144 27.9128 107.833C28.0526 107.834 28.2102 107.837 28.3796 107.84C29.2871 107.857 30.5331 107.88 31.1887 107.689C30.3268 107.444 29.2498 107.034 28.9447 106.313C28.817 106.013 28.9113 105.905 28.9682 105.84C29.0016 105.802 29.0221 105.779 28.9775 105.74C28.884 105.66 28.7588 105.635 28.5718 105.597C28.2182 105.526 27.6436 105.411 26.6434 104.798C28.1292 105.178 28.7841 105.208 29.5543 105.242C30.0312 105.264 30.5523 105.287 31.3423 105.397C29.0267 104.003 26.338 101.51 25.1518 99.0456C25.1942 99.1155 25.2292 99.1723 25.2552 99.2127C25.2279 99.1377 25.2013 99.0625 25.1753 98.9871C25.2231 99.0564 25.2697 99.1239 25.3152 99.1898C26.5632 100.999 26.9621 101.577 28.7953 102.989C28.7031 102.742 28.6704 102.488 28.7154 102.233C28.998 101.465 29.7637 101.664 30.4168 101.956C29.5217 101.108 29.1308 100.659 28.5482 99.9895L28.5209 99.9582C27.5528 98.8452 26.6342 97.2738 26.2809 94.451C26.3357 94.6475 26.391 94.8549 26.4469 95.074C26.4193 94.8774 26.3958 94.6778 26.3762 94.4763C27.1909 97.3077 27.7065 98.8559 29.8272 101.076C29.2867 100.139 28.8956 99.0263 29.1699 98.2545C29.3972 97.6144 30.0401 97.8676 30.6113 98.2646C28.8583 96.2345 28.3748 93.1497 28.3443 90.5459L28.3513 90.5705L28.3514 90.5707C28.3783 90.6651 28.4054 90.7604 28.4329 90.8563C28.4331 90.8416 28.4335 90.8268 28.4339 90.812C28.9102 93.8892 29.3187 96.203 31.2604 98.7893L31.2952 98.8217C30.7547 97.5333 30.5417 96.2166 30.7895 95.7851C31.072 95.2908 32.065 95.86 33.3897 97.4746C30.0023 94.0142 31.0836 97.517 31.5024 98.8739C31.5907 99.1598 31.6495 99.3504 31.631 99.3606C31.6305 99.3609 31.6171 99.3486 31.5927 99.3263C31.2216 98.9867 28.3074 96.3197 29.6388 100.049C29.9009 100.783 31.1723 102.549 31.1723 102.549C31.0631 102.576 30.6747 102.395 30.4493 102.291C30.3832 102.26 30.3311 102.236 30.3042 102.225C28.5516 101.528 29.0021 102.851 30.0237 103.949C30.8899 104.88 32.1748 105.622 32.4458 105.778L32.4459 105.778C32.4798 105.798 32.4977 105.808 32.497 105.809C32.3356 105.929 31.5513 105.861 30.8065 105.796C30.1435 105.738 29.5119 105.683 29.3788 105.766C28.5066 106.307 31.2194 107.352 31.2379 107.358C31.2427 107.36 31.265 107.367 31.2997 107.378C31.5147 107.446 32.208 107.663 32.2186 107.707C32.2303 107.758 31.879 107.843 31.4969 107.937C31.2085 108.007 30.9025 108.081 30.7219 108.149C29.6478 108.546 30.7838 108.926 31.7267 109.242C32.2792 109.427 32.7653 109.59 32.7018 109.721C32.6702 109.786 32.5509 109.877 32.4159 109.98C31.9112 110.366 31.1882 110.919 34.0183 110.914C34.3372 110.913 34.6037 110.907 34.8228 110.9C34.8286 110.882 34.8354 110.864 34.8431 110.846C34.8782 110.765 34.9411 110.624 35.0316 110.423C34.6179 110.206 34.4449 109.9 34.8659 109.577C34.0326 109.119 32.753 108.063 33.7378 107.541C32.9761 106.481 32.5052 104.502 33.5842 104.686C33.3201 103.686 33.0335 101.538 34.3786 102.037C33.8913 100.469 33.6518 98.4287 35.1464 99.7131C33.7867 98.8909 34.3084 100.911 34.5675 101.914C34.6245 102.134 34.6687 102.306 34.6776 102.387C34.6802 102.411 34.5957 102.363 34.5255 102.323L34.5254 102.323L34.5253 102.323C34.4874 102.301 34.4537 102.282 34.4401 102.278C33.2136 101.875 33.5351 103.59 33.7357 104.283C33.9966 105.183 33.9379 105.148 33.7709 105.05C33.6653 104.988 33.5163 104.901 33.3774 105.009C32.8267 105.436 33.875 107.136 34.1452 107.476C34.2652 107.627 34.1433 107.712 34.0057 107.808C33.7041 108.019 33.3268 108.282 35.2529 109.409C35.4586 109.528 35.31 109.647 35.1585 109.768C34.9878 109.904 34.8134 110.043 35.1366 110.191C35.221 110.004 35.3215 109.782 35.4381 109.526L35.4397 109.523C35.5744 109.232 35.7258 108.903 35.8939 108.538C35.3215 107.649 35.2461 106.418 35.8282 104.812C35.8919 104.636 35.9526 104.47 36.0101 104.312L36.0103 104.312C36.9523 101.734 37.0389 101.497 35.3127 98.7945L35.3199 98.8013C37.542 101.446 37.028 102.673 36.423 104.117C36.0882 104.916 35.7256 105.781 35.7832 106.99C35.8055 107.456 35.9009 107.852 36.0544 108.188C36.2472 107.769 36.4595 107.305 36.6914 106.799L36.6926 106.796C36.7147 106.748 36.7369 106.7 36.7592 106.652C36.7523 105.986 36.9777 105.247 37.4211 104.504C38.1599 103.265 38.251 102.484 37.8977 101.72C37.7098 101.314 37.396 100.914 36.9871 100.452C36.844 100.29 36.6894 100.121 36.5244 99.942C36.2724 99.7017 36.026 99.469 35.7863 99.2425L35.7854 99.2416L35.7843 99.2406C35.6265 99.0916 35.4716 98.9453 35.3199 98.8013L35.3082 98.7873L35.3127 98.7945C33.872 97.427 32.7194 96.27 32.1265 95.0071C30.7968 92.1769 30.8283 89.3644 30.8475 87.6573C30.8579 86.7252 30.8647 86.1226 30.6441 86.0268C29.8592 85.6867 28.4906 88.6598 28.4339 90.812C28.418 90.7099 28.4021 90.6069 28.3861 90.503L28.386 90.5024L28.3858 90.5008L28.3854 90.4983L28.3852 90.4972L28.3844 90.4919L28.3843 90.4914L28.3841 90.4898L28.3839 90.4885C28.3703 90.4004 28.3566 90.3116 28.3428 90.2222C28.3425 90.3292 28.343 90.4371 28.3443 90.5459C27.9527 89.1722 27.6175 88.002 27.3088 87.9756C26.6749 87.9205 26.0789 91.4174 26.3762 94.4763C26.3351 94.3335 26.2933 94.1874 26.2504 94.0378L26.2495 94.0347L26.2491 94.0333L26.2257 93.9517C26.2422 94.1224 26.2606 94.2887 26.2809 94.451C25.4612 91.5075 24.7812 91.0321 24.5816 91.1176C24.1564 91.3002 23.9277 95.3705 25.1753 98.9871C25.1268 98.9169 25.0771 98.845 25.0259 98.7711C25.0657 98.8625 25.1077 98.954 25.1518 99.0456C25.1107 98.9778 25.0626 98.8977 25.009 98.8083C24.466 97.9034 23.3503 96.0439 23.0809 96.334C22.8331 96.6015 22.9334 101.717 26.6864 104.846C26.5541 104.792 26.2981 104.648 25.9853 104.473C25.0586 103.954 23.6336 103.155 23.4514 103.558C23.2651 103.967 24.2745 105.308 24.8621 105.872C25.8142 106.783 26.928 107.46 27.9558 107.869C27.8768 107.864 27.7636 107.851 27.6293 107.836C26.8023 107.743 25.174 107.559 25.7958 108.584C26.3319 109.469 27.9963 109.989 29.5101 110.292Z" fill="#DBAC50"/>
<path d="M107.986 107.134C107.864 107.483 107.736 107.821 107.602 108.148C107.573 108.218 107.548 108.286 107.528 108.352C108.114 107.789 108.332 107.021 108.207 106.169C108.179 106.499 108.105 106.821 107.986 107.134Z" fill="#DBAC50"/>
</g>
</g>
<defs>
<filter id="filter0_d_91_136" x="18" y="81" width="109" height="40" filterUnits="userSpaceOnUse" color-interpolation-filters="sRGB">
<feFlood flood-opacity="0" result="BackgroundImageFix"/>
<feColorMatrix in="SourceAlpha" type="matrix" values="0 0 0 0 0 0 0 0 0 0 0 0 0 0 0 0 0 0 127 0" result="hardAlpha"/>
<feOffset/>
<feGaussianBlur stdDeviation="2.5"/>
<feComposite in2="hardAlpha" operator="out"/>
<feColorMatrix type="matrix" values="0 0 0 0 0 0 0 0 0 0 0 0 0 0 0 0 0 0 0.45 0"/>
<feBlend mode="normal" in2="BackgroundImageFix" result="effect1_dropShadow_91_136"/>
<feBlend mode="normal" in="SourceGraphic" in2="effect1_dropShadow_91_136" result="shape"/>
</filter>
<clipPath id="clip0_91_136">
<rect width="144" height="202" fill="white"/>
</clipPath>
</defs>
</svg>
