<svg width="1123" height="344" viewBox="0 0 1123 344" fill="none" xmlns="http://www.w3.org/2000/svg">
<path d="M140.776 287.661C141.588 285.766 143.821 280.759 147.475 272.639C151.129 264.654 155.865 254.234 161.685 241.377C167.639 228.385 174.271 213.701 181.579 197.326C189.022 180.815 196.871 163.357 205.127 144.952C205.533 144.005 205.939 142.787 206.345 141.298C206.886 139.674 207.157 138.118 207.157 136.629C207.157 135.14 206.683 133.922 205.736 132.975C204.924 131.892 203.097 131.351 200.255 131.351C194.571 131.351 189.834 133.313 186.045 137.238C182.391 141.027 179.616 145.764 177.722 151.448C175.962 157.132 175.083 162.748 175.083 168.297C175.083 169.65 175.083 170.801 175.083 171.748C175.218 172.695 175.353 173.643 175.489 174.59C172.917 174.59 170.82 173.71 169.196 171.951C167.707 170.056 166.557 167.823 165.745 165.252C165.068 162.545 164.73 160.109 164.73 157.944C164.73 153.478 165.948 149.215 168.384 145.155C170.82 141.095 173.932 137.441 177.722 134.193C181.646 130.945 185.909 128.441 190.511 126.682C195.247 124.787 199.849 123.84 204.315 123.84C208.781 123.84 212.502 125.126 215.48 127.697C218.592 130.133 220.893 134.599 222.382 141.095C224.006 147.591 224.818 156.997 224.818 169.312C224.818 177.703 224.479 186.635 223.803 196.108C223.261 205.581 222.652 214.919 221.976 224.122C221.299 233.325 220.825 241.715 220.555 249.294C222.72 241.039 225.765 232.242 229.69 222.904C233.75 213.566 238.148 204.296 242.885 195.093C247.757 185.755 252.561 177.026 257.298 168.906C262.034 160.786 266.297 153.749 270.087 147.794C273.876 141.839 276.65 137.509 278.41 134.802C280.304 132.095 281.928 130.065 283.282 128.712C284.635 127.223 286.394 126.479 288.56 126.479C290.454 126.479 292.62 126.953 295.056 127.9C294.108 130.336 292.755 133.99 290.996 138.862C289.372 143.599 287.68 149.418 285.921 156.32C283.755 164.575 281.59 173.981 279.425 184.537C277.259 194.958 275.229 205.581 273.335 216.408C271.575 227.235 270.154 237.452 269.072 247.061C267.989 256.534 267.448 264.519 267.448 271.015C267.448 273.992 267.583 276.293 267.854 277.917C268.124 279.541 268.463 280.962 268.869 282.18C269.41 283.533 269.951 285.36 270.493 287.661C265.891 287.661 262.373 286.917 259.937 285.428C257.501 283.939 255.877 281.503 255.065 278.12C254.253 274.872 253.847 270.474 253.847 264.925C253.847 248.82 255.877 231.565 259.937 213.16C264.132 194.619 268.869 175.402 274.147 155.508C270.222 160.515 266.094 166.876 261.764 174.59C257.568 182.169 253.305 190.424 248.975 199.356C244.779 208.153 240.719 217.017 236.795 225.949C233.005 234.746 229.622 242.933 226.645 250.512C223.667 258.091 221.367 264.384 219.743 269.391C218.931 269.662 218.389 269.865 218.119 270C217.848 270.135 217.374 270.203 216.698 270.203C213.044 270.203 210.608 268.038 209.39 263.707C208.307 259.376 207.766 253.286 207.766 245.437C207.766 239.888 207.901 233.325 208.172 225.746C208.578 218.032 208.984 210.115 209.39 201.995C209.796 193.875 210.134 186.093 210.405 178.65C210.811 171.071 211.014 164.575 211.014 159.162C211.014 156.455 210.946 154.222 210.811 152.463C210.811 150.704 210.743 149.147 210.608 147.794C199.781 172.966 190.714 194.484 183.406 212.348C176.098 230.077 169.94 244.49 164.933 255.587C160.061 266.684 155.73 274.804 151.941 279.947C148.151 285.09 144.43 287.661 140.776 287.661Z" fill="#ffc34e"/>
<path d="M301.637 326.84C298.254 326.84 295.277 325.893 292.705 323.998C290.134 322.239 288.848 319.6 288.848 316.081C288.848 311.75 289.931 307.893 292.096 304.51C294.262 301.127 297.171 298.014 300.825 295.172C304.479 292.33 308.675 289.623 313.411 287.052C318.148 284.481 323.088 281.909 328.23 279.338C330.125 274.331 332.02 268.782 333.914 262.692C335.944 256.467 337.839 249.632 339.598 242.189C335.268 249.226 330.599 255.316 325.591 260.459C320.719 265.466 315.509 267.97 309.96 267.97C307.389 267.97 304.818 267.429 302.246 266.346C299.81 265.128 297.78 263.301 296.156 260.865C294.532 258.429 293.72 255.316 293.72 251.527C293.72 247.738 294.329 243.339 295.547 238.332C296.901 233.325 298.525 228.453 300.419 223.716C302.314 218.979 304.276 215.055 306.306 211.942C308.336 208.829 310.096 207.273 311.584 207.273C312.126 207.273 313.073 207.476 314.426 207.882C315.915 208.288 317.268 208.897 318.486 209.709C319.84 210.386 320.516 211.13 320.516 211.942C319.298 213.701 317.945 216.205 316.456 219.453C314.968 222.701 313.479 226.355 311.99 230.415C310.637 234.34 309.487 238.197 308.539 241.986C307.592 245.775 307.118 249.023 307.118 251.73C307.118 254.166 307.66 256.128 308.742 257.617C309.825 259.106 311.72 259.85 314.426 259.85C316.998 259.85 319.84 258.632 322.952 256.196C326.2 253.625 329.381 250.377 332.493 246.452C335.741 242.527 338.719 238.332 341.425 233.866C341.831 232.377 342.17 230.889 342.44 229.4C342.846 227.776 343.185 226.152 343.455 224.528C343.861 222.633 344.809 220.468 346.297 218.032C347.921 215.461 350.425 214.175 353.808 214.175C354.485 214.175 355.162 214.243 355.838 214.378C356.515 214.378 357.259 214.513 358.071 214.784C358.071 216.949 357.395 221.009 356.041 226.964C354.823 232.783 352.996 239.618 350.56 247.467C348.26 255.316 345.485 263.369 342.237 271.624C348.598 269.188 354.823 265.196 360.913 259.647C367.003 253.963 371.943 246.452 375.732 237.114L378.371 239.144C376.341 245.64 373.229 251.324 369.033 256.196C364.973 260.933 360.372 265.06 355.229 268.579C350.087 271.962 345.012 274.804 340.004 277.105C336.486 285.766 332.629 293.886 328.433 301.465C324.373 309.044 320.043 315.134 315.441 319.735C310.975 324.472 306.374 326.84 301.637 326.84ZM300.622 320.344C302.652 320.344 306.036 317.637 310.772 312.224C315.644 306.946 320.787 297.608 326.2 284.21C320.652 287.187 315.509 290.097 310.772 292.939C306.036 295.916 302.246 299.097 299.404 302.48C296.562 305.863 295.141 309.788 295.141 314.254C295.141 315.337 295.547 316.622 296.359 318.111C297.171 319.6 298.592 320.344 300.622 320.344Z" fill="#ffc34e"/>
<path d="M389.064 279.338C383.244 279.338 378.778 277.646 375.666 274.263C372.553 270.88 370.997 265.872 370.997 259.241C370.997 255.181 371.538 250.309 372.621 244.625C373.839 238.941 375.395 232.919 377.29 226.558C379.32 220.062 381.485 213.769 383.786 207.679C382.432 207.408 381.147 207.002 379.929 206.461C378.711 205.784 377.56 205.243 376.478 204.837V201.183C377.56 201.318 378.846 201.657 380.335 202.198C381.823 202.739 383.515 203.078 385.41 203.213C389.199 193.469 393.191 184.469 397.387 176.214C401.717 167.959 405.845 161.327 409.77 156.32C413.694 151.313 417.01 148.809 419.717 148.809C420.799 148.809 421.747 149.215 422.559 150.027C423.506 150.704 423.98 151.786 423.98 153.275C423.98 154.628 423.438 156.591 422.356 159.162C421.273 161.598 419.784 164.508 417.89 167.891C415.995 171.274 413.897 174.996 411.597 179.056C409.296 183.116 406.86 187.447 404.289 192.048C401.717 196.649 399.281 201.454 396.981 206.461C400.364 207.002 403.612 207.476 406.725 207.882C409.973 208.288 413.288 208.491 416.672 208.491C420.326 208.491 424.25 208.22 428.446 207.679C432.641 207.138 437.445 206.326 442.859 205.243C446.377 195.634 450.302 186.093 454.633 176.62C459.099 167.147 463.565 158.553 468.031 150.839C472.632 142.99 476.963 136.764 481.023 132.163C485.218 127.426 488.804 125.058 491.782 125.058C494.218 125.058 495.909 126.547 496.857 129.524C497.939 132.366 498.481 135.14 498.481 137.847C498.481 142.584 497.263 148.2 494.827 154.696C492.526 161.057 489.346 167.688 485.286 174.59C481.226 181.357 476.489 187.717 471.076 193.672C465.798 199.491 460.181 204.228 454.227 207.882C452.061 213.025 450.099 218.979 448.34 225.746C446.716 232.513 445.565 239.212 444.889 245.843C444.212 252.339 444.144 257.752 444.686 262.083C447.934 252.745 451.588 244.084 455.648 236.099C459.708 228.114 464.241 221.686 469.249 216.814C474.391 211.942 479.94 209.506 485.895 209.506C491.443 209.506 495.368 211.468 497.669 215.393C500.105 219.182 501.323 223.31 501.323 227.776C501.323 231.971 500.578 236.031 499.09 239.956C497.736 243.881 496.315 247.67 494.827 251.324C493.338 254.978 492.594 258.497 492.594 261.88C492.594 264.587 493.135 266.549 494.218 267.767C495.436 268.985 496.924 269.594 498.684 269.594C501.796 269.594 505.247 268.105 509.037 265.128C512.961 262.151 516.818 258.226 520.608 253.354C524.397 248.347 527.645 242.933 530.352 237.114L532.991 239.55C530.149 246.181 526.698 252.204 522.638 257.617C518.578 262.895 514.112 267.09 509.24 270.203C504.368 273.316 499.293 274.872 494.015 274.872C489.413 274.872 485.895 273.654 483.459 271.218C481.158 268.782 480.008 265.737 480.008 262.083C480.008 259.241 480.549 256.061 481.632 252.542C482.714 249.023 483.729 245.437 484.677 241.783C485.759 238.129 486.301 234.678 486.301 231.43C486.301 227.911 485.556 225.408 484.068 223.919C482.579 222.43 480.752 221.686 478.587 221.686C475.203 221.686 472.158 223.039 469.452 225.746C466.745 228.453 464.241 231.971 461.941 236.302C459.775 240.497 457.678 244.963 455.648 249.7C453.753 254.437 451.926 258.97 450.167 263.301C448.407 267.496 446.648 270.947 444.889 273.654C443.129 276.361 441.302 277.714 439.408 277.714C437.919 277.714 436.566 276.97 435.348 275.481C434.13 273.992 433.115 271.895 432.303 269.188C431.626 266.481 431.22 263.369 431.085 259.85C430.949 256.196 431.152 252.339 431.694 248.279C426.551 257.346 420.19 264.79 412.612 270.609C405.168 276.428 397.319 279.338 389.064 279.338ZM394.951 271.827C401.988 271.827 408.89 268.714 415.657 262.489C422.423 256.264 428.378 247.805 433.521 237.114C434.468 232.648 435.415 228.385 436.363 224.325C437.445 220.265 438.866 215.731 440.626 210.724C436.024 211.807 431.626 212.551 427.431 212.957C423.371 213.363 419.446 213.566 415.657 213.566C411.867 213.566 408.281 213.363 404.898 212.957C401.514 212.416 398.131 211.874 394.748 211.333C391.635 218.506 388.996 225.881 386.831 233.46C384.665 241.039 383.583 248.414 383.583 255.587C383.583 261.406 384.462 265.602 386.222 268.173C387.981 270.609 390.891 271.827 394.951 271.827ZM456.866 199.965C461.602 196.176 466.001 191.642 470.061 186.364C474.256 180.951 477.978 175.47 481.226 169.921C484.474 164.237 486.977 159.027 488.737 154.29C490.631 149.418 491.579 145.696 491.579 143.125C491.579 142.042 491.308 141.501 490.767 141.501C489.819 141.501 487.992 142.99 485.286 145.967C482.579 148.944 479.466 153.072 475.948 158.35C472.564 163.628 469.181 169.853 465.798 177.026C462.414 184.063 459.437 191.71 456.866 199.965Z" fill="#ffc34e"/>
<path d="M522.987 287.661C523.799 285.766 526.031 280.759 529.685 272.639C533.339 264.654 538.076 254.234 543.896 241.377C549.85 228.385 556.481 213.701 563.789 197.326C571.233 180.815 579.082 163.357 587.338 144.952C587.744 144.005 588.149 142.787 588.555 141.298C589.097 139.674 589.367 138.118 589.367 136.629C589.367 135.14 588.894 133.922 587.946 132.975C587.134 131.892 585.308 131.351 582.466 131.351C576.782 131.351 572.045 133.313 568.255 137.238C564.601 141.027 561.827 145.764 559.932 151.448C558.173 157.132 557.294 162.748 557.294 168.297C557.294 169.65 557.294 170.801 557.294 171.748C557.429 172.695 557.564 173.643 557.7 174.59C555.128 174.59 553.03 173.71 551.406 171.951C549.918 170.056 548.768 167.823 547.956 165.252C547.279 162.545 546.94 160.109 546.94 157.944C546.94 153.478 548.158 149.215 550.594 145.155C553.03 141.095 556.143 137.441 559.932 134.193C563.857 130.945 568.12 128.441 572.721 126.682C577.458 124.787 582.06 123.84 586.526 123.84C590.992 123.84 594.713 125.126 597.69 127.697C600.803 130.133 603.104 134.599 604.593 141.095C606.217 147.591 607.029 156.997 607.029 169.312C607.029 177.703 606.69 186.635 606.013 196.108C605.472 205.581 604.863 214.919 604.187 224.122C603.51 233.325 603.036 241.715 602.766 249.294C604.931 241.039 607.976 232.242 611.901 222.904C615.961 213.566 620.359 204.296 625.096 195.093C629.968 185.755 634.772 177.026 639.508 168.906C644.245 160.786 648.508 153.749 652.297 147.794C656.087 141.839 658.861 137.509 660.62 134.802C662.515 132.095 664.139 130.065 665.492 128.712C666.846 127.223 668.605 126.479 670.771 126.479C672.665 126.479 674.83 126.953 677.266 127.9C676.319 130.336 674.966 133.99 673.206 138.862C671.582 143.599 669.891 149.418 668.132 156.32C665.966 164.575 663.801 173.981 661.635 184.537C659.47 194.958 657.44 205.581 655.546 216.408C653.786 227.235 652.365 237.452 651.283 247.061C650.2 256.534 649.659 264.519 649.659 271.015C649.659 273.992 649.794 276.293 650.065 277.917C650.335 279.541 650.674 280.962 651.08 282.18C651.621 283.533 652.162 285.36 652.703 287.661C648.102 287.661 644.584 286.917 642.148 285.428C639.712 283.939 638.088 281.503 637.276 278.12C636.464 274.872 636.057 270.474 636.057 264.925C636.057 248.82 638.088 231.565 642.148 213.16C646.343 194.619 651.079 175.402 656.357 155.508C652.433 160.515 648.305 166.876 643.974 174.59C639.779 182.169 635.516 190.424 631.185 199.356C626.99 208.153 622.93 217.017 619.005 225.949C615.216 234.746 611.833 242.933 608.856 250.512C605.878 258.091 603.577 264.384 601.953 269.391C601.141 269.662 600.6 269.865 600.33 270C600.059 270.135 599.585 270.203 598.909 270.203C595.255 270.203 592.819 268.038 591.601 263.707C590.518 259.376 589.977 253.286 589.977 245.437C589.977 239.888 590.112 233.325 590.383 225.746C590.789 218.032 591.195 210.115 591.601 201.995C592.007 193.875 592.345 186.093 592.615 178.65C593.021 171.071 593.224 164.575 593.224 159.162C593.224 156.455 593.157 154.222 593.021 152.463C593.021 150.704 592.954 149.147 592.818 147.794C581.992 172.966 572.925 194.484 565.617 212.348C558.309 230.077 552.151 244.49 547.143 255.587C542.271 266.684 537.941 274.804 534.151 279.947C530.362 285.09 526.641 287.661 522.987 287.661Z" fill="#ffc34e"/>
<path d="M686.053 279.541C681.857 279.541 678.339 278.12 675.497 275.278C672.519 272.571 671.031 268.376 671.031 262.692C671.031 257.82 672.113 252.61 674.279 247.061C676.444 241.377 679.421 235.828 683.211 230.415C687 224.866 691.263 219.859 696 215.393C700.872 210.792 705.947 207.138 711.225 204.431C716.638 201.724 721.984 200.371 727.262 200.371C732.54 200.371 736.938 201.792 740.457 204.634C743.975 207.341 745.735 210.995 745.735 215.596C745.735 218.979 744.787 221.28 742.893 222.498C741.133 223.716 738.765 224.325 735.788 224.325C736.058 223.242 736.261 222.092 736.397 220.874C736.667 219.521 736.803 218.303 736.803 217.22C736.803 214.107 736.058 211.468 734.57 209.303C733.081 207.002 730.51 205.852 726.856 205.852C723.066 205.852 719.209 207.205 715.285 209.912C711.36 212.483 707.571 216.002 703.917 220.468C700.263 224.799 697.015 229.535 694.173 234.678C691.331 239.821 689.098 244.896 687.474 249.903C685.85 254.91 685.038 259.376 685.038 263.301C685.038 268.579 686.865 271.218 690.519 271.218C693.631 271.218 697.015 269.797 700.669 266.955C704.323 263.978 708.044 260.256 711.834 255.79C715.758 251.189 719.48 246.452 722.999 241.58C726.517 236.708 729.63 232.242 732.337 228.182C732.878 227.37 733.216 226.964 733.352 226.964C734.164 227.099 735.179 227.37 736.397 227.776C737.75 228.182 738.9 228.723 739.848 229.4C740.795 230.077 741.269 230.956 741.269 232.039C741.269 233.257 740.66 234.949 739.442 237.114C738.224 239.144 736.87 241.512 735.382 244.219C733.893 246.926 732.54 249.7 731.322 252.542C730.104 255.249 729.495 257.82 729.495 260.256C729.495 262.286 730.036 264.316 731.119 266.346C732.201 268.241 733.961 269.188 736.397 269.188C740.051 269.188 744.855 266.549 750.81 261.271C756.764 255.858 762.787 247.805 768.877 237.114L770.907 239.144C768.065 246.452 764.411 252.88 759.945 258.429C755.479 263.978 750.674 268.308 745.532 271.421C740.524 274.534 735.585 276.09 730.713 276.09C725.705 276.09 721.984 274.601 719.548 271.624C717.247 268.647 716.097 265.399 716.097 261.88C716.097 261.068 716.164 260.188 716.3 259.241C716.435 258.158 716.57 257.076 716.706 255.993C710.886 263.842 705.541 269.729 700.669 273.654C695.932 277.579 691.06 279.541 686.053 279.541Z" fill="#ffc34e"/>
<path d="M781.98 279.338C776.16 279.338 771.694 277.646 768.582 274.263C765.469 270.88 763.913 265.872 763.913 259.241C763.913 253.286 764.995 245.978 767.161 237.317C769.461 228.52 772.303 219.521 775.687 210.318C774.333 210.047 773.048 209.844 771.83 209.709C770.612 209.438 769.461 209.1 768.379 208.694V205.04C769.461 205.175 770.747 205.311 772.236 205.446C773.724 205.581 775.416 205.717 777.311 205.852C780.153 198.544 783.198 191.507 786.446 184.74C789.694 177.838 792.874 171.748 795.987 166.47C799.235 161.057 802.28 156.794 805.122 153.681C808.099 150.433 810.603 148.809 812.633 148.809C813.715 148.809 814.663 149.215 815.475 150.027C816.422 150.704 816.896 151.786 816.896 153.275C816.896 155.576 815.475 159.365 812.633 164.643C809.791 169.786 806.272 175.943 802.077 183.116C797.881 190.289 793.821 198.07 789.897 206.461C791.115 206.461 792.333 206.461 793.551 206.461C794.904 206.461 796.19 206.461 797.408 206.461C801.874 206.461 806.543 206.393 811.415 206.258C816.422 206.123 821.429 205.784 826.437 205.243V208.897C818.993 209.709 812.294 210.318 806.34 210.724C800.52 211.13 795.31 211.333 790.709 211.333C790.167 211.333 789.626 211.333 789.085 211.333C788.679 211.333 788.205 211.333 787.664 211.333C784.551 218.506 781.912 225.881 779.747 233.46C777.581 241.039 776.499 248.414 776.499 255.587C776.499 261.406 777.378 265.602 779.138 268.173C780.897 270.609 783.807 271.827 787.867 271.827C794.904 271.827 801.806 268.714 808.573 262.489C815.339 256.264 821.294 247.805 826.437 237.114L829.076 239.144C825.828 246.723 821.7 253.557 816.693 259.647C811.821 265.737 806.407 270.541 800.453 274.06C794.498 277.579 788.34 279.338 781.98 279.338Z" fill="#ffc34e"/>
<path d="M844.332 281.368C837.836 281.368 832.423 279.203 828.092 274.872C823.762 270.541 821.596 264.045 821.596 255.384C821.596 248.617 822.882 242.054 825.453 235.693C828.16 229.197 831.679 223.378 836.009 218.235C840.34 213.092 845.144 209.032 850.422 206.055C855.7 202.942 860.911 201.386 866.053 201.386C871.602 201.386 875.391 203.01 877.421 206.258C879.451 209.506 880.466 212.889 880.466 216.408C880.466 220.333 879.519 223.784 877.624 226.761C875.865 229.738 873.429 231.227 870.316 231.227C868.016 231.227 866.053 230.212 864.429 228.182C866.459 227.099 868.219 224.934 869.707 221.686C871.196 218.303 871.94 215.122 871.94 212.145C871.94 210.521 871.602 209.303 870.925 208.491C870.384 207.544 869.234 207.07 867.474 207.07C863.82 207.07 860.031 208.694 856.106 211.942C852.317 215.19 848.731 219.385 845.347 224.528C842.099 229.671 839.393 235.084 837.227 240.768C835.197 246.452 834.182 251.798 834.182 256.805C834.182 261 835.197 264.857 837.227 268.376C839.257 271.895 843.182 273.654 849.001 273.654C854.415 273.654 859.828 272.165 865.241 269.188C870.79 266.211 875.933 261.948 880.669 256.399C885.406 250.85 889.195 244.354 892.037 236.911L894.676 238.941C891.564 247.061 887.301 254.369 881.887 260.865C876.474 267.226 870.519 272.233 864.023 275.887C857.527 279.541 850.964 281.368 844.332 281.368Z" fill="#ffc34e"/>
<path d="M897.771 277.714C895.199 277.714 893.169 275.549 891.68 271.218C890.192 266.887 889.448 262.015 889.448 256.602C889.448 250.106 890.53 242.392 892.695 233.46C894.861 224.528 897.703 215.122 901.221 205.243C904.74 195.364 908.665 185.687 912.995 176.214C917.461 166.741 921.995 158.147 926.596 150.433C931.198 142.719 935.528 136.561 939.589 131.96C943.649 127.359 947.167 125.058 950.144 125.058C952.58 125.058 954.272 126.547 955.219 129.524C956.302 132.366 956.844 135.14 956.844 137.847C956.844 141.636 955.964 146.238 954.204 151.651C952.58 157.064 950.28 162.884 947.302 169.109C944.325 175.199 940.874 181.221 936.95 187.176C933.025 193.131 928.762 198.612 924.161 203.619C919.559 208.491 914.89 212.348 910.154 215.19C908.53 219.115 907.109 223.513 905.891 228.385C904.808 233.257 903.996 238.061 903.454 242.798C902.913 247.399 902.643 251.527 902.643 255.181C902.643 256.67 902.643 257.955 902.643 259.038C902.778 260.121 902.913 261.136 903.049 262.083C904.943 256.534 906.973 251.189 909.138 246.046C911.439 240.768 913.875 235.964 916.446 231.633C919.018 227.167 921.724 223.31 924.566 220.062C927.544 216.679 930.656 214.107 933.904 212.348C937.152 210.453 940.604 209.506 944.258 209.506C948.047 209.506 951.024 210.453 953.19 212.348C955.49 214.107 957.114 216.408 958.062 219.25C959.144 221.957 959.685 224.799 959.685 227.776C959.685 231.971 958.941 236.031 957.453 239.956C956.099 243.881 954.678 247.67 953.19 251.324C951.701 254.978 950.956 258.497 950.956 261.88C950.956 264.587 951.498 266.549 952.581 267.767C953.799 268.985 955.287 269.594 957.047 269.594C960.159 269.594 963.61 268.105 967.399 265.128C971.324 262.151 975.181 258.226 978.971 253.354C982.76 248.347 986.008 242.933 988.714 237.114L991.354 239.55C988.512 246.181 985.06 252.204 981 257.617C976.94 262.895 972.474 267.09 967.602 270.203C962.73 273.316 957.656 274.872 952.378 274.872C947.776 274.872 944.257 273.654 941.821 271.218C939.521 268.782 938.37 265.737 938.37 262.083C938.37 259.241 938.912 256.061 939.995 252.542C941.077 249.023 942.092 245.437 943.039 241.783C944.122 238.129 944.664 234.678 944.664 231.43C944.664 227.911 943.919 225.408 942.43 223.919C940.942 222.43 939.115 221.686 936.95 221.686C933.566 221.686 930.521 223.039 927.815 225.746C925.108 228.453 922.604 231.971 920.303 236.302C918.138 240.497 916.04 244.963 914.01 249.7C912.116 254.437 910.289 258.97 908.529 263.301C906.77 267.496 905.011 270.947 903.251 273.654C901.492 276.361 899.665 277.714 897.771 277.714ZM912.792 207.273C916.582 204.296 920.236 200.506 923.755 195.905C927.409 191.304 930.792 186.432 933.904 181.289C937.017 176.011 939.791 170.868 942.227 165.861C944.663 160.854 946.558 156.32 947.911 152.26C949.265 148.2 949.941 145.155 949.941 143.125C949.941 142.448 949.874 142.042 949.738 141.907C949.603 141.636 949.4 141.501 949.13 141.501C948.182 141.501 946.22 143.396 943.242 147.185C940.4 150.839 937.085 155.779 933.295 162.004C929.506 168.229 925.784 175.267 922.13 183.116C918.476 190.965 915.364 199.018 912.792 207.273Z" fill="#ffc34e"/>
<path fill-rule="evenodd" clip-rule="evenodd" d="M914.01 286.328C914.272 281.889 916.567 273.366 932.128 267.87C932.957 270.875 934.475 273.634 936.733 276.024C936.778 276.073 936.825 276.121 936.872 276.168C937.207 276.503 937.551 276.821 937.903 277.122C934.732 277.825 931.54 278.457 928.398 279.079L928.395 279.079L928.154 279.127C931.989 278.95 935.672 278.616 939.185 278.122C942.977 280.812 947.587 281.872 952.378 281.872C959.118 281.872 965.485 279.862 971.371 276.102C977.022 272.492 982.069 267.71 986.549 261.885L986.571 261.856L986.601 261.817C991.016 255.929 994.741 249.417 997.788 242.307C998.956 239.582 998.28 236.417 996.102 234.406L993.463 231.97C991.82 230.454 989.552 229.813 987.358 230.247C985.165 230.68 983.311 232.135 982.368 234.162C982.321 234.262 982.274 234.362 982.227 234.462C982.185 234.553 982.142 234.643 982.099 234.734C982.063 234.81 982.027 234.885 981.991 234.961L981.922 235.105C981.489 229.264 980.052 222.807 977.507 215.711C976.792 213.713 976.109 211.825 975.462 210.035L975.442 209.978C964.75 180.397 963.773 177.695 983.39 146.653C999.705 130.997 1012.76 117.746 1019.47 103.282C1034.56 70.8279 1034.2 38.5779 1033.98 19.0036V19.002C1033.86 8.31458 1033.79 1.40616 1036.29 0.306847C1045.21 -3.59898 1060.77 30.6196 1061.36 55.3085C1061.56 54.0449 1061.75 52.77 1061.95 51.4834L1062.2 49.815L1062.42 48.4146C1062.42 49.613 1062.42 50.8219 1062.4 52.04L1062.3 52.3873L1062.29 52.4221L1062.25 52.5721C1061.96 53.6014 1061.67 54.6401 1061.37 55.6853L1061.37 55.5107C1061.37 55.4439 1061.37 55.3769 1061.36 55.3099C1055.97 90.5284 1051.32 117.031 1029.32 146.651L1028.93 147.023C1035.08 132.249 1037.5 117.15 1034.69 112.202C1031.46 106.534 1020.19 113.061 1005.17 131.575C1043.59 91.8959 1031.33 132.062 1026.58 147.621C1025.58 150.899 1024.91 153.084 1025.12 153.202C1025.12 153.202 1025.12 153.199 1025.13 153.195C1025.13 153.191 1025.14 153.186 1025.15 153.18C1025.18 153.15 1025.25 153.09 1025.34 153.003L1025.53 152.828L1025.55 152.811L1025.55 152.808C1029.76 148.914 1062.82 118.333 1047.72 161.099C1044.74 169.508 1030.32 189.764 1030.32 189.764C1031.56 190.07 1035.97 188 1038.52 186.798C1039.27 186.446 1039.86 186.169 1040.17 186.048C1060.05 178.057 1054.94 193.225 1043.35 205.816C1033.53 216.489 1018.95 224.997 1015.88 226.791C1015.49 227.016 1015.29 227.135 1015.29 227.14C1017.12 228.517 1026.02 227.734 1034.47 226.992C1041.99 226.33 1049.16 225.701 1050.67 226.652C1060.56 232.855 1029.79 244.841 1029.58 244.91C1029.52 244.929 1029.29 245.004 1028.92 245.122L1028.88 245.133L1028.88 245.135C1026.44 245.91 1018.57 248.406 1018.45 248.906C1018.32 249.488 1022.31 250.47 1026.64 251.539L1026.64 251.539C1029.91 252.345 1033.38 253.2 1035.43 253.97C1047.61 258.525 1034.73 262.886 1024.03 266.506C1017.77 268.627 1012.25 270.494 1012.97 271.996C1013.33 272.745 1014.68 273.791 1016.21 274.973L1016.21 274.975C1021.94 279.397 1030.14 285.733 998.038 285.678C991.281 285.666 986.599 285.442 983.619 285.3C980.925 285.171 979.622 285.109 979.435 285.329C979.378 285.392 979.78 285.794 980.4 286.415C982.066 288.081 985.31 291.326 985.497 293.831C985.845 298.387 976.742 297.246 969.323 296.317C963.881 295.635 959.345 295.066 960.112 296.944C963.896 306.203 954.066 302.08 946.512 298.911C942.43 297.199 939.012 295.766 938.768 296.874C935.331 312.438 919.166 297.292 914.173 290.835C915.793 293.649 919.282 297.182 923.27 301.222L923.273 301.224L923.276 301.227L923.276 301.228C925.575 303.556 928.039 306.052 930.407 308.675C933 311.528 935.436 314.59 937.667 317.394L937.669 317.397L937.672 317.401L937.673 317.402L937.675 317.404L937.678 317.408L937.679 317.409L937.681 317.412L937.682 317.414L937.687 317.42L937.689 317.422C940.053 320.394 942.185 323.074 944.03 324.909L944.045 324.958C945.206 328.97 949.073 342.325 945.248 343.913C940.394 345.934 913.406 312.159 914.01 286.305V286.328ZM944.84 325.675C944.577 325.44 944.307 325.184 944.03 324.909L943.924 324.54C944.1 324.762 944.277 324.981 944.452 325.198C944.582 325.358 944.711 325.517 944.84 325.675ZM1008.28 307.532C1010.37 309.594 1012.46 311.588 1014.44 313.475L1014.44 313.48L1014.45 313.488L1014.46 313.492C1021.86 320.551 1027.68 326.103 1026.16 328.094C1024.07 330.859 1006.93 329.093 988.376 321.869C995.599 330.812 996.97 339.593 995.716 340.522C993.021 342.496 977.507 334.738 963.154 323.054C963.665 324.308 970.052 343.1 965.895 343.588C963.818 343.836 955.273 338.448 944.84 325.675L944.922 325.748V325.678C941.592 319.983 940.374 317.374 939.598 315.714C938.249 312.824 938.243 312.81 930.778 304.401C935.702 306.329 938.652 305.004 940.138 297.989C940.151 297.992 940.391 298.28 940.827 298.801C943.597 302.11 954.246 314.835 964.478 324.006C957.065 313.138 951.455 307.771 942.491 299.194L942.252 298.965C950.218 302.519 968.751 308.861 962.411 298.988C962.441 298.997 962.982 299.505 963.911 300.379C968.039 304.261 979.832 315.351 988.609 321.892C982.454 314.11 972.421 305.004 964.385 298.105C968.421 298.43 971.461 298.635 973.968 298.805L973.974 298.805L973.979 298.805L973.991 298.806L973.994 298.806C977.937 299.073 980.564 299.25 983.685 299.662C989.495 300.423 995.557 302.099 1008.28 307.532ZM1008.36 307.514L1008.56 307.653L1008.28 307.532L1008.19 307.444L1008.36 307.514ZM1035.05 297.513L1034.92 297.525C1045.21 305.423 1051.27 310.951 1049.67 314.226C1047.61 318.436 1021.15 312.836 1008.36 307.514C999.744 301.649 995.862 299.889 992.917 298.553C991.42 297.874 990.166 297.305 988.655 296.363C988.446 293.692 986.96 290.44 985.032 287.768C1007.1 289.044 1011.18 290.291 1023.54 294.078C1026.7 295.044 1030.39 296.175 1035.05 297.513ZM1036.03 297.422C1036.26 297.557 1036.49 297.695 1036.73 297.835L1037.22 298.129C1036.67 297.974 1036.13 297.822 1035.61 297.672C1035.42 297.619 1035.24 297.566 1035.05 297.513C1035.38 297.485 1035.71 297.454 1036.03 297.422ZM1048.97 278.584L1048.92 278.593C1050.33 278.955 1051.93 279.304 1053.6 279.667C1060.17 281.097 1067.68 282.733 1067.62 286.142C1067.53 290.786 1050.7 295.983 1036.03 297.422C1032.69 295.424 1030.43 294.013 1028.78 292.979L1028.78 292.978L1028.78 292.977C1026.57 291.596 1025.44 290.889 1024.23 290.352C1022.96 289.789 1021.61 289.414 1018.84 288.646L1018.84 288.646L1018.84 288.645C1017.6 288.302 1016.08 287.88 1014.16 287.327C1024.49 285.724 1030.34 281.636 1018.17 271.949C1018.18 271.949 1020.19 272.383 1023.18 273.031L1023.28 273.052C1031.11 274.746 1045.54 277.866 1048.97 278.584ZM1049.18 278.541L1049.69 278.732C1049.62 278.721 1049.37 278.67 1048.97 278.584L1049.18 278.541ZM1098.7 149.403C1099.12 148.705 1099.6 147.901 1100.12 147.015L1100.21 146.875L1100.21 146.868L1100.21 146.867C1106.37 136.49 1119.03 115.17 1122.08 118.497C1124.89 121.563 1123.75 180.217 1081.18 216.106C1082.68 215.479 1085.59 213.835 1089.13 211.825L1089.13 211.823C1099.64 205.869 1115.8 196.713 1117.88 201.332C1119.99 206.025 1108.54 221.403 1101.88 227.86C1091.08 238.313 1078.44 246.072 1066.78 250.764C1067.68 250.709 1068.96 250.563 1070.49 250.389C1079.87 249.32 1098.34 247.214 1091.29 258.964C1085.21 269.111 1066.35 275.072 1049.18 278.541C1040.22 275.143 1037.5 273.65 1035.8 272.72C1033.85 271.648 1033.25 271.323 1026.07 269.696C1031.85 267.954 1037.92 265.817 1040.75 263.54C1045.77 259.522 1044.74 256.246 1041.38 253.668C1042.08 253.677 1042.75 253.69 1043.41 253.702C1049.7 253.822 1054.77 253.919 1067.29 250.346C1065.71 250.361 1063.92 250.394 1062 250.43C1051.71 250.624 1037.57 250.889 1030.14 248.697C1039.91 245.886 1052.13 241.194 1055.59 232.924C1057.04 229.489 1055.96 228.252 1055.32 227.506C1054.93 227.067 1054.7 226.798 1055.22 226.35C1056.28 225.434 1057.7 225.146 1059.82 224.716C1063.83 223.903 1070.35 222.582 1081.69 215.549C1064.84 219.91 1057.41 220.249 1048.68 220.647C1043.27 220.894 1037.35 221.163 1028.39 222.425C1054.72 206.398 1085.29 177.725 1098.7 149.403ZM1098.3 148.987C1098.55 148.623 1098.8 148.255 1099.06 147.883L1099.66 146.994L1100.04 146.442C1099.62 147.428 1099.17 148.415 1098.7 149.403C1098.17 150.29 1097.74 151.007 1097.42 151.506C1097.72 150.669 1098.01 149.829 1098.3 148.987ZM1085.82 96.7519C1095.1 63.1357 1102.8 57.7034 1105.06 58.6819C1109.88 60.7764 1112.48 107.5 1098.3 148.987L1097.86 149.636L1096.76 151.243C1082.6 171.986 1078.08 178.617 1057.29 194.805C1058.33 191.971 1058.7 189.067 1058.19 186.141C1054.99 177.337 1046.3 179.613 1038.89 182.958C1049.05 173.236 1053.48 168.087 1060.09 160.413L1060.4 160.054C1071.4 147.271 1081.83 129.217 1085.82 96.7519ZM1084.69 97.3183C1084.85 96.7413 1085.02 96.1594 1085.19 95.5728C1085.46 94.6046 1085.74 93.6232 1086.02 92.6285L1086.12 92.2929L1086.17 92.1148L1086.43 91.1795C1086.25 93.083 1086.05 94.9399 1085.82 96.7519C1085.19 99.0501 1084.55 101.48 1083.9 104.049C1084.21 101.835 1084.47 99.5871 1084.69 97.3183ZM1084.69 97.3183C1088.09 62.2131 1081.32 22.0206 1074.12 22.6533C1070.63 22.9554 1066.83 36.3256 1062.4 52.04C1062.06 81.9157 1056.59 117.333 1036.68 140.635C1043.16 136.082 1050.46 133.178 1053.03 140.518C1056.15 149.369 1051.71 162.122 1045.58 172.877C1069.6 147.446 1075.47 129.707 1084.69 97.3183ZM983.365 146.678L983.406 146.628L983.39 146.653L983.365 146.678ZM983.365 146.678C958.053 177.081 963.889 191.162 970.761 207.739C974.558 216.9 978.671 226.823 978.018 240.683C977.989 241.304 977.948 241.915 977.896 242.514C976.507 244.788 975.013 246.981 973.417 249.092C969.922 253.581 966.495 257.028 963.169 259.551C963.137 259.575 963.106 259.599 963.075 259.624C960.721 261.473 959.046 262.21 957.971 262.47C957.962 262.295 957.957 262.099 957.957 261.88C957.957 260.175 958.229 258.321 958.841 256.299C965.487 249.843 967.955 241.036 966.54 231.27C966.637 230.113 966.686 228.948 966.686 227.776C966.686 223.995 966.006 220.332 964.635 216.837C963.273 212.871 960.923 209.505 957.618 206.924C957.064 206.452 956.489 206.024 955.896 205.636C946.487 185.986 953.945 177.048 969.587 159.868C972.44 157.118 975.23 154.454 977.945 151.861L977.957 151.849L977.96 151.847L977.983 151.825C979.812 150.078 981.607 148.364 983.365 146.678ZM951.309 289.232C947.942 298.036 926.435 288.489 922.301 285.747L922.255 285.724C930.662 293.715 951.658 298.988 953.609 288.953C962.248 292.554 978.854 295.062 973.652 283.517C984.916 282.495 996.575 276.711 988.376 270.346C997.829 265.097 1012.34 252.994 1001.17 247.001C1009.84 234.852 1015.18 212.157 1002.94 214.271C1005.93 202.796 1009.21 178.173 993.927 183.887C999.455 165.908 1002.17 142.516 985.218 157.243C1000.66 147.818 994.733 170.969 991.788 182.475L991.787 182.479L991.785 182.487C991.139 185.011 990.637 186.974 990.536 187.906C990.506 188.177 991.465 187.626 992.262 187.168L992.264 187.167C992.694 186.92 993.076 186.7 993.23 186.652C1007.14 182.029 1003.5 201.704 1001.22 209.649C998.261 219.964 998.927 219.569 1000.82 218.445C1002.02 217.734 1003.71 216.731 1005.28 217.965C1011.53 222.866 999.641 242.355 996.575 246.258C995.214 247.99 996.596 248.965 998.158 250.067C1001.58 252.48 1005.86 255.499 984.01 268.418C981.676 269.792 983.362 271.152 985.081 272.538C988.187 275.043 991.403 277.637 971.236 280.567C968.771 280.928 969.67 282.53 970.646 284.269C971.931 286.559 973.349 289.087 967.381 289.325C959.081 289.662 955.853 287.562 954.262 286.528C952.781 285.565 952.72 285.525 951.309 289.232Z" fill="#ffc34e"/>
<path fill-rule="evenodd" clip-rule="evenodd" d="M182.862 265.608C205.692 270.695 208.688 281.218 208.99 286.328V286.305C209.025 287.801 208.968 289.324 208.827 290.865C203.807 297.339 187.687 312.414 184.255 296.874C184.011 295.766 180.594 297.199 176.511 298.911C168.958 302.08 159.127 306.203 162.912 296.944C163.678 295.066 159.137 295.635 153.691 296.317C146.284 297.245 137.204 298.382 137.525 293.86C138.513 294.378 139.625 294.661 140.776 294.661C144.545 294.661 147.874 293.275 150.788 291.134C155.044 293.11 163.822 291.255 169.345 288.953C171.29 298.956 192.158 293.748 200.618 285.8C196.293 288.609 175.037 297.98 171.691 289.232C170.28 285.525 170.219 285.565 168.738 286.528C167.147 287.562 163.919 289.662 155.619 289.325C154.656 289.286 153.886 289.188 153.276 289.042C154.849 287.548 156.28 285.858 157.576 284.099C159.76 281.136 162.028 277.406 164.384 272.961C172.773 276.565 183.106 278.584 194.869 279.127L194.629 279.079C184.661 277.106 174.191 275.033 165.447 270.919C167.009 267.867 168.609 264.51 170.248 260.864C173.772 262.905 177.971 264.515 182.862 265.608ZM208.826 290.877L208.827 290.865L208.851 290.835L208.826 290.877ZM178.96 324.942C180.816 323.103 182.963 320.403 185.344 317.409C187.578 314.601 190.018 311.533 192.616 308.675C194.987 306.049 197.453 303.551 199.753 301.222C203.722 297.202 207.195 293.684 208.826 290.877C206.536 315.958 182.325 345.817 177.752 343.913C173.927 342.325 177.794 328.971 178.955 324.958L178.96 324.942ZM178.101 325.748C178.424 325.353 178.749 324.95 179.076 324.54L178.96 324.942C178.666 325.233 178.38 325.502 178.101 325.748ZM114.687 307.567C127.441 302.106 133.539 300.424 139.361 299.662C142.482 299.25 145.109 299.073 149.053 298.806L149.055 298.806C151.567 298.637 154.614 298.431 158.661 298.105C150.626 305.004 140.592 314.11 134.438 321.892C143.184 315.36 154.969 304.291 159.117 300.395L159.121 300.391C160.059 299.51 160.606 298.997 160.636 298.988C154.295 308.861 172.829 302.519 180.795 298.965L180.556 299.194C171.591 307.771 165.981 313.138 158.569 324.006C168.8 314.836 179.447 302.113 182.218 298.803L182.219 298.801C182.655 298.28 182.896 297.992 182.908 297.989C184.395 305.004 187.344 306.329 192.268 304.401C184.804 312.81 184.798 312.824 183.448 315.714C182.673 317.374 181.454 319.983 178.124 325.678L178.101 325.748C167.694 338.469 159.178 343.836 157.105 343.588C152.948 343.1 159.335 324.308 159.846 323.054C145.493 334.738 129.979 342.496 127.284 340.522C126.03 339.593 127.401 330.812 134.624 321.869C116.067 329.093 98.9267 330.859 96.8365 328.094C95.3208 326.103 101.142 320.551 108.543 313.492C110.515 311.611 112.6 309.623 114.687 307.567ZM114.765 307.464L114.813 307.444L114.687 307.567L114.487 307.653L114.765 307.464ZM87.9815 297.516C92.6533 296.176 96.3483 295.045 99.5035 294.078C111.034 290.547 115.355 289.224 133.785 288.027C133.849 289.252 134.235 290.458 134.932 291.514C135.101 291.771 135.285 292.014 135.483 292.243C134.886 293.664 134.492 295.081 134.391 296.363C132.881 297.305 131.626 297.874 130.129 298.553C127.193 299.885 123.325 301.639 114.765 307.464C102.019 312.8 75.3972 318.449 73.3328 314.226C71.7303 310.951 77.792 305.423 88.0807 297.525L87.9815 297.516ZM87.0069 297.426C87.1811 297.443 87.3549 297.46 87.5285 297.476C87.6798 297.49 87.8308 297.503 87.9815 297.516C87.2858 297.716 86.5684 297.92 85.8279 298.129L86.2805 297.859C86.5282 297.712 86.7703 297.568 87.0069 297.426ZM74.0576 278.589C77.4215 277.884 91.773 274.781 99.6481 273.078L99.6689 273.073L99.7381 273.058L99.7663 273.052L99.8997 273.023C102.877 272.379 104.866 271.949 104.872 271.949C92.7024 281.636 98.5551 285.724 108.89 287.327C106.965 287.88 105.443 288.302 104.205 288.646C101.435 289.414 100.083 289.789 98.8157 290.352C97.6077 290.889 96.4758 291.597 94.2652 292.979L94.2621 292.981C92.6082 294.015 90.3507 295.427 87.0069 297.426C72.3342 295.992 55.4706 290.79 55.3799 286.142C55.3243 282.733 62.8342 281.097 69.4 279.667C71.0656 279.304 72.6709 278.955 74.076 278.593L74.0576 278.589ZM73.8467 278.547L74.0576 278.589C73.6639 278.672 73.4207 278.721 73.356 278.732L73.8467 278.547ZM73.8467 278.547C82.8313 275.141 85.5475 273.647 87.24 272.716C89.1827 271.648 89.7768 271.321 96.9526 269.696C91.1696 267.954 85.1079 265.817 82.2744 263.54C77.2578 259.522 78.2797 256.246 81.6473 253.668C80.9475 253.677 80.2713 253.69 79.6086 253.702C73.3219 253.822 68.2504 253.919 55.7283 250.346C57.3138 250.361 59.1016 250.394 61.0232 250.43C71.3176 250.624 85.451 250.889 92.8883 248.697C83.1105 245.886 70.8942 241.194 67.4337 232.924C65.9843 229.483 67.0543 228.248 67.7002 227.503C68.0789 227.066 68.3117 226.797 67.8052 226.35C66.7444 225.434 65.3248 225.146 63.2029 224.716C59.1928 223.903 52.6744 222.582 41.3287 215.549C58.1828 219.91 65.6111 220.249 74.3482 220.647C79.7578 220.894 85.6691 221.163 94.6301 222.425C68.3629 206.433 37.8638 177.851 24.4088 149.589C24.8896 150.391 25.2865 151.042 25.5822 151.506C25.2724 150.646 24.9701 149.784 24.675 148.919C25.2176 149.713 25.7462 150.488 26.262 151.243C40.4187 171.986 44.9443 178.617 65.7382 194.805C64.6931 191.971 64.3215 189.067 64.8325 186.141C68.0375 177.337 76.7236 179.613 84.1324 182.958C73.978 173.237 69.544 168.088 62.9352 160.413L62.6261 160.054C51.6447 147.291 41.2241 129.273 37.2171 96.9044C37.8377 99.1575 38.4655 101.537 39.0991 104.049C38.7862 101.795 38.5201 99.5056 38.2979 97.195C47.5397 129.662 53.3877 147.414 77.4436 172.877C71.3122 162.122 66.8763 149.369 69.9884 140.518C72.5664 133.178 79.859 136.082 86.3388 140.635C66.4528 117.356 60.9688 81.9836 60.6227 52.1259L60.7022 52.408L60.7031 52.4112C61.0082 53.4931 61.3162 54.5856 61.6274 55.6853C61.6304 55.5167 61.6341 55.3477 61.6386 55.1782C67.0419 90.4623 71.6755 116.994 93.7011 146.651L94.0959 147.023C87.9645 132.249 85.5491 117.15 88.3594 112.202C91.5644 106.534 102.829 113.061 117.855 131.575C79.43 91.8959 91.6954 132.062 96.4467 147.621C97.4476 150.899 98.115 153.084 97.9048 153.202C97.8991 153.204 97.7471 153.064 97.4706 152.808C93.2615 148.914 60.204 118.333 75.3069 161.099C78.2797 169.508 92.7024 189.764 92.7024 189.764C91.4632 190.07 87.0571 188 84.5004 186.798C83.7509 186.446 83.1604 186.169 82.855 186.048C62.9744 178.057 68.0839 193.225 79.6732 205.816C89.4981 216.489 104.074 224.997 107.147 226.791L107.149 226.792C107.533 227.016 107.737 227.135 107.729 227.14C105.898 228.517 97.0014 227.734 88.5529 226.992C81.0322 226.33 73.8668 225.701 72.3573 226.652C62.4635 232.855 93.2366 244.841 93.4456 244.91C93.5006 244.93 93.7531 245.01 94.1475 245.135C96.5864 245.91 104.45 248.406 104.57 248.906C104.703 249.488 100.718 250.47 96.384 251.539C93.112 252.345 89.6412 253.2 87.593 253.97C75.4088 258.525 88.2949 262.886 98.9906 266.506C105.257 268.627 110.772 270.494 110.052 271.996C109.694 272.746 108.34 273.792 106.808 274.975C101.084 279.397 92.8825 285.733 124.985 285.678C128.603 285.671 131.625 285.604 134.111 285.521C134.178 285.313 134.254 285.107 134.342 284.904C134.739 283.976 135.454 282.355 136.48 280.052C131.787 277.565 129.825 274.054 134.6 270.346C125.148 265.097 110.632 252.994 121.803 247.001C113.164 234.852 107.822 212.157 120.061 214.271C117.065 202.796 113.814 178.173 129.073 183.887C123.545 165.908 120.828 142.516 137.782 157.243C122.358 147.816 128.276 170.977 131.215 182.481C131.861 185.008 132.363 186.973 132.464 187.906C132.494 188.177 131.535 187.626 130.738 187.168L130.737 187.168L130.736 187.167C130.306 186.92 129.924 186.7 129.77 186.652C115.858 182.029 119.504 201.704 121.78 209.649C124.739 219.964 124.073 219.569 122.179 218.445C120.981 217.734 119.291 216.731 117.716 217.965C111.468 222.866 123.359 242.355 126.425 246.258C127.786 247.99 126.404 248.965 124.842 250.067C121.421 252.48 117.142 255.499 138.99 268.418C141.324 269.792 139.638 271.152 137.919 272.538C135.983 274.099 134.005 275.695 137.671 277.385C138.628 275.247 139.769 272.706 141.091 269.766L141.109 269.726C142.637 266.389 144.354 262.625 146.261 258.433C139.768 248.237 138.913 234.125 145.516 215.711C146.238 213.694 146.927 211.788 147.579 209.983L147.581 209.978C158.267 180.415 159.249 177.698 139.669 146.71L139.75 146.788C164.956 177.115 159.125 191.182 152.262 207.739C148.465 216.9 144.352 226.823 145.005 240.683C145.259 246.034 146.341 250.567 148.082 254.428C150.268 249.614 152.677 244.302 155.307 238.49L155.321 238.46C155.572 237.913 155.824 237.363 156.077 236.81C155.998 229.168 158.555 220.704 163.585 212.181C171.966 197.972 172.999 189.011 168.991 180.261C166.859 175.605 163.3 171.009 158.661 165.714C157.039 163.862 155.284 161.924 153.413 159.868C150.555 157.113 147.76 154.444 145.04 151.847L145.03 151.837L145.018 151.825C143.228 150.117 141.471 148.439 139.75 146.788L139.617 146.628L139.669 146.71C123.326 131.029 110.251 117.763 103.525 103.282C88.4429 70.8279 88.8003 38.5779 89.0172 19.0036C89.1357 8.31524 89.2122 1.40621 86.7104 0.306847C77.8067 -3.59211 62.2822 30.4993 61.6386 55.1782C61.4591 54.0066 61.2789 52.8255 61.0971 51.6342L61.0961 51.6276L61.0932 51.6088L61.089 51.5807L61.087 51.5682L61.0778 51.5074L61.0769 51.5014L61.0741 51.4834L61.0718 51.4683C60.9176 50.4578 60.7623 49.4399 60.6055 48.4146C60.6027 49.6412 60.6082 50.8788 60.6227 52.1259C56.1811 36.3744 52.3781 22.956 48.8769 22.6533C41.6863 22.0213 34.925 62.119 38.2979 97.195C37.8317 95.5572 37.3568 93.882 36.8706 92.1665L36.8606 92.1313L36.8559 92.1147L36.5908 91.1795C36.7777 93.1364 36.9868 95.0441 37.2171 96.9044C27.919 63.1521 20.2054 57.702 17.9412 58.6819C13.118 60.7753 10.5235 107.449 24.675 148.919C24.1252 148.114 23.561 147.289 22.981 146.442C23.4327 147.49 23.909 148.54 24.4088 149.589C23.9425 148.812 23.3973 147.893 22.7885 146.868C16.6295 136.492 3.97325 115.17 0.917249 118.497C-1.89298 121.563 -0.754944 180.217 41.8165 216.106C40.316 215.479 37.4118 213.834 33.8636 211.824C23.3518 205.869 7.18727 196.713 5.12098 201.332C3.0075 206.025 14.4574 221.403 21.123 227.86C31.9226 238.313 44.557 246.072 56.216 250.764C55.3202 250.709 54.0361 250.563 52.5121 250.389C43.1312 249.32 24.6609 247.214 31.7136 258.964C37.7947 269.117 56.6747 275.079 73.8467 278.547Z" fill="#ffc34e"/>
<path d="M964.037 242.335C962.654 246.34 961.199 250.217 959.672 253.965C959.346 254.767 959.07 255.545 958.841 256.299C965.487 249.843 967.955 241.036 966.54 231.27C966.223 235.052 965.387 238.746 964.037 242.335Z" fill="#ffc34e"/>
</svg>
