<svg xmlns="http://www.w3.org/2000/svg" xmlns:xlink="http://www.w3.org/1999/xlink" role="img" viewBox="0 0 1123 344" xml:space="preserve"><!-- Generator: WPGraphicator version: 1.5.1 --><style type="text/css">.wpgraphicator-path-p114uml9bv8a9dlug28er path {animation-name: wpgraphicator-path-p114uml9bv8a9dlug28er;animation-delay: 0s;animation-duration: 5.04s;animation-iteration-count: 1;animation-fill-mode: both;}.wpgraphicator-path-bonq0p111u908d2p42dr0 path {animation-name: wpgraphicator-path-bonq0p111u908d2p42dr0;animation-delay: 0s;animation-duration: 5.04s;animation-iteration-count: 1;animation-fill-mode: both;}.wpgraphicator-path-ewxtryij9gya35wl79rw path {animation-name: wpgraphicator-path-ewxtryij9gya35wl79rw;animation-delay: 0s;animation-duration: 5.04s;animation-iteration-count: 1;animation-fill-mode: both;}.wpgraphicator-path-op1eyh70uuimfd5fvpmq path {animation-name: wpgraphicator-path-op1eyh70uuimfd5fvpmq;animation-delay: 0s;animation-duration: 5.04s;animation-iteration-count: 1;animation-fill-mode: both;}.wpgraphicator-path-mg6jt0fvvb82i0omd111u path {animation-name: wpgraphicator-path-mg6jt0fvvb82i0omd111u;animation-delay: 0s;animation-duration: 5.04s;animation-iteration-count: 1;animation-fill-mode: both;}.wpgraphicator-path-e9jv10w5jk7kc1443bes1 path {animation-name: wpgraphicator-path-e9jv10w5jk7kc1443bes1;animation-delay: 0s;animation-duration: 5.04s;animation-iteration-count: 1;animation-fill-mode: both;}.wpgraphicator-path-5y1a3qfbtpa295g10hon11 path {animation-name: wpgraphicator-path-5y1a3qfbtpa295g10hon11;animation-delay: 0s;animation-duration: 5.04s;animation-iteration-count: 1;animation-fill-mode: both;}.wpgraphicator-path-10uh41alyh10wi2yfcsw3c path {animation-name: wpgraphicator-path-10uh41alyh10wi2yfcsw3c;animation-delay: 0s;animation-duration: 5.04s;animation-iteration-count: 1;animation-fill-mode: both;}.wpgraphicator-path-wx25rrkr3p84tpb5ecl8 path {animation-name: wpgraphicator-path-wx25rrkr3p84tpb5ecl8;animation-delay: 0s;animation-duration: 5.04s;animation-iteration-count: 1;animation-fill-mode: both;}.wpgraphicator-path-118hpea70k86l10kwgeaky path {animation-name: wpgraphicator-path-118hpea70k86l10kwgeaky;animation-delay: 0s;animation-duration: 5.04s;animation-iteration-count: 1;animation-fill-mode: both;}.wpgraphicator-path-5y1a3qfbtpa295g10hon11-left {animation-name: wpgraphicator-path-5y1a3qfbtpa295g10hon11-left;animation-delay: 0s;animation-duration: 5.04s;animation-iteration-count: 1;animation-fill-mode: both;}@keyframes wpgraphicator-path-5y1a3qfbtpa295g10hon11-left {0% {animation-timing-function: cubic-bezier(0, 0.85, 1, 0.15);transform: translateX(484.42px);}0.1984126984126984% {animation-timing-function: ease-in-out;transform: translateX(484.42px);}89.88095238095238% {animation-timing-function: cubic-bezier(0, 0.85, 1, 0.15);transform: translateX(1222.75px);}100% {animation-timing-function: cubic-bezier(0, 0.85, 1, 0.15);transform: translateX(1222.75px);}}@keyframes wpgraphicator-path-p114uml9bv8a9dlug28er{0% {animation-timing-function:ease-in-out;opacity:0;}3.968253968253969% {animation-timing-function:ease-out;opacity:0;}11.507936507936508% {animation-timing-function:ease-out;opacity:0.81;}100% {animation-timing-function:ease-out;opacity:0.81;}}@keyframes wpgraphicator-path-bonq0p111u908d2p42dr0{0% {animation-timing-function:ease-out;opacity:0;}8.928571428571429% {animation-timing-function:ease-out;opacity:0;}18.253968253968257% {animation-timing-function:ease-out;opacity:1;}100% {animation-timing-function:ease-out;opacity:1;}}@keyframes wpgraphicator-path-ewxtryij9gya35wl79rw{0% {animation-timing-function:cubic-bezier(0, 0.85, 1, 0.15);opacity:0;}30.357142857142854% {animation-timing-function:cubic-bezier(0, 0.85, 1, 0.15);opacity:0;}60.11904761904761% {animation-timing-function:ease-out;opacity:0.06;}73.01587301587303% {animation-timing-function:cubic-bezier(0, 0.85, 1, 0.15);opacity:1;}83.53174603174604% {animation-timing-function:cubic-bezier(0, 0.85, 1, 0.15);opacity:1;}100% {animation-timing-function:cubic-bezier(0, 0.85, 1, 0.15);opacity:1;}}@keyframes wpgraphicator-path-op1eyh70uuimfd5fvpmq{0% {animation-timing-function:ease-out;opacity:0;}13.492063492063494% {animation-timing-function:ease-out;opacity:0;}28.174603174603174% {animation-timing-function:ease-out;opacity:0.97;}100% {animation-timing-function:ease-out;opacity:0.97;}}@keyframes wpgraphicator-path-mg6jt0fvvb82i0omd111u{0% {animation-timing-function:ease-out;opacity:0;}75.79365079365078% {animation-timing-function:ease-out;opacity:0;}85.91269841269842% {animation-timing-function:ease-out;opacity:0.95;}100% {animation-timing-function:ease-out;opacity:0.95;}}@keyframes wpgraphicator-path-e9jv10w5jk7kc1443bes1{0% {animation-timing-function:ease-out;opacity:0;}70.43650793650794% {animation-timing-function:ease-out;opacity:0;}79.96031746031747% {animation-timing-function:cubic-bezier(0.33, 1, 0.68, 1);opacity:0.82;}100% {animation-timing-function:cubic-bezier(0.33, 1, 0.68, 1);opacity:0.82;}}@keyframes wpgraphicator-path-5y1a3qfbtpa295g10hon11{0% {}100% {}}@keyframes wpgraphicator-path-10uh41alyh10wi2yfcsw3c{}@keyframes wpgraphicator-path-wx25rrkr3p84tpb5ecl8{0% {animation-timing-function:ease-out;opacity:0;}89.28571428571429% {animation-timing-function:ease-out;opacity:0;}100% {animation-timing-function:ease-out;opacity:1;animation-timing-function:ease-out;opacity:1;}}@keyframes wpgraphicator-path-118hpea70k86l10kwgeaky{0% {animation-timing-function:ease-out;opacity:0;}83.92857142857144% {animation-timing-function:ease-out;opacity:0;}96.82539682539682% {animation-timing-function:ease-out;opacity:1;}100% {animation-timing-function:ease-out;opacity:1;}}</style><g class="wpgraphicator-path-p114uml9bv8a9dlug28er-top" style="transform:translateY(205.75px)"><g class="wpgraphicator-path-p114uml9bv8a9dlug28er-left" style="transform:translateX(217.92px)"><g class="wpgraphicator-path-p114uml9bv8a9dlug28er-angle" style="transform:rotate(0deg)"><g class="wpgraphicator-path-p114uml9bv8a9dlug28er-scaleY" style="transform:scaleY(1)"><g class="wpgraphicator-path-p114uml9bv8a9dlug28er-scaleX" style="transform:scaleX(1)"><g class="wpgraphicator-path-p114uml9bv8a9dlug28er-skewY" style="transform:skewY(0deg)"><g class="wpgraphicator-path-p114uml9bv8a9dlug28er-skewX" style="transform:skewX(0deg)"><g class="wpgraphicator-path-p114uml9bv8a9dlug28er"><path d="M 140.78 287.66 C 141.59 285.77 143.82 280.76 147.48 272.64 C 151.13 264.65 155.87 254.23 161.69 241.38 C 167.64 228.39 174.27 213.7 181.58 197.33 C 189.02 180.82 196.87 163.36 205.13 144.95 C 205.53 144.01 205.94 142.79 206.35 141.3 C 206.89 139.67 207.16 138.12 207.16 136.63 C 207.16 135.14 206.68 133.92 205.74 132.98 C 204.92 131.89 203.1 131.35 200.26 131.35 C 194.57 131.35 189.83 133.31 186.05 137.24 C 182.39 141.03 179.62 145.76 177.72 151.45 C 175.96 157.13 175.08 162.75 175.08 168.3 C 175.08 169.65 175.08 170.8 175.08 171.75 C 175.22 172.7 175.35 173.64 175.49 174.59 C 172.92 174.59 170.82 173.71 169.2 171.95 C 167.71 170.06 166.56 167.82 165.75 165.25 C 165.07 162.54 164.73 160.11 164.73 157.94 C 164.73 153.48 165.95 149.22 168.38 145.16 C 170.82 141.1 173.93 137.44 177.72 134.19 C 181.65 130.95 185.91 128.44 190.51 126.68 C 195.25 124.79 199.85 123.84 204.32 123.84 C 208.78 123.84 212.5 125.13 215.48 127.7 C 218.59 130.13 220.89 134.6 222.38 141.1 C 224.01 147.59 224.82 157 224.82 169.31 C 224.82 177.7 224.48 186.64 223.8 196.11 C 223.26 205.58 222.65 214.92 221.98 224.12 C 221.3 233.33 220.83 241.72 220.56 249.29 C 222.72 241.04 225.77 232.24 229.69 222.9 C 233.75 213.57 238.15 204.3 242.89 195.09 C 247.76 185.76 252.56 177.03 257.3 168.91 C 262.03 160.79 266.3 153.75 270.09 147.79 C 273.88 141.84 276.65 137.51 278.41 134.8 C 280.3 132.1 281.93 130.07 283.28 128.71 C 284.64 127.22 286.39 126.48 288.56 126.48 C 290.45 126.48 292.62 126.95 295.06 127.9 C 294.11 130.34 292.76 133.99 291 138.86 C 289.37 143.6 287.68 149.42 285.92 156.32 C 283.76 164.58 281.59 173.98 279.43 184.54 C 277.26 194.96 275.23 205.58 273.33 216.41 C 271.58 227.24 270.15 237.45 269.07 247.06 C 267.99 256.53 267.45 264.52 267.45 271.02 C 267.45 273.99 267.58 276.29 267.85 277.92 C 268.12 279.54 268.46 280.96 268.87 282.18 C 269.41 283.53 269.95 285.36 270.49 287.66 C 265.89 287.66 262.37 286.92 259.94 285.43 C 257.5 283.94 255.88 281.5 255.07 278.12 C 254.25 274.87 253.85 270.47 253.85 264.93 C 253.85 248.82 255.88 231.57 259.94 213.16 C 264.13 194.62 268.87 175.4 274.15 155.51 C 270.22 160.51 266.09 166.88 261.76 174.59 C 257.57 182.17 253.31 190.42 248.98 199.36 C 244.78 208.15 240.72 217.02 236.8 225.95 C 233.01 234.75 229.62 242.93 226.65 250.51 C 223.67 258.09 221.37 264.38 219.74 269.39 C 218.93 269.66 218.39 269.87 218.12 270 C 217.85 270.14 217.37 270.2 216.7 270.2 C 213.04 270.2 210.61 268.04 209.39 263.71 C 208.31 259.38 207.77 253.29 207.77 245.44 C 207.77 239.89 207.9 233.33 208.17 225.75 C 208.58 218.03 208.98 210.12 209.39 202 C 209.8 193.88 210.13 186.09 210.41 178.65 C 210.81 171.07 211.01 164.58 211.01 159.16 C 211.01 156.46 210.95 154.22 210.81 152.46 C 210.81 150.7 210.74 149.15 210.61 147.79 C 199.78 172.97 190.71 194.48 183.41 212.35 C 176.1 230.08 169.94 244.49 164.93 255.59 C 160.06 266.68 155.73 274.8 151.94 279.95 C 148.15 285.09 144.43 287.66 140.78 287.66 Z" stroke="rgb(0,0,0)" stroke-opacity="1" stroke-width="0" stroke-dasharray="none" stroke-dashoffset="0" stroke-linecap="butt" stroke-linejoin="miter" stroke-miterlimit="4" fill="rgb(255,195,78)" fill-opacity="1" fill-rule="nonzero" opacity="0" transform=" translate(-217.92, -205.75)"></path></g></g></g></g></g></g></g></g><g class="wpgraphicator-path-bonq0p111u908d2p42dr0-top" style="transform:translateY(265.74px)"><g class="wpgraphicator-path-bonq0p111u908d2p42dr0-left" style="transform:translateX(333.61px)"><g class="wpgraphicator-path-bonq0p111u908d2p42dr0-angle" style="transform:rotate(0deg)"><g class="wpgraphicator-path-bonq0p111u908d2p42dr0-scaleY" style="transform:scaleY(1)"><g class="wpgraphicator-path-bonq0p111u908d2p42dr0-scaleX" style="transform:scaleX(1)"><g class="wpgraphicator-path-bonq0p111u908d2p42dr0-skewY" style="transform:skewY(0deg)"><g class="wpgraphicator-path-bonq0p111u908d2p42dr0-skewX" style="transform:skewX(0deg)"><g class="wpgraphicator-path-bonq0p111u908d2p42dr0"><path d="M 301.64 326.84 C 298.25 326.84 295.28 325.89 292.71 324 C 290.13 322.24 288.85 319.6 288.85 316.08 C 288.85 311.75 289.93 307.89 292.1 304.51 C 294.26 301.13 297.17 298.01 300.83 295.17 C 304.48 292.33 308.68 289.62 313.41 287.05 C 318.15 284.48 323.09 281.91 328.23 279.34 C 330.13 274.33 332.02 268.78 333.91 262.69 C 335.94 256.47 337.84 249.63 339.6 242.19 C 335.27 249.23 330.6 255.32 325.59 260.46 C 320.72 265.47 315.51 267.97 309.96 267.97 C 307.39 267.97 304.82 267.43 302.25 266.35 C 299.81 265.13 297.78 263.3 296.16 260.87 C 294.53 258.43 293.72 255.32 293.72 251.53 C 293.72 247.74 294.33 243.34 295.55 238.33 C 296.9 233.33 298.52 228.45 300.42 223.72 C 302.31 218.98 304.28 215.06 306.31 211.94 C 308.34 208.83 310.1 207.27 311.58 207.27 C 312.13 207.27 313.07 207.48 314.43 207.88 C 315.92 208.29 317.27 208.9 318.49 209.71 C 319.84 210.39 320.52 211.13 320.52 211.94 C 319.3 213.7 317.95 216.21 316.46 219.45 C 314.97 222.7 313.48 226.36 311.99 230.42 C 310.64 234.34 309.49 238.2 308.54 241.99 C 307.59 245.78 307.12 249.02 307.12 251.73 C 307.12 254.17 307.66 256.13 308.74 257.62 C 309.83 259.11 311.72 259.85 314.43 259.85 C 317 259.85 319.84 258.63 322.95 256.2 C 326.2 253.63 329.38 250.38 332.49 246.45 C 335.74 242.53 338.72 238.33 341.43 233.87 C 341.83 232.38 342.17 230.89 342.44 229.4 C 342.85 227.78 343.19 226.15 343.46 224.53 C 343.86 222.63 344.81 220.47 346.3 218.03 C 347.92 215.46 350.43 214.18 353.81 214.18 C 354.49 214.18 355.16 214.24 355.84 214.38 C 356.52 214.38 357.26 214.51 358.07 214.78 C 358.07 216.95 357.4 221.01 356.04 226.96 C 354.82 232.78 353 239.62 350.56 247.47 C 348.26 255.32 345.49 263.37 342.24 271.62 C 348.6 269.19 354.82 265.2 360.91 259.65 C 367 253.96 371.94 246.45 375.73 237.11 L 378.37 239.14 C 376.34 245.64 373.23 251.32 369.03 256.2 C 364.97 260.93 360.37 265.06 355.23 268.58 C 350.09 271.96 345.01 274.8 340 277.11 C 336.49 285.77 332.63 293.89 328.43 301.46 C 324.37 309.04 320.04 315.13 315.44 319.74 C 310.98 324.47 306.37 326.84 301.64 326.84 Z M 300.62 320.34 C 302.65 320.34 306.04 317.64 310.77 312.22 C 315.64 306.95 320.79 297.61 326.2 284.21 C 320.65 287.19 315.51 290.1 310.77 292.94 C 306.04 295.92 302.25 299.1 299.4 302.48 C 296.56 305.86 295.14 309.79 295.14 314.25 C 295.14 315.34 295.55 316.62 296.36 318.11 C 297.17 319.6 298.59 320.34 300.62 320.34 Z" stroke="rgb(0,0,0)" stroke-opacity="1" stroke-width="0" stroke-dasharray="none" stroke-dashoffset="0" stroke-linecap="butt" stroke-linejoin="miter" stroke-miterlimit="4" fill="rgb(255,195,78)" fill-opacity="1" fill-rule="nonzero" opacity="0" transform=" translate(-333.61, -267.05)"></path></g></g></g></g></g></g></g></g><g class="wpgraphicator-path-ewxtryij9gya35wl79rw-top" style="transform:translateY(204.26px)"><g class="wpgraphicator-path-ewxtryij9gya35wl79rw-left" style="transform:translateX(600.13px)"><g class="wpgraphicator-path-ewxtryij9gya35wl79rw-angle" style="transform:rotate(0deg)"><g class="wpgraphicator-path-ewxtryij9gya35wl79rw-scaleY" style="transform:scaleY(1)"><g class="wpgraphicator-path-ewxtryij9gya35wl79rw-scaleX" style="transform:scaleX(1)"><g class="wpgraphicator-path-ewxtryij9gya35wl79rw-skewY" style="transform:skewY(0deg)"><g class="wpgraphicator-path-ewxtryij9gya35wl79rw-skewX" style="transform:skewX(0deg)"><g class="wpgraphicator-path-ewxtryij9gya35wl79rw"><path d="M 522.99 287.66 C 523.8 285.77 526.03 280.76 529.68 272.64 C 533.34 264.65 538.08 254.23 543.9 241.38 C 549.85 228.39 556.48 213.7 563.79 197.33 C 571.23 180.82 579.08 163.36 587.34 144.95 C 587.74 144.01 588.15 142.79 588.55 141.3 C 589.1 139.67 589.37 138.12 589.37 136.63 C 589.37 135.14 588.89 133.92 587.95 132.98 C 587.13 131.89 585.31 131.35 582.47 131.35 C 576.78 131.35 572.04 133.31 568.26 137.24 C 564.6 141.03 561.83 145.76 559.93 151.45 C 558.17 157.13 557.29 162.75 557.29 168.3 C 557.29 169.65 557.29 170.8 557.29 171.75 C 557.43 172.7 557.56 173.64 557.7 174.59 C 555.13 174.59 553.03 173.71 551.41 171.95 C 549.92 170.06 548.77 167.82 547.96 165.25 C 547.28 162.54 546.94 160.11 546.94 157.94 C 546.94 153.48 548.16 149.22 550.59 145.16 C 553.03 141.1 556.14 137.44 559.93 134.19 C 563.86 130.95 568.12 128.44 572.72 126.68 C 577.46 124.79 582.06 123.84 586.53 123.84 C 590.99 123.84 594.71 125.13 597.69 127.7 C 600.8 130.13 603.1 134.6 604.59 141.1 C 606.22 147.59 607.03 157 607.03 169.31 C 607.03 177.7 606.69 186.64 606.01 196.11 C 605.47 205.58 604.86 214.92 604.19 224.12 C 603.51 233.33 603.04 241.72 602.77 249.29 C 604.93 241.04 607.98 232.24 611.9 222.9 C 615.96 213.57 620.36 204.3 625.1 195.09 C 629.97 185.76 634.77 177.03 639.51 168.91 C 644.25 160.79 648.51 153.75 652.3 147.79 C 656.09 141.84 658.86 137.51 660.62 134.8 C 662.52 132.1 664.14 130.07 665.49 128.71 C 666.85 127.22 668.61 126.48 670.77 126.48 C 672.67 126.48 674.83 126.95 677.27 127.9 C 676.32 130.34 674.97 133.99 673.21 138.86 C 671.58 143.6 669.89 149.42 668.13 156.32 C 665.97 164.58 663.8 173.98 661.64 184.54 C 659.47 194.96 657.44 205.58 655.55 216.41 C 653.79 227.24 652.37 237.45 651.28 247.06 C 650.2 256.53 649.66 264.52 649.66 271.02 C 649.66 273.99 649.79 276.29 650.07 277.92 C 650.34 279.54 650.67 280.96 651.08 282.18 C 651.62 283.53 652.16 285.36 652.7 287.66 C 648.1 287.66 644.58 286.92 642.15 285.43 C 639.71 283.94 638.09 281.5 637.28 278.12 C 636.46 274.87 636.06 270.47 636.06 264.93 C 636.06 248.82 638.09 231.57 642.15 213.16 C 646.34 194.62 651.08 175.4 656.36 155.51 C 652.43 160.51 648.3 166.88 643.97 174.59 C 639.78 182.17 635.52 190.42 631.18 199.36 C 626.99 208.15 622.93 217.02 619.01 225.95 C 615.22 234.75 611.83 242.93 608.86 250.51 C 605.88 258.09 603.58 264.38 601.95 269.39 C 601.14 269.66 600.6 269.87 600.33 270 C 600.06 270.14 599.59 270.2 598.91 270.2 C 595.26 270.2 592.82 268.04 591.6 263.71 C 590.52 259.38 589.98 253.29 589.98 245.44 C 589.98 239.89 590.11 233.33 590.38 225.75 C 590.79 218.03 591.2 210.12 591.6 202 C 592.01 193.88 592.35 186.09 592.62 178.65 C 593.02 171.07 593.22 164.58 593.22 159.16 C 593.22 156.46 593.16 154.22 593.02 152.46 C 593.02 150.7 592.95 149.15 592.82 147.79 C 581.99 172.97 572.92 194.48 565.62 212.35 C 558.31 230.08 552.15 244.49 547.14 255.59 C 542.27 266.68 537.94 274.8 534.15 279.95 C 530.36 285.09 526.64 287.66 522.99 287.66 Z" stroke="rgb(0,0,0)" stroke-opacity="1" stroke-width="0" stroke-dasharray="none" stroke-dashoffset="0" stroke-linecap="butt" stroke-linejoin="miter" stroke-miterlimit="4" fill="rgb(255,195,78)" fill-opacity="1" fill-rule="nonzero" opacity="0" transform=" translate(-600.13, -205.75)"></path></g></g></g></g></g></g></g></g><g class="wpgraphicator-path-op1eyh70uuimfd5fvpmq-top" style="transform:translateY(202.2px)"><g class="wpgraphicator-path-op1eyh70uuimfd5fvpmq-left" style="transform:translateX(451.99px)"><g class="wpgraphicator-path-op1eyh70uuimfd5fvpmq-angle" style="transform:rotate(0deg)"><g class="wpgraphicator-path-op1eyh70uuimfd5fvpmq-scaleY" style="transform:scaleY(1)"><g class="wpgraphicator-path-op1eyh70uuimfd5fvpmq-scaleX" style="transform:scaleX(1)"><g class="wpgraphicator-path-op1eyh70uuimfd5fvpmq-skewY" style="transform:skewY(0deg)"><g class="wpgraphicator-path-op1eyh70uuimfd5fvpmq-skewX" style="transform:skewX(0deg)"><g class="wpgraphicator-path-op1eyh70uuimfd5fvpmq"><path d="M 389.06 279.34 C 383.24 279.34 378.78 277.65 375.67 274.26 C 372.55 270.88 371 265.87 371 259.24 C 371 255.18 371.54 250.31 372.62 244.63 C 373.84 238.94 375.4 232.92 377.29 226.56 C 379.32 220.06 381.49 213.77 383.79 207.68 C 382.43 207.41 381.15 207 379.93 206.46 C 378.71 205.78 377.56 205.24 376.48 204.84 L 376.48 201.18 C 377.56 201.32 378.85 201.66 380.34 202.2 C 381.82 202.74 383.52 203.08 385.41 203.21 C 389.2 193.47 393.19 184.47 397.39 176.21 C 401.72 167.96 405.85 161.33 409.77 156.32 C 413.69 151.31 417.01 148.81 419.72 148.81 C 420.8 148.81 421.75 149.22 422.56 150.03 C 423.51 150.7 423.98 151.79 423.98 153.28 C 423.98 154.63 423.44 156.59 422.36 159.16 C 421.27 161.6 419.78 164.51 417.89 167.89 C 416 171.27 413.9 175 411.6 179.06 C 409.3 183.12 406.86 187.45 404.29 192.05 C 401.72 196.65 399.28 201.45 396.98 206.46 C 400.36 207 403.61 207.48 406.73 207.88 C 409.97 208.29 413.29 208.49 416.67 208.49 C 420.33 208.49 424.25 208.22 428.45 207.68 C 432.64 207.14 437.45 206.33 442.86 205.24 C 446.38 195.63 450.3 186.09 454.63 176.62 C 459.1 167.15 463.57 158.55 468.03 150.84 C 472.63 142.99 476.96 136.76 481.02 132.16 C 485.22 127.43 488.8 125.06 491.78 125.06 C 494.22 125.06 495.91 126.55 496.86 129.52 C 497.94 132.37 498.48 135.14 498.48 137.85 C 498.48 142.58 497.26 148.2 494.83 154.7 C 492.53 161.06 489.35 167.69 485.29 174.59 C 481.23 181.36 476.49 187.72 471.08 193.67 C 465.8 199.49 460.18 204.23 454.23 207.88 C 452.06 213.03 450.1 218.98 448.34 225.75 C 446.72 232.51 445.57 239.21 444.89 245.84 C 444.21 252.34 444.14 257.75 444.69 262.08 C 447.93 252.75 451.59 244.08 455.65 236.1 C 459.71 228.11 464.24 221.69 469.25 216.81 C 474.39 211.94 479.94 209.51 485.9 209.51 C 491.44 209.51 495.37 211.47 497.67 215.39 C 500.11 219.18 501.32 223.31 501.32 227.78 C 501.32 231.97 500.58 236.03 499.09 239.96 C 497.74 243.88 496.32 247.67 494.83 251.32 C 493.34 254.98 492.59 258.5 492.59 261.88 C 492.59 264.59 493.14 266.55 494.22 267.77 C 495.44 268.99 496.92 269.59 498.68 269.59 C 501.8 269.59 505.25 268.11 509.04 265.13 C 512.96 262.15 516.82 258.23 520.61 253.35 C 524.4 248.35 527.65 242.93 530.35 237.11 L 532.99 239.55 C 530.15 246.18 526.7 252.2 522.64 257.62 C 518.58 262.9 514.11 267.09 509.24 270.2 C 504.37 273.32 499.29 274.87 494.02 274.87 C 489.41 274.87 485.9 273.65 483.46 271.22 C 481.16 268.78 480.01 265.74 480.01 262.08 C 480.01 259.24 480.55 256.06 481.63 252.54 C 482.71 249.02 483.73 245.44 484.68 241.78 C 485.76 238.13 486.3 234.68 486.3 231.43 C 486.3 227.91 485.56 225.41 484.07 223.92 C 482.58 222.43 480.75 221.69 478.59 221.69 C 475.2 221.69 472.16 223.04 469.45 225.75 C 466.75 228.45 464.24 231.97 461.94 236.3 C 459.78 240.5 457.68 244.96 455.65 249.7 C 453.75 254.44 451.93 258.97 450.17 263.3 C 448.41 267.5 446.65 270.95 444.89 273.65 C 443.13 276.36 441.3 277.71 439.41 277.71 C 437.92 277.71 436.57 276.97 435.35 275.48 C 434.13 273.99 433.12 271.9 432.3 269.19 C 431.63 266.48 431.22 263.37 431.09 259.85 C 430.95 256.2 431.15 252.34 431.69 248.28 C 426.55 257.35 420.19 264.79 412.61 270.61 C 405.17 276.43 397.32 279.34 389.06 279.34 Z M 394.95 271.83 C 401.99 271.83 408.89 268.71 415.66 262.49 C 422.42 256.26 428.38 247.81 433.52 237.11 C 434.47 232.65 435.42 228.39 436.36 224.33 C 437.45 220.27 438.87 215.73 440.63 210.72 C 436.02 211.81 431.63 212.55 427.43 212.96 C 423.37 213.36 419.45 213.57 415.66 213.57 C 411.87 213.57 408.28 213.36 404.9 212.96 C 401.51 212.42 398.13 211.87 394.75 211.33 C 391.64 218.51 389 225.88 386.83 233.46 C 384.67 241.04 383.58 248.41 383.58 255.59 C 383.58 261.41 384.46 265.6 386.22 268.17 C 387.98 270.61 390.89 271.83 394.95 271.83 Z M 456.87 199.97 C 461.6 196.18 466 191.64 470.06 186.36 C 474.26 180.95 477.98 175.47 481.23 169.92 C 484.47 164.24 486.98 159.03 488.74 154.29 C 490.63 149.42 491.58 145.7 491.58 143.13 C 491.58 142.04 491.31 141.5 490.77 141.5 C 489.82 141.5 487.99 142.99 485.29 145.97 C 482.58 148.94 479.47 153.07 475.95 158.35 C 472.56 163.63 469.18 169.85 465.8 177.03 C 462.41 184.06 459.44 191.71 456.87 199.97 Z" stroke="rgb(0,0,0)" stroke-opacity="1" stroke-width="0" stroke-dasharray="none" stroke-dashoffset="0" stroke-linecap="butt" stroke-linejoin="miter" stroke-miterlimit="4" fill="rgb(255,195,78)" fill-opacity="1" fill-rule="nonzero" opacity="0" transform=" translate(-451.99, -202.2)"></path></g></g></g></g></g></g></g></g><g class="wpgraphicator-path-mg6jt0fvvb82i0omd111u-top" style="transform:translateY(239.96px)"><g class="wpgraphicator-path-mg6jt0fvvb82i0omd111u-left" style="transform:translateX(719.48px)"><g class="wpgraphicator-path-mg6jt0fvvb82i0omd111u-angle" style="transform:rotate(0deg)"><g class="wpgraphicator-path-mg6jt0fvvb82i0omd111u-scaleY" style="transform:scaleY(1)"><g class="wpgraphicator-path-mg6jt0fvvb82i0omd111u-scaleX" style="transform:scaleX(1)"><g class="wpgraphicator-path-mg6jt0fvvb82i0omd111u-skewY" style="transform:skewY(0deg)"><g class="wpgraphicator-path-mg6jt0fvvb82i0omd111u-skewX" style="transform:skewX(0deg)"><g class="wpgraphicator-path-mg6jt0fvvb82i0omd111u"><path d="M 686.05 279.54 C 681.86 279.54 678.34 278.12 675.5 275.28 C 672.52 272.57 671.03 268.38 671.03 262.69 C 671.03 257.82 672.11 252.61 674.28 247.06 C 676.44 241.38 679.42 235.83 683.21 230.42 C 687 224.87 691.26 219.86 696 215.39 C 700.87 210.79 705.95 207.14 711.23 204.43 C 716.64 201.72 721.98 200.37 727.26 200.37 C 732.54 200.37 736.94 201.79 740.46 204.63 C 743.98 207.34 745.74 211 745.74 215.6 C 745.74 218.98 744.79 221.28 742.89 222.5 C 741.13 223.72 738.77 224.33 735.79 224.33 C 736.06 223.24 736.26 222.09 736.4 220.87 C 736.67 219.52 736.8 218.3 736.8 217.22 C 736.8 214.11 736.06 211.47 734.57 209.3 C 733.08 207 730.51 205.85 726.86 205.85 C 723.07 205.85 719.21 207.21 715.29 209.91 C 711.36 212.48 707.57 216 703.92 220.47 C 700.26 224.8 697.02 229.54 694.17 234.68 C 691.33 239.82 689.1 244.9 687.47 249.9 C 685.85 254.91 685.04 259.38 685.04 263.3 C 685.04 268.58 686.87 271.22 690.52 271.22 C 693.63 271.22 697.02 269.8 700.67 266.96 C 704.32 263.98 708.04 260.26 711.83 255.79 C 715.76 251.19 719.48 246.45 723 241.58 C 726.52 236.71 729.63 232.24 732.34 228.18 C 732.88 227.37 733.22 226.96 733.35 226.96 C 734.16 227.1 735.18 227.37 736.4 227.78 C 737.75 228.18 738.9 228.72 739.85 229.4 C 740.8 230.08 741.27 230.96 741.27 232.04 C 741.27 233.26 740.66 234.95 739.44 237.11 C 738.22 239.14 736.87 241.51 735.38 244.22 C 733.89 246.93 732.54 249.7 731.32 252.54 C 730.1 255.25 729.5 257.82 729.5 260.26 C 729.5 262.29 730.04 264.32 731.12 266.35 C 732.2 268.24 733.96 269.19 736.4 269.19 C 740.05 269.19 744.86 266.55 750.81 261.27 C 756.76 255.86 762.79 247.81 768.88 237.11 L 770.91 239.14 C 768.07 246.45 764.41 252.88 759.95 258.43 C 755.48 263.98 750.67 268.31 745.53 271.42 C 740.52 274.53 735.59 276.09 730.71 276.09 C 725.71 276.09 721.98 274.6 719.55 271.62 C 717.25 268.65 716.1 265.4 716.1 261.88 C 716.1 261.07 716.16 260.19 716.3 259.24 C 716.44 258.16 716.57 257.08 716.71 255.99 C 710.89 263.84 705.54 269.73 700.67 273.65 C 695.93 277.58 691.06 279.54 686.05 279.54 Z" stroke="rgb(0,0,0)" stroke-opacity="1" stroke-width="0" stroke-dasharray="none" stroke-dashoffset="0" stroke-linecap="butt" stroke-linejoin="miter" stroke-miterlimit="4" fill="rgb(255,195,78)" fill-opacity="1" fill-rule="nonzero" opacity="0" transform=" translate(-720.97, -239.95)"></path></g></g></g></g></g></g></g></g><g class="wpgraphicator-path-e9jv10w5jk7kc1443bes1-top" style="transform:translateY(214.07px)"><g class="wpgraphicator-path-e9jv10w5jk7kc1443bes1-left" style="transform:translateX(796.49px)"><g class="wpgraphicator-path-e9jv10w5jk7kc1443bes1-angle" style="transform:rotate(0deg)"><g class="wpgraphicator-path-e9jv10w5jk7kc1443bes1-scaleY" style="transform:scaleY(1)"><g class="wpgraphicator-path-e9jv10w5jk7kc1443bes1-scaleX" style="transform:scaleX(1)"><g class="wpgraphicator-path-e9jv10w5jk7kc1443bes1-skewY" style="transform:skewY(0deg)"><g class="wpgraphicator-path-e9jv10w5jk7kc1443bes1-skewX" style="transform:skewX(0deg)"><g class="wpgraphicator-path-e9jv10w5jk7kc1443bes1"><path d="M 781.98 279.34 C 776.16 279.34 771.69 277.65 768.58 274.26 C 765.47 270.88 763.91 265.87 763.91 259.24 C 763.91 253.29 765 245.98 767.16 237.32 C 769.46 228.52 772.3 219.52 775.69 210.32 C 774.33 210.05 773.05 209.84 771.83 209.71 C 770.61 209.44 769.46 209.1 768.38 208.69 L 768.38 205.04 C 769.46 205.18 770.75 205.31 772.24 205.45 C 773.72 205.58 775.42 205.72 777.31 205.85 C 780.15 198.54 783.2 191.51 786.45 184.74 C 789.69 177.84 792.87 171.75 795.99 166.47 C 799.24 161.06 802.28 156.79 805.12 153.68 C 808.1 150.43 810.6 148.81 812.63 148.81 C 813.72 148.81 814.66 149.22 815.48 150.03 C 816.42 150.7 816.9 151.79 816.9 153.28 C 816.9 155.58 815.48 159.37 812.63 164.64 C 809.79 169.79 806.27 175.94 802.08 183.12 C 797.88 190.29 793.82 198.07 789.9 206.46 C 791.12 206.46 792.33 206.46 793.55 206.46 C 794.9 206.46 796.19 206.46 797.41 206.46 C 801.87 206.46 806.54 206.39 811.42 206.26 C 816.42 206.12 821.43 205.78 826.44 205.24 L 826.44 208.9 C 818.99 209.71 812.29 210.32 806.34 210.72 C 800.52 211.13 795.31 211.33 790.71 211.33 C 790.17 211.33 789.63 211.33 789.09 211.33 C 788.68 211.33 788.21 211.33 787.66 211.33 C 784.55 218.51 781.91 225.88 779.75 233.46 C 777.58 241.04 776.5 248.41 776.5 255.59 C 776.5 261.41 777.38 265.6 779.14 268.17 C 780.9 270.61 783.81 271.83 787.87 271.83 C 794.9 271.83 801.81 268.71 808.57 262.49 C 815.34 256.26 821.29 247.81 826.44 237.11 L 829.08 239.14 C 825.83 246.72 821.7 253.56 816.69 259.65 C 811.82 265.74 806.41 270.54 800.45 274.06 C 794.5 277.58 788.34 279.34 781.98 279.34 Z" stroke="rgb(0,0,0)" stroke-opacity="1" stroke-width="0" stroke-dasharray="none" stroke-dashoffset="0" stroke-linecap="butt" stroke-linejoin="miter" stroke-miterlimit="4" fill="rgb(255,195,78)" fill-opacity="1" fill-rule="nonzero" opacity="0" transform=" translate(-796.49, -214.07)"></path></g></g></g></g></g></g></g></g><g class="wpgraphicator-path-5y1a3qfbtpa295g10hon11-top" style="transform:translateY(200.17px)"><g class="wpgraphicator-path-5y1a3qfbtpa295g10hon11-left" style="transform:translateX(484.42px)"><g class="wpgraphicator-path-5y1a3qfbtpa295g10hon11-angle" style="transform:rotate(0deg)"><g class="wpgraphicator-path-5y1a3qfbtpa295g10hon11-scaleY" style="transform:scaleY(1)"><g class="wpgraphicator-path-5y1a3qfbtpa295g10hon11-scaleX" style="transform:scaleX(1)"><g class="wpgraphicator-path-5y1a3qfbtpa295g10hon11-skewY" style="transform:skewY(0deg)"><g class="wpgraphicator-path-5y1a3qfbtpa295g10hon11-skewX" style="transform:skewX(0deg)"><g class="wpgraphicator-path-5y1a3qfbtpa295g10hon11"><path d="M 914.01 286.33 C 914.27 281.89 916.57 273.37 932.13 267.87 C 932.96 270.88 934.48 273.63 936.73 276.02 C 936.78 276.07 936.83 276.12 936.87 276.17 C 937.21 276.5 937.55 276.82 937.9 277.12 C 934.73 277.83 931.54 278.46 928.4 279.08 L 928.4 279.08 L 928.15 279.13 C 931.99 278.95 935.67 278.62 939.19 278.12 C 942.98 280.81 947.59 281.87 952.38 281.87 C 959.12 281.87 965.49 279.86 971.37 276.1 C 977.02 272.49 982.07 267.71 986.55 261.89 L 986.57 261.86 L 986.6 261.82 C 991.02 255.93 994.74 249.42 997.79 242.31 C 998.96 239.58 998.28 236.42 996.1 234.41 L 993.46 231.97 C 991.82 230.45 989.55 229.81 987.36 230.25 C 985.17 230.68 983.31 232.14 982.37 234.16 C 982.32 234.26 982.27 234.36 982.23 234.46 C 982.19 234.55 982.14 234.64 982.1 234.73 C 982.06 234.81 982.03 234.89 981.99 234.96 L 981.92 235.11 C 981.49 229.26 980.05 222.81 977.51 215.71 C 976.79 213.71 976.11 211.83 975.46 210.04 L 975.44 209.98 C 964.75 180.4 963.77 177.7 983.39 146.65 C 999.71 131 1012.76 117.75 1019.47 103.28 C 1034.56 70.83 1034.2 38.58 1033.98 19 L 1033.98 19 C 1033.86 8.31 1033.79 1.41 1036.29 0.31 C 1045.21 -3.6 1060.77 30.62 1061.36 55.31 C 1061.56 54.04 1061.75 52.77 1061.95 51.48 L 1062.2 49.82 L 1062.42 48.41 C 1062.42 49.61 1062.42 50.82 1062.4 52.04 L 1062.3 52.39 L 1062.29 52.42 L 1062.25 52.57 C 1061.96 53.6 1061.67 54.64 1061.37 55.69 L 1061.37 55.51 C 1061.37 55.44 1061.37 55.38 1061.36 55.31 C 1055.97 90.53 1051.32 117.03 1029.32 146.65 L 1028.93 147.02 C 1035.08 132.25 1037.5 117.15 1034.69 112.2 C 1031.46 106.53 1020.19 113.06 1005.17 131.57 C 1043.59 91.9 1031.33 132.06 1026.58 147.62 C 1025.58 150.9 1024.91 153.08 1025.12 153.2 C 1025.12 153.2 1025.12 153.2 1025.13 153.2 C 1025.13 153.19 1025.14 153.19 1025.15 153.18 C 1025.18 153.15 1025.25 153.09 1025.34 153 L 1025.53 152.83 L 1025.55 152.81 L 1025.55 152.81 C 1029.76 148.91 1062.82 118.33 1047.72 161.1 C 1044.74 169.51 1030.32 189.76 1030.32 189.76 C 1031.56 190.07 1035.97 188 1038.52 186.8 C 1039.27 186.45 1039.86 186.17 1040.17 186.05 C 1060.05 178.06 1054.94 193.23 1043.35 205.82 C 1033.53 216.49 1018.95 225 1015.88 226.79 C 1015.49 227.02 1015.29 227.14 1015.29 227.14 C 1017.12 228.52 1026.02 227.73 1034.47 226.99 C 1041.99 226.33 1049.16 225.7 1050.67 226.65 C 1060.56 232.86 1029.79 244.84 1029.58 244.91 C 1029.52 244.93 1029.29 245 1028.92 245.12 L 1028.88 245.13 L 1028.88 245.14 C 1026.44 245.91 1018.57 248.41 1018.45 248.91 C 1018.32 249.49 1022.31 250.47 1026.64 251.54 L 1026.64 251.54 C 1029.91 252.35 1033.38 253.2 1035.43 253.97 C 1047.61 258.52 1034.73 262.89 1024.03 266.51 C 1017.77 268.63 1012.25 270.49 1012.97 272 C 1013.33 272.75 1014.68 273.79 1016.21 274.97 L 1016.21 274.98 C 1021.94 279.4 1030.14 285.73 998.04 285.68 C 991.28 285.67 986.6 285.44 983.62 285.3 C 980.93 285.17 979.62 285.11 979.44 285.33 C 979.38 285.39 979.78 285.79 980.4 286.42 C 982.07 288.08 985.31 291.33 985.5 293.83 C 985.85 298.39 976.74 297.25 969.32 296.32 C 963.88 295.64 959.35 295.07 960.11 296.94 C 963.9 306.2 954.07 302.08 946.51 298.91 C 942.43 297.2 939.01 295.77 938.77 296.87 C 935.33 312.44 919.17 297.29 914.17 290.83 C 915.79 293.65 919.28 297.18 923.27 301.22 L 923.27 301.22 L 923.28 301.23 L 923.28 301.23 C 925.58 303.56 928.04 306.05 930.41 308.68 C 933 311.53 935.44 314.59 937.67 317.39 L 937.67 317.4 L 937.67 317.4 L 937.67 317.4 L 937.68 317.4 L 937.68 317.41 L 937.68 317.41 L 937.68 317.41 L 937.68 317.41 L 937.69 317.42 L 937.69 317.42 C 940.05 320.39 942.19 323.07 944.03 324.91 L 944.05 324.96 C 945.21 328.97 949.07 342.33 945.25 343.91 C 940.39 345.93 913.41 312.16 914.01 286.31 L 914.01 286.33 Z M 944.84 325.68 C 944.58 325.44 944.31 325.18 944.03 324.91 L 943.92 324.54 C 944.1 324.76 944.28 324.98 944.45 325.2 C 944.58 325.36 944.71 325.52 944.84 325.68 Z M 1008.28 307.53 C 1010.37 309.59 1012.46 311.59 1014.44 313.48 L 1014.44 313.48 L 1014.45 313.49 L 1014.46 313.49 C 1021.86 320.55 1027.68 326.1 1026.16 328.09 C 1024.07 330.86 1006.93 329.09 988.38 321.87 C 995.6 330.81 996.97 339.59 995.72 340.52 C 993.02 342.5 977.51 334.74 963.15 323.05 C 963.67 324.31 970.05 343.1 965.9 343.59 C 963.82 343.84 955.27 338.45 944.84 325.68 L 944.92 325.75 L 944.92 325.68 C 941.59 319.98 940.37 317.37 939.6 315.71 C 938.25 312.82 938.24 312.81 930.78 304.4 C 935.7 306.33 938.65 305 940.14 297.99 C 940.15 297.99 940.39 298.28 940.83 298.8 C 943.6 302.11 954.25 314.83 964.48 324.01 C 957.07 313.14 951.46 307.77 942.49 299.19 L 942.25 298.96 C 950.22 302.52 968.75 308.86 962.41 298.99 C 962.44 299 962.98 299.51 963.91 300.38 C 968.04 304.26 979.83 315.35 988.61 321.89 C 982.45 314.11 972.42 305 964.39 298.11 C 968.42 298.43 971.46 298.64 973.97 298.81 L 973.97 298.81 L 973.98 298.81 L 973.99 298.81 L 973.99 298.81 C 977.94 299.07 980.56 299.25 983.69 299.66 C 989.5 300.42 995.56 302.1 1008.28 307.53 Z M 1008.36 307.51 L 1008.56 307.65 L 1008.28 307.53 L 1008.19 307.44 L 1008.36 307.51 Z M 1035.05 297.51 L 1034.92 297.52 C 1045.21 305.42 1051.27 310.95 1049.67 314.23 C 1047.61 318.44 1021.15 312.84 1008.36 307.51 C 999.74 301.65 995.86 299.89 992.92 298.55 C 991.42 297.87 990.17 297.31 988.66 296.36 C 988.45 293.69 986.96 290.44 985.03 287.77 C 1007.1 289.04 1011.18 290.29 1023.54 294.08 C 1026.7 295.04 1030.39 296.18 1035.05 297.51 Z M 1036.03 297.42 C 1036.26 297.56 1036.49 297.7 1036.73 297.83 L 1037.22 298.13 C 1036.67 297.97 1036.13 297.82 1035.61 297.67 C 1035.42 297.62 1035.24 297.57 1035.05 297.51 C 1035.38 297.49 1035.71 297.45 1036.03 297.42 Z M 1048.97 278.58 L 1048.92 278.59 C 1050.33 278.96 1051.93 279.3 1053.6 279.67 C 1060.17 281.1 1067.68 282.73 1067.62 286.14 C 1067.53 290.79 1050.7 295.98 1036.03 297.42 C 1032.69 295.42 1030.43 294.01 1028.78 292.98 L 1028.78 292.98 L 1028.78 292.98 C 1026.57 291.6 1025.44 290.89 1024.23 290.35 C 1022.96 289.79 1021.61 289.41 1018.84 288.65 L 1018.84 288.65 L 1018.84 288.65 C 1017.6 288.3 1016.08 287.88 1014.16 287.33 C 1024.49 285.72 1030.34 281.64 1018.17 271.95 C 1018.18 271.95 1020.19 272.38 1023.18 273.03 L 1023.28 273.05 C 1031.11 274.75 1045.54 277.87 1048.97 278.58 Z M 1049.18 278.54 L 1049.69 278.73 C 1049.62 278.72 1049.37 278.67 1048.97 278.58 L 1049.18 278.54 Z M 1098.7 149.4 C 1099.12 148.71 1099.6 147.9 1100.12 147.01 L 1100.21 146.88 L 1100.21 146.87 L 1100.21 146.87 C 1106.37 136.49 1119.03 115.17 1122.08 118.5 C 1124.89 121.56 1123.75 180.22 1081.18 216.11 C 1082.68 215.48 1085.59 213.84 1089.13 211.83 L 1089.13 211.82 C 1099.64 205.87 1115.8 196.71 1117.88 201.33 C 1119.99 206.03 1108.54 221.4 1101.88 227.86 C 1091.08 238.31 1078.44 246.07 1066.78 250.76 C 1067.68 250.71 1068.96 250.56 1070.49 250.39 C 1079.87 249.32 1098.34 247.21 1091.29 258.96 C 1085.21 269.11 1066.35 275.07 1049.18 278.54 C 1040.22 275.14 1037.5 273.65 1035.8 272.72 C 1033.85 271.65 1033.25 271.32 1026.07 269.7 C 1031.85 267.95 1037.92 265.82 1040.75 263.54 C 1045.77 259.52 1044.74 256.25 1041.38 253.67 C 1042.08 253.68 1042.75 253.69 1043.41 253.7 C 1049.7 253.82 1054.77 253.92 1067.29 250.35 C 1065.71 250.36 1063.92 250.39 1062 250.43 C 1051.71 250.62 1037.57 250.89 1030.14 248.7 C 1039.91 245.89 1052.13 241.19 1055.59 232.92 C 1057.04 229.49 1055.96 228.25 1055.32 227.51 C 1054.93 227.07 1054.7 226.8 1055.22 226.35 C 1056.28 225.43 1057.7 225.15 1059.82 224.72 C 1063.83 223.9 1070.35 222.58 1081.69 215.55 C 1064.84 219.91 1057.41 220.25 1048.68 220.65 C 1043.27 220.89 1037.35 221.16 1028.39 222.43 C 1054.72 206.4 1085.29 177.73 1098.7 149.4 Z M 1098.3 148.99 C 1098.55 148.62 1098.8 148.26 1099.06 147.88 L 1099.66 146.99 L 1100.04 146.44 C 1099.62 147.43 1099.17 148.42 1098.7 149.4 C 1098.17 150.29 1097.74 151.01 1097.42 151.51 C 1097.72 150.67 1098.01 149.83 1098.3 148.99 Z M 1085.82 96.75 C 1095.1 63.14 1102.8 57.7 1105.06 58.68 C 1109.88 60.78 1112.48 107.5 1098.3 148.99 L 1097.86 149.64 L 1096.76 151.24 C 1082.6 171.99 1078.08 178.62 1057.29 194.81 C 1058.33 191.97 1058.7 189.07 1058.19 186.14 C 1054.99 177.34 1046.3 179.61 1038.89 182.96 C 1049.05 173.24 1053.48 168.09 1060.09 160.41 L 1060.4 160.05 C 1071.4 147.27 1081.83 129.22 1085.82 96.75 Z M 1084.69 97.32 C 1084.85 96.74 1085.02 96.16 1085.19 95.57 C 1085.46 94.6 1085.74 93.62 1086.02 92.63 L 1086.12 92.29 L 1086.17 92.11 L 1086.43 91.18 C 1086.25 93.08 1086.05 94.94 1085.82 96.75 C 1085.19 99.05 1084.55 101.48 1083.9 104.05 C 1084.21 101.84 1084.47 99.59 1084.69 97.32 Z M 1084.69 97.32 C 1088.09 62.21 1081.32 22.02 1074.12 22.65 C 1070.63 22.96 1066.83 36.33 1062.4 52.04 C 1062.06 81.92 1056.59 117.33 1036.68 140.64 C 1043.16 136.08 1050.46 133.18 1053.03 140.52 C 1056.15 149.37 1051.71 162.12 1045.58 172.88 C 1069.6 147.45 1075.47 129.71 1084.69 97.32 Z M 983.37 146.68 L 983.41 146.63 L 983.39 146.65 L 983.37 146.68 Z M 983.37 146.68 C 958.05 177.08 963.89 191.16 970.76 207.74 C 974.56 216.9 978.67 226.82 978.02 240.68 C 977.99 241.3 977.95 241.92 977.9 242.51 C 976.51 244.79 975.01 246.98 973.42 249.09 C 969.92 253.58 966.5 257.03 963.17 259.55 C 963.14 259.58 963.11 259.6 963.08 259.62 C 960.72 261.47 959.05 262.21 957.97 262.47 C 957.96 262.3 957.96 262.1 957.96 261.88 C 957.96 260.18 958.23 258.32 958.84 256.3 C 965.49 249.84 967.96 241.04 966.54 231.27 C 966.64 230.11 966.69 228.95 966.69 227.78 C 966.69 224 966.01 220.33 964.64 216.84 C 963.27 212.87 960.92 209.51 957.62 206.92 C 957.06 206.45 956.49 206.02 955.9 205.64 C 946.49 185.99 953.95 177.05 969.59 159.87 C 972.44 157.12 975.23 154.45 977.95 151.86 L 977.96 151.85 L 977.96 151.85 L 977.98 151.82 C 979.81 150.08 981.61 148.36 983.37 146.68 Z M 951.31 289.23 C 947.94 298.04 926.44 288.49 922.3 285.75 L 922.26 285.72 C 930.66 293.71 951.66 298.99 953.61 288.95 C 962.25 292.55 978.85 295.06 973.65 283.52 C 984.92 282.5 996.58 276.71 988.38 270.35 C 997.83 265.1 1012.34 252.99 1001.17 247 C 1009.84 234.85 1015.18 212.16 1002.94 214.27 C 1005.93 202.8 1009.21 178.17 993.93 183.89 C 999.46 165.91 1002.17 142.52 985.22 157.24 C 1000.66 147.82 994.73 170.97 991.79 182.48 L 991.79 182.48 L 991.79 182.49 C 991.14 185.01 990.64 186.97 990.54 187.91 C 990.51 188.18 991.47 187.63 992.26 187.17 L 992.26 187.17 C 992.69 186.92 993.08 186.7 993.23 186.65 C 1007.14 182.03 1003.5 201.7 1001.22 209.65 C 998.26 219.96 998.93 219.57 1000.82 218.45 C 1002.02 217.73 1003.71 216.73 1005.28 217.97 C 1011.53 222.87 999.64 242.36 996.58 246.26 C 995.21 247.99 996.6 248.97 998.16 250.07 C 1001.58 252.48 1005.86 255.5 984.01 268.42 C 981.68 269.79 983.36 271.15 985.08 272.54 C 988.19 275.04 991.4 277.64 971.24 280.57 C 968.77 280.93 969.67 282.53 970.65 284.27 C 971.93 286.56 973.35 289.09 967.38 289.33 C 959.08 289.66 955.85 287.56 954.26 286.53 C 952.78 285.57 952.72 285.52 951.31 289.23 Z" stroke="rgb(0,0,0)" stroke-opacity="1" stroke-width="0" stroke-dasharray="none" stroke-dashoffset="0" stroke-linecap="butt" stroke-linejoin="miter" stroke-miterlimit="4" fill="rgb(255,195,78)" fill-opacity="1" fill-rule="evenodd" opacity="1" transform=" translate(-1218.67, -200.77)"></path></g></g></g></g></g></g></g></g><g class="wpgraphicator-path-10uh41alyh10wi2yfcsw3c-top" style="transform:translateY(170.87px)"><g class="wpgraphicator-path-10uh41alyh10wi2yfcsw3c-left" style="transform:translateX(104.5px)"><g class="wpgraphicator-path-10uh41alyh10wi2yfcsw3c-angle" style="transform:rotate(0deg)"><g class="wpgraphicator-path-10uh41alyh10wi2yfcsw3c-scaleY" style="transform:scaleY(1)"><g class="wpgraphicator-path-10uh41alyh10wi2yfcsw3c-scaleX" style="transform:scaleX(1)"><g class="wpgraphicator-path-10uh41alyh10wi2yfcsw3c-skewY" style="transform:skewY(0deg)"><g class="wpgraphicator-path-10uh41alyh10wi2yfcsw3c-skewX" style="transform:skewX(0deg)"><g class="wpgraphicator-path-10uh41alyh10wi2yfcsw3c"><path d="M 182.86 265.61 C 205.69 270.7 208.69 281.22 208.99 286.33 L 208.99 286.31 C 209.03 287.8 208.97 289.32 208.83 290.87 C 203.81 297.34 187.69 312.41 184.26 296.87 C 184.01 295.77 180.59 297.2 176.51 298.91 C 168.96 302.08 159.13 306.2 162.91 296.94 C 163.68 295.07 159.14 295.64 153.69 296.32 C 146.28 297.25 137.2 298.38 137.53 293.86 C 138.51 294.38 139.63 294.66 140.78 294.66 C 144.54 294.66 147.87 293.27 150.79 291.13 C 155.04 293.11 163.82 291.26 169.35 288.95 C 171.29 298.96 192.16 293.75 200.62 285.8 C 196.29 288.61 175.04 297.98 171.69 289.23 C 170.28 285.52 170.22 285.57 168.74 286.53 C 167.15 287.56 163.92 289.66 155.62 289.33 C 154.66 289.29 153.89 289.19 153.28 289.04 C 154.85 287.55 156.28 285.86 157.58 284.1 C 159.76 281.14 162.03 277.41 164.38 272.96 C 172.77 276.57 183.11 278.58 194.87 279.13 L 194.63 279.08 C 184.66 277.11 174.19 275.03 165.45 270.92 C 167.01 267.87 168.61 264.51 170.25 260.86 C 173.77 262.9 177.97 264.52 182.86 265.61 Z M 208.83 290.88 L 208.83 290.87 L 208.85 290.83 L 208.83 290.88 Z M 178.96 324.94 C 180.82 323.1 182.96 320.4 185.34 317.41 C 187.58 314.6 190.02 311.53 192.62 308.68 C 194.99 306.05 197.45 303.55 199.75 301.22 C 203.72 297.2 207.2 293.68 208.83 290.88 C 206.54 315.96 182.33 345.82 177.75 343.91 C 173.93 342.33 177.79 328.97 178.96 324.96 L 178.96 324.94 Z M 178.1 325.75 C 178.42 325.35 178.75 324.95 179.08 324.54 L 178.96 324.94 C 178.67 325.23 178.38 325.5 178.1 325.75 Z M 114.69 307.57 C 127.44 302.11 133.54 300.42 139.36 299.66 C 142.48 299.25 145.11 299.07 149.05 298.81 L 149.06 298.81 C 151.57 298.64 154.61 298.43 158.66 298.11 C 150.63 305 140.59 314.11 134.44 321.89 C 143.18 315.36 154.97 304.29 159.12 300.4 L 159.12 300.39 C 160.06 299.51 160.61 299 160.64 298.99 C 154.29 308.86 172.83 302.52 180.8 298.96 L 180.56 299.19 C 171.59 307.77 165.98 313.14 158.57 324.01 C 168.8 314.84 179.45 302.11 182.22 298.8 L 182.22 298.8 C 182.66 298.28 182.9 297.99 182.91 297.99 C 184.4 305 187.34 306.33 192.27 304.4 C 184.8 312.81 184.8 312.82 183.45 315.71 C 182.67 317.37 181.45 319.98 178.12 325.68 L 178.1 325.75 C 167.69 338.47 159.18 343.84 157.1 343.59 C 152.95 343.1 159.34 324.31 159.85 323.05 C 145.49 334.74 129.98 342.5 127.28 340.52 C 126.03 339.59 127.4 330.81 134.62 321.87 C 116.07 329.09 98.93 330.86 96.84 328.09 C 95.32 326.1 101.14 320.55 108.54 313.49 C 110.52 311.61 112.6 309.62 114.69 307.57 Z M 114.77 307.46 L 114.81 307.44 L 114.69 307.57 L 114.49 307.65 L 114.77 307.46 Z M 87.98 297.52 C 92.65 296.18 96.35 295.05 99.5 294.08 C 111.03 290.55 115.36 289.22 133.79 288.03 C 133.85 289.25 134.24 290.46 134.93 291.51 C 135.1 291.77 135.29 292.01 135.48 292.24 C 134.89 293.66 134.49 295.08 134.39 296.36 C 132.88 297.31 131.63 297.87 130.13 298.55 C 127.19 299.89 123.33 301.64 114.77 307.46 C 102.02 312.8 75.4 318.45 73.33 314.23 C 71.73 310.95 77.79 305.42 88.08 297.52 L 87.98 297.52 Z M 87.01 297.43 C 87.18 297.44 87.35 297.46 87.53 297.48 C 87.68 297.49 87.83 297.5 87.98 297.52 C 87.29 297.72 86.57 297.92 85.83 298.13 L 86.28 297.86 C 86.53 297.71 86.77 297.57 87.01 297.43 Z M 74.06 278.59 C 77.42 277.88 91.77 274.78 99.65 273.08 L 99.67 273.07 L 99.74 273.06 L 99.77 273.05 L 99.9 273.02 C 102.88 272.38 104.87 271.95 104.87 271.95 C 92.7 281.64 98.56 285.72 108.89 287.33 C 106.97 287.88 105.44 288.3 104.21 288.65 C 101.44 289.41 100.08 289.79 98.82 290.35 C 97.61 290.89 96.48 291.6 94.27 292.98 L 94.26 292.98 C 92.61 294.02 90.35 295.43 87.01 297.43 C 72.33 295.99 55.47 290.79 55.38 286.14 C 55.32 282.73 62.83 281.1 69.4 279.67 C 71.07 279.3 72.67 278.96 74.08 278.59 L 74.06 278.59 Z M 73.85 278.55 L 74.06 278.59 C 73.66 278.67 73.42 278.72 73.36 278.73 L 73.85 278.55 Z M 73.85 278.55 C 82.83 275.14 85.55 273.65 87.24 272.72 C 89.18 271.65 89.78 271.32 96.95 269.7 C 91.17 267.95 85.11 265.82 82.27 263.54 C 77.26 259.52 78.28 256.25 81.65 253.67 C 80.95 253.68 80.27 253.69 79.61 253.7 C 73.32 253.82 68.25 253.92 55.73 250.35 C 57.31 250.36 59.1 250.39 61.02 250.43 C 71.32 250.62 85.45 250.89 92.89 248.7 C 83.11 245.89 70.89 241.19 67.43 232.92 C 65.98 229.48 67.05 228.25 67.7 227.5 C 68.08 227.07 68.31 226.8 67.81 226.35 C 66.74 225.43 65.32 225.15 63.2 224.72 C 59.19 223.9 52.67 222.58 41.33 215.55 C 58.18 219.91 65.61 220.25 74.35 220.65 C 79.76 220.89 85.67 221.16 94.63 222.43 C 68.36 206.43 37.86 177.85 24.41 149.59 C 24.89 150.39 25.29 151.04 25.58 151.51 C 25.27 150.65 24.97 149.78 24.68 148.92 C 25.22 149.71 25.75 150.49 26.26 151.24 C 40.42 171.99 44.94 178.62 65.74 194.81 C 64.69 191.97 64.32 189.07 64.83 186.14 C 68.04 177.34 76.72 179.61 84.13 182.96 C 73.98 173.24 69.54 168.09 62.94 160.41 L 62.63 160.05 C 51.64 147.29 41.22 129.27 37.22 96.9 C 37.84 99.16 38.47 101.54 39.1 104.05 C 38.79 101.8 38.52 99.51 38.3 97.2 C 47.54 129.66 53.39 147.41 77.44 172.88 C 71.31 162.12 66.88 149.37 69.99 140.52 C 72.57 133.18 79.86 136.08 86.34 140.64 C 66.45 117.36 60.97 81.98 60.62 52.13 L 60.7 52.41 L 60.7 52.41 C 61.01 53.49 61.32 54.59 61.63 55.69 C 61.63 55.52 61.63 55.35 61.64 55.18 C 67.04 90.46 71.68 116.99 93.7 146.65 L 94.1 147.02 C 87.96 132.25 85.55 117.15 88.36 112.2 C 91.56 106.53 102.83 113.06 117.86 131.57 C 79.43 91.9 91.7 132.06 96.45 147.62 C 97.45 150.9 98.12 153.08 97.9 153.2 C 97.9 153.2 97.75 153.06 97.47 152.81 C 93.26 148.91 60.2 118.33 75.31 161.1 C 78.28 169.51 92.7 189.76 92.7 189.76 C 91.46 190.07 87.06 188 84.5 186.8 C 83.75 186.45 83.16 186.17 82.86 186.05 C 62.97 178.06 68.08 193.23 79.67 205.82 C 89.5 216.49 104.07 225 107.15 226.79 L 107.15 226.79 C 107.53 227.02 107.74 227.14 107.73 227.14 C 105.9 228.52 97 227.73 88.55 226.99 C 81.03 226.33 73.87 225.7 72.36 226.65 C 62.46 232.86 93.24 244.84 93.45 244.91 C 93.5 244.93 93.75 245.01 94.15 245.14 C 96.59 245.91 104.45 248.41 104.57 248.91 C 104.7 249.49 100.72 250.47 96.38 251.54 C 93.11 252.35 89.64 253.2 87.59 253.97 C 75.41 258.52 88.29 262.89 98.99 266.51 C 105.26 268.63 110.77 270.49 110.05 272 C 109.69 272.75 108.34 273.79 106.81 274.98 C 101.08 279.4 92.88 285.73 124.99 285.68 C 128.6 285.67 131.63 285.6 134.11 285.52 C 134.18 285.31 134.25 285.11 134.34 284.9 C 134.74 283.98 135.45 282.36 136.48 280.05 C 131.79 277.57 129.82 274.05 134.6 270.35 C 125.15 265.1 110.63 252.99 121.8 247 C 113.16 234.85 107.82 212.16 120.06 214.27 C 117.07 202.8 113.81 178.17 129.07 183.89 C 123.55 165.91 120.83 142.52 137.78 157.24 C 122.36 147.82 128.28 170.98 131.22 182.48 C 131.86 185.01 132.36 186.97 132.46 187.91 C 132.49 188.18 131.54 187.63 130.74 187.17 L 130.74 187.17 L 130.74 187.17 C 130.31 186.92 129.92 186.7 129.77 186.65 C 115.86 182.03 119.5 201.7 121.78 209.65 C 124.74 219.96 124.07 219.57 122.18 218.45 C 120.98 217.73 119.29 216.73 117.72 217.97 C 111.47 222.87 123.36 242.36 126.43 246.26 C 127.79 247.99 126.4 248.97 124.84 250.07 C 121.42 252.48 117.14 255.5 138.99 268.42 C 141.32 269.79 139.64 271.15 137.92 272.54 C 135.98 274.1 134.01 275.7 137.67 277.39 C 138.63 275.25 139.77 272.71 141.09 269.77 L 141.11 269.73 C 142.64 266.39 144.35 262.63 146.26 258.43 C 139.77 248.24 138.91 234.13 145.52 215.71 C 146.24 213.69 146.93 211.79 147.58 209.98 L 147.58 209.98 C 158.27 180.42 159.25 177.7 139.67 146.71 L 139.75 146.79 C 164.96 177.12 159.13 191.18 152.26 207.74 C 148.47 216.9 144.35 226.82 145.01 240.68 C 145.26 246.03 146.34 250.57 148.08 254.43 C 150.27 249.61 152.68 244.3 155.31 238.49 L 155.32 238.46 C 155.57 237.91 155.82 237.36 156.08 236.81 C 156 229.17 158.56 220.7 163.59 212.18 C 171.97 197.97 173 189.01 168.99 180.26 C 166.86 175.61 163.3 171.01 158.66 165.71 C 157.04 163.86 155.28 161.92 153.41 159.87 C 150.56 157.11 147.76 154.44 145.04 151.85 L 145.03 151.84 L 145.02 151.82 C 143.23 150.12 141.47 148.44 139.75 146.79 L 139.62 146.63 L 139.67 146.71 C 123.33 131.03 110.25 117.76 103.53 103.28 C 88.44 70.83 88.8 38.58 89.02 19 C 89.14 8.32 89.21 1.41 86.71 0.31 C 77.81 -3.59 62.28 30.5 61.64 55.18 C 61.46 54.01 61.28 52.83 61.1 51.63 L 61.1 51.63 L 61.09 51.61 L 61.09 51.58 L 61.09 51.57 L 61.08 51.51 L 61.08 51.5 L 61.07 51.48 L 61.07 51.47 C 60.92 50.46 60.76 49.44 60.61 48.41 C 60.6 49.64 60.61 50.88 60.62 52.13 C 56.18 36.37 52.38 22.96 48.88 22.65 C 41.69 22.02 34.92 62.12 38.3 97.2 C 37.83 95.56 37.36 93.88 36.87 92.17 L 36.86 92.13 L 36.86 92.11 L 36.59 91.18 C 36.78 93.14 36.99 95.04 37.22 96.9 C 27.92 63.15 20.21 57.7 17.94 58.68 C 13.12 60.78 10.52 107.45 24.68 148.92 C 24.13 148.11 23.56 147.29 22.98 146.44 C 23.43 147.49 23.91 148.54 24.41 149.59 C 23.94 148.81 23.4 147.89 22.79 146.87 C 16.63 136.49 3.97 115.17 0.92 118.5 C -1.89 121.56 -0.75 180.22 41.82 216.11 C 40.32 215.48 37.41 213.83 33.86 211.82 C 23.35 205.87 7.19 196.71 5.12 201.33 C 3.01 206.03 14.46 221.4 21.12 227.86 C 31.92 238.31 44.56 246.07 56.22 250.76 C 55.32 250.71 54.04 250.56 52.51 250.39 C 43.13 249.32 24.66 247.21 31.71 258.96 C 37.79 269.12 56.67 275.08 73.85 278.55 Z" stroke="rgb(0,0,0)" stroke-opacity="1" stroke-width="0" stroke-dasharray="none" stroke-dashoffset="0" stroke-linecap="butt" stroke-linejoin="miter" stroke-miterlimit="4" fill="rgb(255,195,78)" fill-opacity="1" fill-rule="evenodd" opacity="1" transform=" translate(-104.5, -172)"></path></g></g></g></g></g></g></g></g><g class="wpgraphicator-path-wx25rrkr3p84tpb5ecl8-top" style="transform:translateY(241.38px)"><g class="wpgraphicator-path-wx25rrkr3p84tpb5ecl8-left" style="transform:translateX(858.14px)"><g class="wpgraphicator-path-wx25rrkr3p84tpb5ecl8-angle" style="transform:rotate(0deg)"><g class="wpgraphicator-path-wx25rrkr3p84tpb5ecl8-scaleY" style="transform:scaleY(1)"><g class="wpgraphicator-path-wx25rrkr3p84tpb5ecl8-scaleX" style="transform:scaleX(1)"><g class="wpgraphicator-path-wx25rrkr3p84tpb5ecl8-skewY" style="transform:skewY(0deg)"><g class="wpgraphicator-path-wx25rrkr3p84tpb5ecl8-skewX" style="transform:skewX(0deg)"><g class="wpgraphicator-path-wx25rrkr3p84tpb5ecl8"><path d="M 844.33 281.37 C 837.84 281.37 832.42 279.2 828.09 274.87 C 823.76 270.54 821.6 264.05 821.6 255.38 C 821.6 248.62 822.88 242.05 825.45 235.69 C 828.16 229.2 831.68 223.38 836.01 218.24 C 840.34 213.09 845.14 209.03 850.42 206.06 C 855.7 202.94 860.91 201.39 866.05 201.39 C 871.6 201.39 875.39 203.01 877.42 206.26 C 879.45 209.51 880.47 212.89 880.47 216.41 C 880.47 220.33 879.52 223.78 877.62 226.76 C 875.87 229.74 873.43 231.23 870.32 231.23 C 868.02 231.23 866.05 230.21 864.43 228.18 C 866.46 227.1 868.22 224.93 869.71 221.69 C 871.2 218.3 871.94 215.12 871.94 212.15 C 871.94 210.52 871.6 209.3 870.93 208.49 C 870.38 207.54 869.23 207.07 867.47 207.07 C 863.82 207.07 860.03 208.69 856.11 211.94 C 852.32 215.19 848.73 219.39 845.35 224.53 C 842.1 229.67 839.39 235.08 837.23 240.77 C 835.2 246.45 834.18 251.8 834.18 256.81 C 834.18 261 835.2 264.86 837.23 268.38 C 839.26 271.9 843.18 273.65 849 273.65 C 854.42 273.65 859.83 272.17 865.24 269.19 C 870.79 266.21 875.93 261.95 880.67 256.4 C 885.41 250.85 889.2 244.35 892.04 236.91 L 894.68 238.94 C 891.56 247.06 887.3 254.37 881.89 260.87 C 876.47 267.23 870.52 272.23 864.02 275.89 C 857.53 279.54 850.96 281.37 844.33 281.37 Z" stroke="rgb(0,0,0)" stroke-opacity="1" stroke-width="0" stroke-dasharray="none" stroke-dashoffset="0" stroke-linecap="butt" stroke-linejoin="miter" stroke-miterlimit="4" fill="rgb(255,195,78)" fill-opacity="1" fill-rule="nonzero" opacity="0" transform=" translate(-858.14, -241.38)"></path></g></g></g></g></g></g></g></g><g class="wpgraphicator-path-118hpea70k86l10kwgeaky-top" style="transform:translateY(201.39px)"><g class="wpgraphicator-path-118hpea70k86l10kwgeaky-left" style="transform:translateX(940.4px)"><g class="wpgraphicator-path-118hpea70k86l10kwgeaky-angle" style="transform:rotate(0deg)"><g class="wpgraphicator-path-118hpea70k86l10kwgeaky-scaleY" style="transform:scaleY(1)"><g class="wpgraphicator-path-118hpea70k86l10kwgeaky-scaleX" style="transform:scaleX(1)"><g class="wpgraphicator-path-118hpea70k86l10kwgeaky-skewY" style="transform:skewY(0deg)"><g class="wpgraphicator-path-118hpea70k86l10kwgeaky-skewX" style="transform:skewX(0deg)"><g class="wpgraphicator-path-118hpea70k86l10kwgeaky"><path d="M 897.77 277.71 C 895.2 277.71 893.17 275.55 891.68 271.22 C 890.19 266.89 889.45 262.02 889.45 256.6 C 889.45 250.11 890.53 242.39 892.7 233.46 C 894.86 224.53 897.7 215.12 901.22 205.24 C 904.74 195.36 908.67 185.69 913 176.21 C 917.46 166.74 922 158.15 926.6 150.43 C 931.2 142.72 935.53 136.56 939.59 131.96 C 943.65 127.36 947.17 125.06 950.14 125.06 C 952.58 125.06 954.27 126.55 955.22 129.52 C 956.3 132.37 956.84 135.14 956.84 137.85 C 956.84 141.64 955.96 146.24 954.2 151.65 C 952.58 157.06 950.28 162.88 947.3 169.11 C 944.33 175.2 940.87 181.22 936.95 187.18 C 933.03 193.13 928.76 198.61 924.16 203.62 C 919.56 208.49 914.89 212.35 910.15 215.19 C 908.53 219.12 907.11 223.51 905.89 228.39 C 904.81 233.26 904 238.06 903.45 242.8 C 902.91 247.4 902.64 251.53 902.64 255.18 C 902.64 256.67 902.64 257.96 902.64 259.04 C 902.78 260.12 902.91 261.14 903.05 262.08 C 904.94 256.53 906.97 251.19 909.14 246.05 C 911.44 240.77 913.88 235.96 916.45 231.63 C 919.02 227.17 921.72 223.31 924.57 220.06 C 927.54 216.68 930.66 214.11 933.9 212.35 C 937.15 210.45 940.6 209.51 944.26 209.51 C 948.05 209.51 951.02 210.45 953.19 212.35 C 955.49 214.11 957.11 216.41 958.06 219.25 C 959.14 221.96 959.69 224.8 959.69 227.78 C 959.69 231.97 958.94 236.03 957.45 239.96 C 956.1 243.88 954.68 247.67 953.19 251.32 C 951.7 254.98 950.96 258.5 950.96 261.88 C 950.96 264.59 951.5 266.55 952.58 267.77 C 953.8 268.99 955.29 269.59 957.05 269.59 C 960.16 269.59 963.61 268.11 967.4 265.13 C 971.32 262.15 975.18 258.23 978.97 253.35 C 982.76 248.35 986.01 242.93 988.71 237.11 L 991.35 239.55 C 988.51 246.18 985.06 252.2 981 257.62 C 976.94 262.9 972.47 267.09 967.6 270.2 C 962.73 273.32 957.66 274.87 952.38 274.87 C 947.78 274.87 944.26 273.65 941.82 271.22 C 939.52 268.78 938.37 265.74 938.37 262.08 C 938.37 259.24 938.91 256.06 940 252.54 C 941.08 249.02 942.09 245.44 943.04 241.78 C 944.12 238.13 944.66 234.68 944.66 231.43 C 944.66 227.91 943.92 225.41 942.43 223.92 C 940.94 222.43 939.12 221.69 936.95 221.69 C 933.57 221.69 930.52 223.04 927.82 225.75 C 925.11 228.45 922.6 231.97 920.3 236.3 C 918.14 240.5 916.04 244.96 914.01 249.7 C 912.12 254.44 910.29 258.97 908.53 263.3 C 906.77 267.5 905.01 270.95 903.25 273.65 C 901.49 276.36 899.67 277.71 897.77 277.71 Z M 912.79 207.27 C 916.58 204.3 920.24 200.51 923.76 195.91 C 927.41 191.3 930.79 186.43 933.9 181.29 C 937.02 176.01 939.79 170.87 942.23 165.86 C 944.66 160.85 946.56 156.32 947.91 152.26 C 949.27 148.2 949.94 145.16 949.94 143.13 C 949.94 142.45 949.87 142.04 949.74 141.91 C 949.6 141.64 949.4 141.5 949.13 141.5 C 948.18 141.5 946.22 143.4 943.24 147.19 C 940.4 150.84 937.09 155.78 933.3 162 C 929.51 168.23 925.78 175.27 922.13 183.12 C 918.48 190.97 915.36 199.02 912.79 207.27 Z" stroke="rgb(0,0,0)" stroke-opacity="1" stroke-width="0" stroke-dasharray="none" stroke-dashoffset="0" stroke-linecap="butt" stroke-linejoin="miter" stroke-miterlimit="4" fill="rgb(255,195,78)" fill-opacity="1" fill-rule="nonzero" opacity="0" transform=" translate(-940.4, -201.38)"></path></g></g></g></g></g></g></g></g></svg>